<?xml version="1.0" standalone="no"?>
<!DOCTYPE svg PUBLIC "-//W3C//DTD SVG 20010904//EN"
 "http://www.w3.org/TR/2001/REC-SVG-20010904/DTD/svg10.dtd">
<svg version="1.0" xmlns="http://www.w3.org/2000/svg"
 width="1180.000000pt" height="1180.000000pt" viewBox="0 0 1180.000000 1180.000000"
 preserveAspectRatio="xMidYMid meet">
<metadata>
Created by potrace 1.11, written by Peter Selinger 2001-2013
</metadata>
<g transform="translate(0.000000,1180.000000) scale(0.100000,-0.100000)"
fill="#000000" stroke="none">
<path d="M5838 11795 c-2 -1 -43 -6 -93 -9 -49 -3 -108 -9 -130 -12 -22 -3
-56 -7 -75 -9 -19 -2 -51 -6 -70 -9 -19 -3 -51 -8 -70 -10 -38 -6 -55 -9 -175
-32 -108 -20 -394 -93 -417 -105 -10 -5 -23 -7 -28 -4 -5 3 -11 1 -15 -5 -3
-5 -16 -10 -29 -10 -12 0 -26 -4 -31 -8 -6 -5 -41 -19 -80 -31 -38 -12 -79
-26 -90 -32 -11 -5 -49 -20 -85 -33 -136 -51 -490 -226 -532 -264 -10 -8 -18
-11 -18 -6 0 5 -4 4 -8 -2 -4 -5 -41 -31 -82 -57 -60 -37 -217 -146 -265 -184
-144 -114 -149 -118 -285 -253 -115 -115 -175 -181 -247 -275 -21 -28 -41 -51
-45 -53 -5 -2 -8 -10 -8 -18 0 -8 -7 -17 -15 -20 -8 -3 -17 -14 -20 -25 -4
-10 -12 -25 -18 -31 -20 -21 -127 -194 -127 -206 0 -6 -3 -12 -7 -14 -11 -4
-99 -186 -133 -273 -15 -38 -31 -79 -35 -90 -4 -11 -10 -29 -12 -39 -2 -11 -8
-25 -14 -33 -6 -7 -9 -13 -5 -13 3 0 1 -12 -5 -27 -18 -45 -57 -197 -64 -248
-2 -11 -4 -20 -5 -20 -2 0 -8 -30 -14 -70 -3 -16 -7 -41 -10 -55 -33 -163 -40
-675 -12 -830 2 -14 7 -44 10 -67 13 -92 18 -124 32 -185 8 -35 16 -74 19 -88
15 -66 57 -212 74 -255 5 -11 23 -58 41 -105 37 -97 143 -313 197 -404 36 -62
164 -257 173 -266 3 -3 21 -25 40 -50 117 -154 367 -418 545 -576 67 -59 137
-117 225 -188 40 -32 252 -187 310 -226 36 -25 67 -48 70 -51 9 -11 459 -309
467 -309 5 -1 24 -14 43 -30 19 -17 37 -30 41 -30 4 0 34 -17 66 -39 123 -81
494 -311 502 -311 5 0 11 -4 13 -8 2 -6 296 -189 438 -272 8 -5 56 -33 105
-63 50 -30 173 -103 275 -163 102 -60 187 -112 188 -116 2 -5 8 -8 14 -8 6 0
44 -22 85 -50 41 -27 77 -50 80 -50 3 0 23 -14 44 -31 21 -17 39 -27 39 -22 0
4 4 3 8 -2 6 -9 158 -115 241 -167 14 -9 31 -20 36 -25 6 -5 42 -30 80 -58
103 -72 266 -194 299 -224 90 -82 306 -305 306 -318 0 -2 19 -27 43 -56 23
-29 60 -79 82 -112 22 -33 43 -62 48 -63 4 -2 7 -7 7 -12 0 -4 18 -38 40 -74
35 -58 98 -182 106 -211 2 -5 22 -64 44 -129 43 -124 50 -154 75 -296 21 -123
26 -188 26 -350 2 -192 -10 -310 -44 -465 -19 -84 -75 -254 -89 -273 -6 -6 -8
-12 -5 -12 3 0 -18 -48 -47 -108 -58 -116 -189 -322 -206 -322 -5 0 -10 -4
-10 -10 0 -27 -204 -231 -296 -296 -38 -27 -75 -54 -82 -61 -7 -7 -17 -13 -22
-13 -5 0 -15 -6 -22 -13 -7 -7 -40 -28 -73 -47 -33 -19 -73 -43 -90 -52 -74
-43 -300 -148 -319 -148 -6 0 -16 -4 -21 -9 -22 -19 -341 -112 -435 -126 -19
-2 -55 -9 -80 -14 -56 -11 -158 -23 -226 -26 -28 -1 -55 -4 -60 -6 -5 -2 -58
-3 -119 -2 -137 3 -239 3 -285 1 -20 -1 -43 1 -53 5 -9 3 -28 2 -41 -3 -13 -5
-27 -6 -30 -2 -4 3 -35 7 -69 8 -104 3 -254 21 -402 50 -168 33 -271 63 -540
160 -65 23 -385 186 -385 195 0 5 -6 9 -13 9 -16 0 -295 188 -327 220 -3 3
-34 29 -70 59 -74 62 -198 186 -250 250 -19 23 -40 48 -45 54 -15 17 -86 108
-110 141 -11 15 -35 48 -52 71 -18 24 -33 48 -33 53 0 5 -9 17 -20 27 -11 10
-17 21 -15 25 3 5 1 10 -3 12 -19 8 -230 387 -237 428 -1 3 -9 23 -19 45 -45
103 -134 351 -151 424 -3 9 -9 34 -15 56 -6 22 -13 49 -15 60 -3 11 -7 31 -11
45 -3 14 -7 36 -9 50 -2 14 -4 25 -5 25 -4 0 -27 132 -35 200 -4 28 -8 61 -10
75 -8 49 -17 156 -20 235 -2 44 -4 87 -4 95 -1 12 -20 15 -109 15 l-107 0 1
-70 c1 -60 6 -177 19 -405 1 -30 6 -129 9 -220 4 -91 9 -208 11 -260 12 -234
32 -1046 40 -1635 1 -116 3 -215 4 -220 1 -6 43 -11 104 -12 104 -1 225 -9
307 -19 25 -3 61 -7 80 -9 33 -4 51 -7 130 -21 19 -3 44 -7 55 -9 11 -1 54
-10 95 -19 41 -10 86 -19 100 -22 14 -3 33 -7 42 -10 9 -3 25 -7 36 -9 11 -2
67 -15 124 -29 57 -15 112 -28 123 -31 19 -4 132 -32 165 -40 8 -3 67 -18 130
-35 63 -17 126 -33 140 -36 14 -3 56 -14 95 -26 38 -11 86 -23 105 -28 19 -4
80 -20 135 -34 55 -15 115 -29 134 -32 18 -2 36 -6 40 -9 4 -2 23 -7 42 -10
19 -3 48 -8 64 -12 17 -3 39 -7 50 -9 11 -1 20 -3 20 -4 0 -2 17 -5 80 -14 22
-4 65 -10 95 -16 108 -18 163 -26 250 -34 25 -3 70 -7 100 -11 337 -36 795
-32 1135 11 39 5 52 6 145 19 25 4 81 13 125 21 44 9 94 18 110 21 17 2 56 11
88 18 31 7 57 11 57 8 0 -3 6 0 13 6 8 6 27 13 43 15 16 2 36 6 44 9 8 3 38
10 65 17 28 6 59 16 70 20 11 5 56 20 100 33 106 33 228 77 240 87 6 4 21 11
35 15 14 4 54 21 90 38 36 17 67 31 70 32 29 6 361 192 372 209 4 6 8 7 8 3 0
-4 12 4 27 18 15 14 32 25 36 25 5 0 23 11 41 25 17 14 36 29 41 33 6 5 24 17
40 28 17 10 39 26 50 36 11 9 40 33 65 53 208 171 425 390 547 550 72 94 93
125 93 134 0 5 4 11 8 13 29 11 301 512 287 527 -3 2 0 10 6 17 16 20 95 260
128 390 32 127 39 162 56 279 3 23 7 50 9 60 19 97 26 473 13 636 -8 102 -24
223 -42 324 -22 127 -107 433 -134 483 -5 9 -9 20 -10 25 -2 16 -6 28 -18 57
-6 14 -23 54 -38 90 -35 85 -153 321 -171 341 -8 8 -14 19 -14 23 0 8 -148
238 -159 246 -3 3 -18 23 -33 45 -25 36 -39 53 -96 121 -9 11 -39 47 -67 80
-53 62 -319 331 -396 399 -60 54 -241 201 -309 251 -164 122 -421 294 -438
294 -6 0 -12 4 -14 8 -2 7 -262 169 -478 297 -234 140 -312 185 -321 185 -5 0
-9 5 -9 10 0 6 -4 10 -8 10 -9 0 -208 112 -227 127 -5 5 -21 14 -35 21 -14 7
-38 20 -55 31 -16 10 -48 28 -70 41 -111 62 -131 75 -147 88 -10 8 -18 12 -18
8 0 -4 -12 2 -27 14 -16 12 -41 28 -58 36 -16 8 -39 20 -50 27 -89 54 -322
193 -331 197 -8 4 -383 237 -499 310 -76 48 -287 198 -338 240 -197 161 -349
312 -482 480 -33 41 -62 77 -65 80 -3 3 -19 25 -35 50 -16 25 -32 47 -35 50
-10 9 -110 171 -110 178 0 4 -9 18 -20 32 -11 14 -20 33 -20 43 0 9 -4 17 -10
17 -5 0 -10 4 -10 10 0 5 -13 38 -29 72 -24 53 -103 267 -101 276 0 1 0 3 -1
5 -1 3 -2 11 -22 107 -9 41 -18 88 -21 105 -27 150 -27 489 0 628 22 118 64
270 95 342 19 47 98 208 112 230 61 98 123 188 154 225 41 49 168 177 223 225
45 39 248 173 320 211 30 16 58 33 61 37 3 5 9 8 13 8 3 -1 19 5 34 13 118 60
397 159 514 181 10 2 22 6 27 9 4 3 28 8 52 10 24 3 56 8 72 11 130 25 204 29
542 29 347 0 474 -6 600 -30 17 -3 44 -8 60 -10 17 -3 62 -12 100 -20 39 -9
77 -17 85 -19 8 -2 35 -9 60 -16 25 -7 48 -13 52 -13 3 -1 10 -4 14 -8 4 -5
15 -8 25 -8 31 0 240 -81 374 -144 153 -74 305 -164 432 -257 78 -58 124 -101
258 -244 11 -12 36 -41 55 -66 19 -24 41 -50 48 -58 7 -8 21 -26 30 -40 20
-31 24 -36 57 -77 14 -18 25 -37 25 -43 0 -6 4 -11 9 -11 5 0 14 -13 21 -30 7
-16 16 -30 20 -30 4 0 11 -8 14 -17 8 -22 40 -78 53 -95 49 -62 194 -391 248
-563 21 -66 40 -127 43 -135 6 -19 9 -29 15 -60 3 -14 12 -54 20 -90 8 -36 18
-87 22 -114 3 -27 8 -52 10 -55 1 -3 6 -35 9 -71 4 -36 9 -74 11 -85 2 -11 4
-22 4 -25 1 -3 51 -6 111 -5 l110 0 0 145 c0 197 0 1916 0 2112 0 149 -1 157
-19 153 -11 -2 -41 -6 -68 -10 -26 -4 -59 -9 -73 -12 -34 -8 -573 -12 -585 -5
-5 3 -30 7 -55 8 -43 3 -84 8 -140 18 -14 2 -47 8 -75 12 -27 4 -55 8 -62 10
-6 1 -31 5 -55 9 -24 4 -52 8 -63 10 -11 2 -37 6 -59 10 -21 4 -48 9 -60 11
-11 2 -37 6 -56 9 -19 3 -46 7 -60 10 -33 7 -355 62 -404 69 -21 4 -41 8 -45
10 -3 2 -30 7 -60 10 -29 4 -56 8 -60 10 -3 2 -28 7 -54 10 -26 4 -71 11 -100
17 -29 6 -70 12 -92 15 -22 2 -51 6 -65 9 -46 10 -165 26 -220 31 -63 6 -757
14 -762 9z"/>
</g>
</svg>
