<?xml version="1.0" encoding="UTF-8"?>
<svg viewBox="0 0 17 22" version="1.1" xmlns="http://www.w3.org/2000/svg" xmlns:xlink="http://www.w3.org/1999/xlink">
    <!-- Generator: Sketch 57.1 (83088) - https://sketch.com -->
    <title>Fill 1</title>
    <desc>Created with Sketch.</desc>
    <g id="SYVO-1563" stroke="none" stroke-width="1" fill="none" fill-rule="evenodd">
        <g transform="translate(-837.000000, -433.000000)" fill="#231F20" id="Group-3">
            <g transform="translate(837.000000, 433.000000)">
                <path d="M4.27285833,0.37217 C4.66875648,0.25027 5.06669167,0.12767 5.48143241,-3e-05 C5.5224787,0.20797 5.55731204,0.41097 5.60324722,0.61147 C5.71793241,1.11347 5.81968241,1.61937 6.04548796,2.08977 C6.15253426,2.31267 6.32904352,2.46907 6.55963611,2.53927 C6.84899722,2.62747 7.14671019,2.70907 7.44666389,2.74027 C8.1400713,2.81237 8.83683981,2.81257 9.5209787,2.65597 C9.71938611,2.61057 9.91158056,2.52137 10.0930806,2.42707 C10.2930157,2.32317 10.4074972,2.13237 10.4680991,1.92677 C10.6088583,1.44827 10.7339324,0.96517 10.8602287,0.48267 C10.9004602,0.32887 10.9249046,0.17117 10.9593306,0.00137 C11.3678583,0.12637 11.7687472,0.24917 12.1812472,0.37547 C12.1194231,0.55567 12.0615713,0.72817 12.0011731,0.89967 C11.6071083,2.01987 11.2534787,3.15217 10.969312,4.30417 C10.8151083,4.92907 10.6942102,5.56077 10.6467472,6.20437 C10.6123213,6.67087 10.7308769,7.11177 10.8903769,7.53907 C11.2887194,8.60647 11.690525,9.67307 12.119525,10.72877 C12.556062,11.80317 13.0138861,12.86967 13.4875991,13.92867 C13.7435528,14.50107 14.0518583,15.05087 14.3371454,15.61057 C14.5971731,16.12087 14.8580157,16.63077 15.1183491,17.14097 C15.4605713,17.81147 15.8027935,18.48197 16.1446083,19.15267 C16.2421824,19.34427 16.3383306,19.53667 16.4530157,19.76397 C16.1711917,19.76397 15.9189046,19.74957 15.6688583,19.76657 C14.7964972,19.82597 13.9391083,19.98197 13.1158398,20.26787 C12.5465898,20.46547 11.9958769,20.71707 11.4447565,20.96157 C10.678525,21.30137 9.91433056,21.63877 9.08729352,21.82127 C8.25119167,22.00567 7.44676574,21.88737 6.64946944,21.63347 C5.912775,21.39877 5.21804352,21.06657 4.52259907,20.73857 C3.68894167,20.34547 2.81749722,20.07437 1.90948796,19.91187 C1.30784907,19.80417 0.702849074,19.72957 0.0893953704,19.74247 C0.0660712963,19.74297 0.0426453704,19.74067 -3.05555556e-05,19.73877 C0.103858333,19.53187 0.201228704,19.33597 0.300432407,19.14087 C0.688182407,18.37837 1.07593241,17.61587 1.46480278,16.85387 C1.84348796,16.11167 2.23246019,15.37437 2.60014537,14.62697 C2.89846944,14.02027 3.18141389,13.40587 3.45386759,12.78757 C3.77653426,12.05527 4.08962685,11.31857 4.39090463,10.57757 C4.84108981,9.47007 5.29494167,8.36387 5.6544787,7.22287 C5.81133056,6.72507 5.81499722,6.22637 5.74349722,5.71737 C5.60212685,4.70987 5.34209907,3.72967 5.04133056,2.75947 C4.79556204,1.96617 4.53298796,1.17797 4.27285833,0.37217" id="Fill-1"></path>
            </g>
        </g>
    </g>
</svg>