<?xml version="1.0" encoding="utf-8"?>
<!-- Generator: Adobe Illustrator 23.0.4, SVG Export Plug-In . SVG Version: 6.00 Build 0)  -->
<svg version="1.1" id="Layer_1" xmlns="http://www.w3.org/2000/svg" xmlns:xlink="http://www.w3.org/1999/xlink" x="0px" y="0px"
	 viewBox="0 0 290 46" style="enable-background:new 0 0 290 46;" xml:space="preserve">
<style type="text/css">
	.st0{fill:#231F20;}
	.st1{fill-rule:evenodd;clip-rule:evenodd;fill:#231F20;}
</style>
<title>logo</title>
<desc>Created with Sketch.</desc>
<g id="Page-1">
	<g id="Search" transform="translate(-555.000000, -38.000000)">
		<g id="header" transform="translate(50.000000, 9.000000)">
			<g id="logo" transform="translate(505.000000, 29.000000)">
				<path id="Shape" class="st0" d="M91.6,38.2h0.8l3.2,7.4h-1l-0.7-1.8h-3.7l-0.7,1.8h-1L91.6,38.2z M92.1,39.3L90.5,43h3
					L92.1,39.3z"/>
				<path id="Path" class="st1" d="M108.6,42.8c0,0.4,0,0.8-0.2,1.2c-0.1,0.4-0.3,0.7-0.5,1c-0.2,0.3-0.5,0.5-0.9,0.7
					c-0.8,0.3-1.8,0.3-2.6,0c-0.3-0.1-0.6-0.4-0.9-0.7c-0.2-0.3-0.4-0.6-0.5-1c-0.1-0.4-0.2-0.8-0.2-1.2v-4.6h0.9v4.5
					c0,0.3,0,0.6,0.1,0.9c0.1,0.3,0.2,0.5,0.3,0.7c0.2,0.2,0.4,0.4,0.6,0.5c0.6,0.3,1.3,0.3,1.9,0c0.2-0.1,0.4-0.3,0.6-0.5
					c0.1-0.2,0.3-0.5,0.3-0.7c0.1-0.3,0.1-0.6,0.1-0.9v-4.5h0.9L108.6,42.8z"/>
				<path class="st1" d="M120.3,39.5c-0.1-0.2-0.3-0.4-0.6-0.5c-0.2-0.1-0.5-0.2-0.7-0.2c-0.2,0-0.4,0-0.6,0.1
					c-0.2,0-0.4,0.1-0.5,0.2c-0.2,0.1-0.3,0.2-0.4,0.4c-0.1,0.2-0.1,0.4-0.1,0.6c0,0.2,0,0.3,0.1,0.4c0.1,0.1,0.1,0.3,0.3,0.4
					c0.1,0.1,0.3,0.2,0.5,0.3c0.2,0.1,0.5,0.2,0.7,0.3c0.3,0.1,0.6,0.2,0.8,0.3c0.3,0.1,0.5,0.2,0.7,0.4c0.2,0.2,0.4,0.4,0.5,0.6
					c0.3,0.6,0.2,1.3,0,1.9c-0.1,0.3-0.3,0.5-0.6,0.7c-0.3,0.2-0.5,0.3-0.8,0.4c-0.3,0.1-0.7,0.1-1,0.1c-0.2,0-0.4,0-0.7-0.1
					c-0.2,0-0.4-0.1-0.6-0.2c-0.2-0.1-0.4-0.2-0.6-0.3c-0.2-0.1-0.3-0.3-0.5-0.5l0.7-0.6c0.2,0.3,0.4,0.5,0.7,0.6
					c0.5,0.2,1,0.3,1.5,0.1c0.2-0.1,0.4-0.1,0.5-0.2c0.2-0.1,0.3-0.2,0.4-0.4c0.1-0.2,0.2-0.4,0.1-0.6c0-0.2,0-0.4-0.1-0.6
					c-0.1-0.2-0.2-0.3-0.4-0.4c-0.2-0.1-0.4-0.2-0.6-0.3l-0.9-0.3c-0.3-0.1-0.5-0.2-0.7-0.3c-0.2-0.1-0.4-0.2-0.6-0.4
					c-0.2-0.2-0.3-0.4-0.4-0.6c-0.4-0.8-0.1-1.8,0.6-2.4c0.2-0.2,0.5-0.3,0.8-0.4c0.7-0.2,1.4-0.2,2.1,0.1c0.4,0.1,0.7,0.4,0.9,0.7
					L120.3,39.5z"/>
				<polygon class="st1" points="133.9,39 131.4,39 131.4,45.6 130.6,45.6 130.6,39 128.1,39 128.1,38.2 133.9,38.2 				"/>
				<path class="st0" d="M141.3,38.2h1.9c0.4,0,0.7,0,1.1,0.1c0.3,0,0.7,0.1,1,0.3c0.3,0.1,0.5,0.4,0.7,0.6c0.2,0.3,0.3,0.7,0.3,1.1
					c0,0.5-0.2,1-0.5,1.3c-0.4,0.4-0.9,0.6-1.4,0.6l2.1,3.4h-1.1l-2-3.3h-1.1v3.3h-0.9V38.2z M142.2,41.5h0.8h0.7
					c0.3,0,0.5-0.1,0.7-0.1c0.2-0.1,0.4-0.2,0.6-0.4c0.2-0.2,0.2-0.5,0.2-0.7c0-0.2,0-0.4-0.2-0.6c-0.1-0.2-0.2-0.3-0.4-0.4
					c-0.2-0.1-0.4-0.2-0.6-0.2c-0.2,0-0.4,0-0.6,0h-1.2L142.2,41.5z"/>
				<path class="st0" d="M156.5,38.2h0.8l3.2,7.4h-1l-0.7-1.8H155l-0.7,1.8h-1L156.5,38.2z M156.9,39.3l-1.5,3.7h3.1L156.9,39.3z"/>
				<polygon class="st1" points="167.9,38.2 168.8,38.2 168.8,44.8 172.2,44.8 172.2,45.6 167.9,45.6 				"/>
				<polygon class="st1" points="179.5,38.2 180.4,38.2 180.4,45.6 179.5,45.6 				"/>
				<path class="st0" d="M191,38.2h0.8l3.2,7.4h-1l-0.7-1.8h-3.7l-0.7,1.8h-1L191,38.2z M191.4,39.3l-1.5,3.7h3.1L191.4,39.3z"/>
				<path class="st1" d="M0,20.9h0.6c0,2.1,0.9,4.1,2.3,5.7c1.4,1.4,3.4,2.1,5.3,2c1.6,0.1,3.2-0.4,4.5-1.4c1-0.9,1.6-2.2,1.6-3.6
					c0-0.8-0.2-1.6-0.5-2.3c-0.4-0.7-0.9-1.4-1.5-1.9c-1-0.7-2-1.4-3.1-2c-2.4-1.4-4-2.5-5-3.2c-0.8-0.6-1.6-1.3-2.3-2.1
					C1.4,11.4,1,10.7,0.7,10C0.5,9.2,0.4,8.4,0.4,7.6c0-1.1,0.2-2.3,0.8-3.3c0.5-0.9,1.2-1.7,2-2.3C4,1.4,5,0.9,6,0.6
					C7.1,0.2,8.4,0,9.6,0c0.4,0,0.8,0,1.2,0c0.2,0,1,0.2,2.3,0.4c1,0.2,1.6,0.3,1.8,0.3c0.3,0,0.7,0.1,1,0.1c0.4,0,0.7,0,1.1-0.1v6
					h-0.6c-0.2-1.7-0.9-3.4-2.2-4.6c-1.3-1-3-1.6-4.6-1.5C8.1,0.5,6.6,1,5.4,1.9C4.5,2.8,3.9,4,4,5.2C4,6.1,4.2,7,4.6,7.7
					c0.5,0.9,1.2,1.6,2,2.2c0.6,0.4,1.8,1.2,3.5,2.2s3,1.8,3.6,2.2c0.9,0.6,1.7,1.4,2.4,2.2c0.6,0.7,1,1.5,1.3,2.3
					c0.3,0.8,0.4,1.7,0.4,2.6c0,2.2-0.9,4.2-2.6,5.6c-1.7,1.5-4,2.3-6.9,2.3c-1.3,0-2.6-0.2-3.9-0.6c-1.5-0.4-2.4-0.6-2.9-0.7
					c-0.5-0.1-1-0.1-1.5-0.1C0.2,25.4,0.1,23.1,0,20.9z"/>
				<path class="st0" d="M37.3,0c1.9,0,3.8,0.3,5.6,1c1.8,0.6,3.4,1.6,4.8,2.9c1.3,1.2,2.4,2.7,3.2,4.3c1,2,1.4,4.2,1.4,6.4
					c0,2.2-0.4,4.4-1.4,6.5c-0.7,1.5-1.7,2.9-2.9,4.1c-1.1,1.1-2.4,2-3.8,2.6c-2.2,0.9-4.5,1.3-6.8,1.2c-2,0-4.1-0.3-6-0.9
					c-1.8-0.6-3.4-1.5-4.7-2.8c-1.3-1.3-2.4-2.8-3-4.5c-0.7-1.9-1.1-3.9-1.1-6c-0.1-2.3,0.4-4.6,1.4-6.8c1.5-2.9,3.9-5.2,6.8-6.7
					C32.8,0.5,35,0,37.3,0z M37.4,28.5c1.3,0,2.5-0.3,3.7-0.9c1.1-0.6,2.1-1.4,2.8-2.4c1.1-1.4,1.8-3,2.3-4.7c0.5-2,0.7-4,0.7-6.1
					c0-1.7-0.2-3.5-0.5-5.2c-0.3-1.6-0.9-3-1.8-4.4c-0.8-1.2-1.9-2.3-3.2-3c-1.3-0.7-2.7-1.1-4.2-1.1c-1.4,0-2.7,0.3-3.9,0.9
					c-1.2,0.7-2.2,1.6-2.9,2.7c-0.9,1.3-1.6,2.9-1.9,4.5c-0.4,2-0.7,4-0.6,6c0,1.9,0.2,3.7,0.6,5.5c0.3,1.6,1,3.1,1.9,4.4
					c0.8,1.2,2,2.2,3.3,2.8C34.8,28.1,36.1,28.5,37.4,28.5L37.4,28.5z"/>
				<path class="st0" d="M55.9,1V0.4c2,0.1,3.8,0.1,5.4,0.1l6.2,0l2.1,0c1.6-0.1,3.2,0.2,4.7,0.8c1.3,0.5,2.5,1.5,3.2,2.7
					c0.7,1.3,1.1,2.7,1.1,4.2c0,1.5-0.4,3.1-1.3,4.3c-0.9,1.3-2.2,2.2-3.7,2.7C72,15.8,69.5,16,66,16h-1.7v11c0,0.3,0,0.7,0.2,1
					c0.3,0.2,0.7,0.2,1.1,0.2l2.8,0.1v0.6c-2.2-0.1-4.4-0.1-6.4-0.1s-4,0-6,0.1v-0.6l2.1,0c0.4,0,0.7-0.1,1-0.3
					c0.2-0.4,0.3-0.8,0.2-1.2V2.5c0-0.4,0-0.8-0.2-1.2c-0.2-0.2-0.5-0.3-0.7-0.2L55.9,1z M64.2,1.2v13.3c0,0.4,0.1,0.6,0.2,0.7
					c0.4,0.2,0.9,0.2,1.4,0.2c1.2,0,2.5-0.3,3.6-0.7c1.2-0.5,2.2-1.3,2.9-2.4c0.7-1.2,1.1-2.7,1.1-4.1c0-1.4-0.2-2.8-0.8-4
					c-0.4-1-1.2-1.8-2.2-2.4c-1.2-0.5-2.6-0.8-3.9-0.7C65.7,1.1,65,1.1,64.2,1.2L64.2,1.2z"/>
				<path class="st1" d="M102.9,13.1H88.9v10.4c0,2.7,0.1,4.1,0.2,4.4c0.1,0.2,0.3,0.2,0.6,0.2c0.1,0,0.3,0,0.4,0l2.1,0.1v0.6
					c-2-0.1-3.7-0.1-5.1-0.1c-2.4,0-4.5,0-6.5,0.1v-0.6l2.5-0.1c0.2,0,0.4,0,0.6-0.1c0.1-0.4,0.2-0.7,0.2-1.1c0-1.5,0-2.7,0-3.7V5.4
					c0.1-1.4,0-2.7-0.1-4.1c0-0.1-0.2-0.2-0.4-0.2L80.6,1V0.4c1.9,0.1,3.9,0.1,5.9,0.1c2,0,3.9,0,5.7-0.1V1l-2.5,0.1
					c-0.4,0-0.6,0.1-0.6,0.2c-0.1,0.3-0.2,1.8-0.2,4.6v6.3h13.9V5.4l0-3.1V1.6c0-0.2,0-0.3-0.1-0.5c-0.2-0.1-0.4-0.1-0.6-0.1L99.5,1
					V0.3c1.9,0.1,3.9,0.1,6,0.1c2,0,3.9,0,5.8-0.1V1l-2.4,0.1c-0.4,0-0.6,0.1-0.7,0.3c-0.1,0.2-0.2,1.7-0.2,4.4v17.8
					c-0.1,1.4,0,2.9,0.2,4.3c0.1,0.1,0.3,0.2,0.7,0.2l2.5,0.1v0.6c-2-0.1-3.7-0.1-5-0.1c-2.4,0-4.7,0-6.7,0.1v-0.6l2.5-0.1
					c0.2,0,0.4,0,0.6-0.1c0.1-0.3,0.2-0.6,0.1-0.9c0.1-1.4,0.1-2.5,0.1-3.3L102.9,13.1z"/>
				<path class="st1" d="M113.8,1V0.4c1.9,0.1,3.9,0.1,5.9,0.1c2,0,3.9,0,5.7-0.1V1l-2.5,0.1h-0.3c-0.1,0-0.2,0.1-0.3,0.2
					c-0.1,0.5-0.1,0.9-0.1,1.4c-0.1,1.7-0.1,2.8-0.1,3.2v17.5c-0.1,1.5,0,2.9,0.2,4.4c0.1,0.1,0.3,0.2,0.7,0.2l2.4,0.1v0.6
					c-2-0.1-3.7-0.1-5.1-0.1c-2.4,0-4.5,0-6.5,0.1v-0.6l2.5,0c0.2,0,0.4,0,0.6-0.1c0.1-0.4,0.2-0.8,0.1-1.2l0-3.6V5.4
					c0-0.2,0-1.1,0-2.9c0-0.4,0-0.8-0.1-1.3c-0.1-0.1-0.2-0.1-0.4-0.1L113.8,1z"/>
				<path class="st0" d="M143.9,19.1h-9.5l-2.6,6.3c-0.3,0.7-0.6,1.5-0.7,2.3c0,0.1,0,0.3,0.2,0.3c0.3,0.1,0.6,0.1,0.9,0.1l1.6,0.1
					v0.6c-1.2-0.1-2.3-0.1-3.4-0.1c-0.9,0-1.9,0-2.9,0.1v-0.6h0.6c0.5,0.1,1-0.1,1.5-0.3c0.5-0.6,0.9-1.4,1.2-2.1l10.8-25.6h0.5
					l9.7,25.1c0.5,1.3,0.8,2.1,0.9,2.3c0.1,0.2,0.3,0.3,0.5,0.4c0.5,0.2,1,0.2,1.5,0.2h0.7v0.6c-1.9-0.1-3.8-0.1-5.6-0.1
					c-1,0-2.9,0-5.7,0.1v-0.6h2.4c0.2,0,0.5,0,0.7-0.1c0.1-0.1,0.2-0.2,0.1-0.3c-0.1-0.4-0.2-0.9-0.4-1.2L143.9,19.1z M134.6,18.2h9
					L139.3,7L134.6,18.2z"/>
				<path class="st1" d="M168.4,5.7h-0.5c0.1-1.8,0.1-3.6,0.1-5.4c4.3,0.2,8.5,0.3,12.5,0.3c4.5,0,8.7-0.1,12.5-0.3c0,1.3,0,3,0,5.4
					h-0.5c0-0.9-0.3-1.9-0.8-2.7c-0.5-0.6-1.1-1.1-1.9-1.3c-1.2-0.3-2.5-0.4-3.7-0.4h-3.1V27c0,0.3,0,0.5,0.1,0.8
					c0.1,0.1,0.2,0.2,0.3,0.2c0.4,0.1,0.7,0.1,1.1,0.1l2.6,0v0.6c-2.6-0.1-4.7-0.1-6.2-0.1c-0.8,0-3.2,0-7.1,0.1v-0.6l3.1-0.1
					c0.2,0,0.4,0,0.7-0.1c0.1-0.1,0.2-0.1,0.2-0.3c0.1-0.3,0.1-0.6,0.1-0.9V1.4h-1.9c-1.5-0.1-3.1,0-4.6,0.3c-0.8,0.2-1.5,0.6-2,1.3
					C168.9,3.7,168.5,4.7,168.4,5.7z"/>
				<path class="st0" d="M211.1,0c1.9,0,3.8,0.3,5.6,1c1.8,0.6,3.4,1.6,4.8,2.9c1.3,1.2,2.4,2.7,3.2,4.3c1,2,1.4,4.2,1.4,6.4
					c0,2.2-0.4,4.4-1.4,6.5c-0.7,1.5-1.7,2.9-2.9,4.1c-1.1,1.1-2.4,2-3.8,2.6c-2.2,0.9-4.5,1.3-6.8,1.2c-2,0-4.1-0.3-6-0.9
					c-1.8-0.6-3.4-1.5-4.7-2.8c-1.3-1.3-2.4-2.8-3-4.5c-0.7-1.9-1.1-3.9-1-6c-0.1-2.3,0.4-4.6,1.4-6.8c1.5-2.9,3.9-5.2,6.8-6.7
					C206.6,0.5,208.8,0,211.1,0z M211.2,28.5c1.3,0,2.5-0.3,3.7-0.9c1.1-0.6,2.1-1.4,2.8-2.4c1.1-1.4,1.8-3,2.3-4.7
					c0.5-2,0.7-4,0.7-6.1c0-1.7-0.2-3.5-0.5-5.2c-0.3-1.6-0.9-3-1.8-4.4c-0.8-1.2-1.9-2.3-3.2-3c-1.3-0.7-2.7-1.1-4.2-1.1
					c-1.3,0-2.6,0.3-3.8,0.9c-1.2,0.7-2.2,1.6-3,2.7c-0.9,1.3-1.6,2.9-1.9,4.5c-0.4,2-0.7,4-0.6,6c0,1.9,0.2,3.7,0.6,5.5
					c0.3,1.6,1,3.1,1.9,4.4c0.8,1.2,2,2.2,3.3,2.8C208.6,28.1,209.9,28.5,211.2,28.5L211.2,28.5z"/>
				<path class="st1" d="M229.8,1V0.4c2,0.1,4.1,0.1,6.3,0.1c2.1,0,4.2,0,6.2-0.1V1l-2.8,0.1c-0.3,0-0.6,0-1,0.1
					c-0.1,0-0.3,0.1-0.3,0.2c-0.1,0.2-0.1,0.5-0.1,0.7v25.7c1.9,0.1,3.6,0.1,4.9,0.1c1.4,0.1,2.7-0.1,4-0.4c0.8-0.2,1.5-0.6,2.1-1.1
					c0.5-0.5,0.9-1.1,1.1-1.7c0.3-0.8,0.4-1.7,0.4-2.6h0.5c-0.1,1.3-0.1,2.7-0.1,4c0,0.9,0,1.8,0.1,2.7c-1.6-0.1-5.4-0.2-11.3-0.2
					l-10.1,0.2v-0.6l2.5-0.1c0.3,0,0.5,0,0.7-0.1c0.1-0.2,0.2-0.4,0.1-0.6V1.9c0-0.2,0-0.5-0.1-0.7c-0.2-0.1-0.4-0.2-0.6-0.2
					L229.8,1z"/>
				<path class="st1" d="M253.8,1V0.4c2,0.1,4.1,0.1,6.3,0.1c2.1,0,4.2,0,6.2-0.1V1l-2.8,0.1c-0.3,0-0.6,0-1,0.1
					c-0.1,0-0.3,0.1-0.3,0.2c-0.1,0.2-0.1,0.5-0.1,0.7v25.7c1.9,0.1,3.6,0.1,4.9,0.1c1.4,0.1,2.7-0.1,4-0.4c0.8-0.2,1.5-0.6,2.1-1.1
					c0.5-0.5,0.9-1.1,1.1-1.7c0.3-0.8,0.4-1.7,0.4-2.6h0.5c-0.1,1.3-0.1,2.7-0.1,4c0,0.9,0,1.8,0.1,2.7c-1.6-0.1-5.4-0.2-11.3-0.2
					l-10.1,0.2v-0.6l2.5-0.1c0.3,0,0.5,0,0.7-0.1c0.1-0.2,0.2-0.4,0.1-0.6V1.9c0-0.2,0-0.5-0.1-0.7c-0.2-0.1-0.4-0.2-0.6-0.2
					L253.8,1z"/>
				<path class="st1" d="M277.9,1V0.4c1.9,0.1,3.9,0.1,5.9,0.1c2,0,3.9,0,5.7-0.1V1l-2.5,0.1h-0.3c-0.1,0-0.2,0.1-0.3,0.2
					c-0.1,0.5-0.1,0.9-0.1,1.4c-0.1,1.7-0.1,2.8-0.1,3.2v17.5c-0.1,1.5,0,2.9,0.2,4.4c0.1,0.1,0.3,0.2,0.7,0.2l2.4,0.1v0.6
					c-2-0.1-3.7-0.1-5.1-0.1c-2.4,0-4.5,0-6.5,0.1v-0.6l2.5-0.1c0.2,0,0.4,0,0.6-0.1c0.1-0.4,0.2-0.8,0.1-1.2l0.1-3.5V5.4
					c0-0.2,0-1.1,0-2.9c0-0.4,0-0.8-0.1-1.3c-0.1-0.1-0.2-0.1-0.4-0.1L277.9,1z"/>
			</g>
		</g>
	</g>
</g>
</svg>
