<?xml version="1.0" standalone="no"?>
<!DOCTYPE svg PUBLIC "-//W3C//DTD SVG 1.1//EN" "http://www.w3.org/Graphics/SVG/1.1/DTD/svg11.dtd" >
<svg xmlns="http://www.w3.org/2000/svg" xmlns:xlink="http://www.w3.org/1999/xlink" version="1.1">
<metadata>
Created by FontForge 20170731 at Wed Mar 16 20:00:00 1994
 By Aleksey,,,
(c) Linotype-Hell AG
</metadata>
<defs>
<font id="Tiemann-Roman" horiz-adv-x="1214" >
  <font-face 
    font-family="Tiemann"
    font-weight="400"
    font-stretch="normal"
    units-per-em="2048"
    panose-1="2 4 7 2 8 5 6 2 3 3"
    ascent="1638"
    descent="-410"
    x-height="825"
    cap-height="1455"
    bbox="-313 -488 2246 1963"
    underline-thickness="102"
    underline-position="-358"
    unicode-range="U+0020-FB02"
  />
<missing-glyph horiz-adv-x="1517" 
d="M247 0v1280h1024v-1280h-1024zM279 32h960v1216h-960v-1216z" />
    <glyph glyph-name=".notdef" horiz-adv-x="1517" 
d="M247 0v1280h1024v-1280h-1024zM279 32h960v1216h-960v-1216z" />
    <glyph glyph-name=".null" horiz-adv-x="0" 
 />
    <glyph glyph-name="nonmarkingreturn" horiz-adv-x="0" 
 />
    <glyph glyph-name="space" unicode=" " horiz-adv-x="512" 
 />
    <glyph glyph-name="exclam" unicode="!" horiz-adv-x="512" 
d="M280 270h-52q-2 84 -6 136q-6 87 -21 230l-47 461q-16 168 -16 217q0 67 33 103t83 36t83.5 -36.5t33.5 -106.5q0 -95 -43 -464l-32 -278q-8 -83 -12 -146t-4 -152zM150 81q0 44 31.5 75t75.5 31t75 -31t31 -75q0 -45 -31 -76t-75 -31t-75.5 31t-31.5 76z" />
    <glyph glyph-name="quotedbl" unicode="&#x22;" horiz-adv-x="759" 
d="M259 936h-55l-29 225q-7 52 -12 109q-1 19 -1 37q0 50 19.5 72t50.5 22t50 -22.5t19 -72.5q0 -41 -14 -149zM555 936h-55l-29 225q-7 52 -11 109q-2 19 -2 37q0 50 19.5 72t50.5 22t50 -22.5t19 -72.5q0 -41 -14 -149z" />
    <glyph glyph-name="numbersign" unicode="#" horiz-adv-x="1024" 
d="M-2 409v98h243l58 313h-225v99h243l85 453h110l-84 -453h245l84 453h110l-84 -453h225v-99h-243l-58 -313h225v-98h-244l-75 -409h-111l76 409h-245l-76 -409h-110l76 409h-225zM351 507h245l58 313h-245z" />
    <glyph glyph-name="dollar" unicode="$" horiz-adv-x="1024" 
d="M925 1439v-308h-27q-23 148 -97 221q-98 95 -268 91v-565q163 -89 210 -121q84 -58 131 -115.5t71.5 -123t24.5 -136.5q0 -159 -113 -273t-324 -134v-210h-52v209q-58 1 -94 6q-36 6 -119 29t-124 29.5t-78 6.5q1 187 -9 356h28q13 -188 118 -290.5t278 -103.5v597
q-258 154 -331.5 253t-73.5 225q0 166 117.5 268.5t287.5 120.5v214h52v-211q43 1 81 -3q29 -3 95 -16q108 -21 159 -21q26 0 57 5zM481 1438q-107 -17 -165 -80.5t-58 -151.5q0 -82 49 -152.5t174 -146.5v531zM533 10q128 19 191 85.5t63 163.5q0 65 -24.5 114.5
t-79.5 97.5q-35 30 -150 102v-563z" />
    <glyph glyph-name="percent" unicode="%" horiz-adv-x="1631" 
d="M1177 1477h109l-808 -1503h-110zM738 1093q0 -168 -95 -272.5t-217 -104.5q-76 0 -150.5 45.5t-117 135t-42.5 195.5q0 107 43.5 200t116.5 138t158 45q61 0 110 -21.5t86.5 -60t60 -86.5t35 -106t12.5 -108zM582 1093q0 209 -57 295q-36 56 -101 56q-64 0 -100 -56
q-55 -85 -55 -303q0 -200 57 -284q40 -59 103 -59q45 0 78.5 30.5t54 123.5t20.5 197zM924 354q0 101 39 192.5t114 141t165 49.5q139 0 221.5 -111t82.5 -272q0 -166 -95 -270.5t-217 -104.5q-77 0 -153 47t-116.5 136t-40.5 192zM1390 356q0 209 -56 295q-37 55 -101 55
q-65 0 -101 -55q-55 -85 -55 -303q0 -200 57 -285q40 -58 103 -58q45 0 79 30.5t54 123t20 197.5z" />
    <glyph glyph-name="ampersand" unicode="&#x26;" horiz-adv-x="1517" 
d="M1491 24v-34q-86 5 -201 5q-86 0 -173 -7q-79 63 -182 207q-97 -108 -215 -164.5t-238 -56.5q-167 0 -280.5 111.5t-113.5 266.5q0 71 25.5 139.5t68.5 119t98 92.5q39 30 114 72q-68 58 -96 111t-28 115q0 112 84.5 190.5t222.5 78.5q108 0 173.5 -61.5t65.5 -150.5
q0 -68 -45 -125.5t-143 -93.5q66 -46 127 -104q83 -79 149 -157q29 -34 147 -191q50 71 84 163t34 142q0 14 -9.5 21t-42.5 8l-150 2v33q115 -5 221 -5q107 0 216 5v-33l-136 -5q-35 -1 -45 -10.5t-22 -64.5q-35 -149 -126 -286l120 -164q50 -62 99 -100t91.5 -53t105.5 -16
zM605 856q51 26 76.5 67.5t25.5 109.5q0 100 -50 160q-38 47 -100 47t-99.5 -37.5t-37.5 -100.5q0 -55 35.5 -109t149.5 -137zM918 220q-145 188 -205 258t-133 139q-74 69 -161 135q-88 -37 -128 -99t-40 -135q0 -97 60 -196t163.5 -158.5t203.5 -59.5q64 0 130 31.5
t110 84.5z" />
    <glyph glyph-name="quotesingle" unicode="'" horiz-adv-x="512" 
d="M284 936h-55l-29 225q-7 52 -12 109q-1 19 -1 37q0 50 19.5 72t50.5 22t50 -22.5t19 -72.5q0 -41 -14 -149z" />
    <glyph glyph-name="parenleft" unicode="(" horiz-adv-x="683" 
d="M664 1470v-79q-100 -57 -162 -111q-98 -86 -180 -209t-127 -272q-46 -150 -46 -304q0 -153 45 -303t126 -274q82 -124 178 -210q61 -55 161 -113v-81q-116 64 -191 126q-122 101 -213 239q-92 139 -138 299q-46 161 -46 322q0 177 51 334q52 158 146 292q95 135 205 225
q71 57 191 119z" />
    <glyph glyph-name="parenright" unicode=")" horiz-adv-x="683" 
d="M12 1391v79q115 -58 190 -120q117 -96 210 -231t143 -292q50 -158 50 -331q0 -171 -51 -336t-143 -297q-92 -133 -202 -223q-70 -58 -192 -126v81q104 60 174 126q99 94 173 213q74 120 118 262q45 143 45 300q0 152 -45 302q-46 150 -128 272q-82 123 -177 206
q-59 53 -165 115z" />
    <glyph glyph-name="asterisk" unicode="*" horiz-adv-x="1138" 
d="M597 969q0 -61 48 -167q22 -48 22 -78q0 -36 -25 -60t-65 -24q-43 0 -69.5 23.5t-26.5 56.5q0 38 27.5 98t34.5 86q10 34 10 60q0 19 -7 27.5t-17 8.5q-46 0 -134 -127q-31 -46 -51 -59t-49 -13q-42 0 -69 26t-27 64q0 31 17 55.5t46 35.5q14 5 104 16.5t124 32.5
q13 8 13 23q0 16 -16 27q-25 18 -126 33.5t-128 30.5q-36 21 -36 63q0 45 28.5 76.5t63.5 31.5q26 0 51.5 -18.5t88.5 -100.5q38 -51 63 -69q17 -14 33 -14q14 0 21 7t7 19q0 18 -10 52q-14 52 -34 100.5t-24 62.5t-4 31q0 38 26 63.5t67 25.5q43 0 69 -25.5t26 -59.5
q0 -27 -27 -93q-47 -113 -47 -150q0 -17 8 -25t19 -8q16 0 33 14q32 24 96 108q36 48 57 61.5t48 13.5q40 0 66 -26.5t26 -66.5q0 -31 -17 -55t-46 -35q-17 -6 -100.5 -14t-123.5 -32q-18 -12 -18 -25q0 -14 17 -25q38 -24 169 -43q56 -8 73 -15q23 -8 35 -26.5t12 -47.5
q0 -46 -27 -74t-70 -28q-26 0 -47 14.5t-56 63.5q-89 124 -128 124q-11 0 -17.5 -7t-6.5 -24z" />
    <glyph glyph-name="plus" unicode="+" 
d="M552 0v445h-454v99h454v444h110v-444h454v-99h-454v-445h-110z" />
    <glyph glyph-name="comma" unicode="," horiz-adv-x="512" 
d="M111 -410l-26 31q100 41 155.5 118t55.5 160q0 47 -21 106q-28 -29 -61 -29q-42 0 -69 28t-27 73q0 48 31.5 79t82.5 31q73 0 116 -61t43 -151q0 -105 -68 -210.5t-212 -174.5z" />
    <glyph glyph-name="hyphen" unicode="-" horiz-adv-x="607" 
d="M548 500v-171h-493v171h493z" />
    <glyph glyph-name="hyphen" unicode="&#xad;" horiz-adv-x="607" 
d="M548 500v-171h-493v171h493z" />
    <glyph glyph-name="period" unicode="." horiz-adv-x="512" 
d="M149 81q0 44 31.5 75t75.5 31t75 -31t31 -75q0 -45 -31 -76t-75 -31t-75.5 31t-31.5 76z" />
    <glyph glyph-name="slash" unicode="/" horiz-adv-x="759" 
d="M559 1481h175q-157 -410 -221 -596l-202 -574l-41 -124l-69 -213h-173l235 646q139 380 248 709l12 38z" />
    <glyph glyph-name="zero" unicode="0" horiz-adv-x="1024" 
d="M522 1401q120 0 198 -46t140.5 -138.5t89.5 -198.5q37 -149 37 -332q0 -319 -103 -488q-133 -219 -374 -219q-117 0 -202.5 45.5t-141.5 125t-91 201.5q-44 156 -44 353q0 357 154 544q126 153 337 153zM508 7q53 0 90.5 21.5t65.5 65.5q41 64 61 185t20 366
q0 176 -9.5 314.5t-28 212.5t-46.5 116t-65.5 62t-84.5 20q-46 0 -83.5 -21t-64 -57t-48.5 -102t-29 -139q-17 -168 -17 -371q0 -294 26.5 -427t81 -189.5t131.5 -56.5z" />
    <glyph glyph-name="one" unicode="1" horiz-adv-x="1024" 
d="M623 1403h36q-6 -59 -10 -145q-4 -87 -6 -297l-3 -439l4 -335q2 -125 6 -137q3 -8 10 -12q15 -10 84 -10h67v-33q-149 5 -289 5q-130 0 -271 -5v33h71q65 0 78 10t16 41q6 50 6 253v851q-130 -87 -258 -157l-17 50q210 104 346 202q90 66 130 125z" />
    <glyph glyph-name="two" unicode="2" horiz-adv-x="1024" 
d="M922 332h28q-28 -167 -33 -337q-148 10 -441 10q-293 -1 -396 -10l-7 24q128 89 255.5 214t210.5 255t121 256q27 87 27 193q0 179 -83.5 274t-202.5 95q-74 0 -143.5 -36.5t-107 -101.5t-37.5 -146q0 -58 19 -101t62 -87l-50 -40q-69 79 -69 215q0 162 119.5 277
t298.5 115q117 0 215 -53t151 -149t53 -215q0 -114 -50 -231t-185.5 -261.5t-323.5 -297.5h334q157 0 188 8q17 4 24 16q13 22 23 114z" />
    <glyph glyph-name="three" unicode="3" horiz-adv-x="1024" 
d="M254 886l-31 -52q-55 41 -78 88q-31 62 -31 132q0 82 49.5 165t134.5 131t190 48q167 0 276 -103.5t109 -250.5q0 -83 -36.5 -149t-94.5 -108q-36 -26 -97 -47q82 -24 127 -58q61 -48 97.5 -126t36.5 -169q0 -113 -57 -207.5t-166 -149t-234 -54.5q-152 0 -247 83.5
t-95 184.5q0 64 37.5 104.5t87.5 40.5q43 0 71 -27.5t28 -67.5q0 -39 -26 -64.5t-65 -25.5q-20 0 -36.5 7t-41.5 28q-3 -16 -3 -29q0 -67 71 -129t172 -62q74 0 144.5 37.5t108.5 109t38 167.5q0 144 -79 225.5t-204 81.5q-37 0 -80 -10v46q33 0 88.5 13t104 45.5t78.5 73.5
t46.5 92.5t16.5 104.5q0 128 -75.5 210t-182.5 82q-106 0 -179 -72t-73 -175q0 -117 100 -164z" />
    <glyph glyph-name="four" unicode="4" horiz-adv-x="1024" 
d="M801 519h188l-50 -147h-138v-114q0 -144 15 -284q-57 5 -124 5q-59 0 -116 -5q17 130 17 277v121h-209q-188 0 -348 -7l-12 36q78 78 305 360l255 320q103 139 148 217q28 47 51 103h33q-15 -137 -15 -330v-552zM600 519v507q-111 -159 -403 -507h403z" />
    <glyph glyph-name="five" unicode="5" horiz-adv-x="1024" 
d="M723 1183h-512v-287q110 38 209 38q133 0 246 -59t174 -166t61 -242q0 -138 -64 -251t-183.5 -175t-251.5 -62q-140 0 -217.5 62.5t-77.5 136.5q0 47 28 76.5t70 29.5q45 0 74.5 -28.5t29.5 -71.5q0 -37 -24 -61t-59 -24q-18 0 -38 8q59 -95 191 -95q149 0 244.5 99
t95.5 265q0 158 -94 253.5t-242 95.5q-110 0 -217 -54l-14 9q17 194 17 311v268q0 10 -3 125q356 -12 448 -12q108 0 135 9q18 5 34 29l23 -12q-59 -105 -83 -215z" />
    <glyph glyph-name="six" unicode="6" horiz-adv-x="1024" 
d="M695 1408l12 -28q-180 -35 -290 -182t-111 -413q29 56 57 86q42 45 99 69.5t124 24.5q103 0 198.5 -57t149 -167.5t53.5 -249.5q0 -228 -135.5 -371.5t-333.5 -143.5q-190 0 -313 143q-150 175 -150 458q0 184 61 343.5t165 265.5t230 165q72 34 184 57zM533 7
q98 0 150 75q76 111 76 385q0 175 -34.5 275.5t-85 141t-105.5 40.5q-54 0 -113 -41t-96.5 -134.5t-37.5 -255.5q0 -164 37 -280.5t93 -161t116 -44.5z" />
    <glyph glyph-name="seven" unicode="7" horiz-adv-x="1024" 
d="M120 1062h-28q16 179 17 318q171 -10 273 -10q72 0 566 10q-51 -109 -212 -497l-232 -558q-52 -128 -93 -243q-12 -36 -30 -103h-104q35 74 62 135q168 380 310 725l140 332h-510q-58 0 -84 -8.5t-44.5 -31t-30.5 -69.5z" />
    <glyph glyph-name="eight" unicode="8" horiz-adv-x="1024" 
d="M642 794q159 -105 225.5 -209.5t66.5 -220.5q0 -113 -53.5 -203t-155.5 -138.5t-225 -48.5q-182 0 -296 106.5t-114 254.5q0 109 65.5 193.5t233.5 168.5q-137 97 -192 183.5t-55 185.5q0 156 117 245.5t270 89.5q177 0 279 -120q71 -83 71 -183q0 -86 -55.5 -163.5
t-181.5 -140.5zM614 813q114 55 114 265q0 150 -60.5 221t-155.5 71q-82 0 -134.5 -53.5t-52.5 -143.5q0 -78 54 -155t235 -205zM422 673q-61 -44 -89.5 -77t-48.5 -87q-26 -71 -26 -168q0 -165 72 -249.5t179 -84.5q97 0 162.5 69t65.5 180q0 106 -61 194.5t-254 222.5z
" />
    <glyph glyph-name="nine" unicode="9" horiz-adv-x="1024" 
d="M330 -28l-12 28q97 21 170.5 68t126 123.5t78 173t25.5 230.5q-42 -91 -114.5 -135.5t-163.5 -44.5q-104 0 -200 57t-149 167.5t-53 248.5q0 228 135 371.5t329 143.5q195 0 317 -142q151 -175 151 -458q0 -184 -61 -343t-164.5 -265.5t-231.5 -166.5q-71 -34 -183 -56z
M491 1372q-98 0 -149 -75q-76 -111 -76 -384q0 -175 34 -276t85 -141.5t106 -40.5q54 0 113 41.5t96 135t37 255.5q0 166 -37.5 281.5t-93 159.5t-115.5 44z" />
    <glyph glyph-name="colon" unicode=":" horiz-adv-x="512" 
d="M147 711q0 44 31.5 75.5t75.5 31.5t75 -31.5t31 -75.5t-31 -75.5t-75 -31.5t-75.5 31.5t-31.5 75.5zM147 81q0 44 31.5 75t75.5 31t75 -31t31 -75q0 -45 -31 -76t-75 -31t-75.5 31t-31.5 76z" />
    <glyph glyph-name="semicolon" unicode=";" horiz-adv-x="512" 
d="M147 711q0 44 31 75.5t75 31.5q45 0 76 -31.5t31 -75.5t-31 -75.5t-76 -31.5q-44 0 -75 31.5t-31 75.5zM113 -411l-26 31q100 41 155.5 118t55.5 160q0 47 -21 106q-28 -29 -61 -29q-42 0 -69 27.5t-27 73.5q0 48 31.5 79t82.5 31q73 0 116 -61t43 -151
q0 -105 -68 -210.5t-212 -174.5z" />
    <glyph glyph-name="less" unicode="&#x3c;" 
d="M98 437v110l1017 409v-110l-890 -354l890 -352v-110z" />
    <glyph glyph-name="equal" unicode="=" 
d="M98 631v98h1018v-98h-1018zM98 257v98h1018v-98h-1018z" />
    <glyph glyph-name="greater" unicode="&#x3e;" 
d="M1115 437l-1017 -407v110l890 352l-890 354v110l1017 -409v-110z" />
    <glyph glyph-name="question" unicode="?" horiz-adv-x="759" 
d="M292 265h-54q7 142 7 209q0 121 -10 216l12 9q50 -28 96 -28q112 0 196.5 89.5t84.5 232.5q0 130 -76.5 212t-178.5 82q-41 0 -79 -16t-89 -56q-31 -25 -47 -32t-31 -7q-28 0 -54 29t-26 71q0 65 60 113q80 64 202 64q164 0 273.5 -112t109.5 -290q0 -81 -23 -156
q-24 -76 -64 -127t-85 -78.5t-95 -40.5q-50 -14 -98 -14q-23 0 -38 3q-2 -47 -2 -93q0 -37 9 -280zM152 81q0 44 31.5 75t75.5 31t75.5 -31t31.5 -75q0 -45 -31.5 -76t-75.5 -31t-75.5 31t-31.5 76z" />
    <glyph glyph-name="at" unicode="@" horiz-adv-x="1631" 
d="M1387 220l28 -47q-271 -194 -575 -194q-216 0 -400 94t-281 261t-97 351q0 195 106.5 380t294 296t438.5 111q213 0 365.5 -82.5t234.5 -236.5q68 -128 68 -274q0 -126 -47 -240q-47 -115 -110 -186q-63 -72 -126.5 -106t-126.5 -34q-80 0 -129 48t-52 134
q-41 -92 -105 -137t-132 -45q-98 0 -173.5 83t-75.5 217q0 115 67.5 237t178.5 193q84 55 169 55q74 0 126 -52q33 -33 47 -95l37 124h100l-103 -356q-39 -140 -45 -173q-6 -34 -6 -61q0 -50 31.5 -81t90.5 -31q65 0 130 56q89 78 142 199.5t53 246.5q0 135 -68.5 262
t-203.5 201t-321 74q-317 0 -538.5 -216.5t-221.5 -507.5q0 -174 87 -326t250 -237.5t357 -85.5q151 0 298 53q116 43 238 128zM911 1038q-100 0 -205 -152.5t-105 -318.5q0 -94 44 -144t109 -50q41 0 77 19.5t67 62.5q31 44 59 115q20 51 53 162q33 112 33 159
q0 70 -37 108.5t-95 38.5z" />
    <glyph glyph-name="A" unicode="A" horiz-adv-x="1441" 
d="M849 495h-488l-133 -324q-39 -94 -39 -116q0 -12 8 -17.5t47 -6.5l83 -3v-33q-88 5 -172 5q-72 0 -150 -5v33h33q52 0 73.5 17.5t60.5 109.5l549 1312h28l493 -1288q39 -101 48.5 -117t23.5 -23q23 -11 77 -11h36v-33q-148 5 -287 5q-77 0 -291 -5v33h123q28 0 35.5 5
t7.5 14q0 15 -19 64zM375 538h460l-223 574z" />
    <glyph glyph-name="B" unicode="B" horiz-adv-x="1289" 
d="M36 1422v33q146 -4 239 -4l357 5q169 0 275 -40t165 -121.5t59 -184.5q0 -119 -78 -209t-230 -124v-7q195 -14 296.5 -116.5t101.5 -263.5q0 -94 -33 -171t-91 -123.5t-118 -67.5q-95 -33 -266 -33l-480 5q-40 0 -195 -5v33l119 2q38 1 45 10t7 67v1220q0 69 -7 80
q-8 11 -31 11h-24zM458 785q72 -4 120 -4q94 0 143 15t81.5 45t49 87.5t16.5 136.5q0 135 -40.5 214.5t-103 111.5t-180.5 32q-38 0 -86 -6v-632zM458 28q116 -2 152 -2q83 0 129 14q62 19 109 59t77.5 115.5t30.5 178.5q0 100 -29.5 174t-75 114.5t-104.5 55t-164 14.5
q-65 0 -125 -4v-719z" />
    <glyph glyph-name="C" unicode="C" horiz-adv-x="1441" 
d="M1363 1029h-24q-22 199 -137 303t-311 104q-261 0 -393.5 -175.5t-132.5 -529.5q0 -344 118 -515q139 -202 409 -202q105 0 186.5 27.5t134 77.5t85.5 122q22 46 34 117h24q-14 -117 -14 -224q0 -36 2 -70q-115 -41 -243 -63q-128 -23 -222 -23q-208 0 -397 94.5
t-290.5 265.5t-101.5 387q0 199 88.5 356.5t251.5 261.5q201 127 435 127q118 0 339 -41q78 -14 116 -14q15 0 33 2q-2 -38 -2 -79q0 -132 12 -309z" />
    <glyph glyph-name="D" unicode="D" horiz-adv-x="1707" 
d="M33 -5v33l105 2q41 1 49 5t11 13t3 55v1242q0 56 -6 64t-28 9l-134 4v33q142 -5 215 -5l344 4l192 1q111 1 246.5 -21.5t242.5 -81.5t183 -151.5t116 -217t40 -257.5q0 -163 -51 -292.5t-138.5 -213.5t-204.5 -134t-281 -70q-164 -21 -344 -21l-251 5q-26 0 -309 -5z
M457 1417v-1338q0 -33 3 -39t14 -8q24 -5 81 -5q170 0 282 18q112 19 204.5 72.5t160.5 140.5t101.5 198.5t33.5 247.5q0 179 -55 323.5t-146 232.5t-205 122q-114 35 -286 35h-188z" />
    <glyph glyph-name="E" unicode="E" 
d="M460 1413v-591h239q52 0 59 8q7 9 7 71v118h36v-434h-36v121q0 50 -3 60t-9.5 13t-43.5 3h-249v-739q153 -3 282 -3q121 0 179 10q80 13 130 41q37 20 60.5 48t38.5 72q15 45 21 123h28l-5 -339q-392 10 -687 10q-186 0 -474 -10v33l109 3q44 1 53 10.5t9 62.5v1277
q0 23 -7.5 29.5t-41.5 7.5l-120 4v33q222 -7 351 -7q481 0 664 7v-275h-26q-10 72 -30 113t-49 65t-75 37t-162 15q-117 3 -248 3z" />
    <glyph glyph-name="F" unicode="F" horiz-adv-x="1100" 
d="M803 1019v-434h-38v145q0 38 -8.5 46.5t-50.5 8.5h-246v-690q0 -41 4 -49q7 -12 36 -13l59 -3l105 -2v-33q-177 5 -276 5q-198 0 -355 -5v33l128 3q28 0 34 8q9 11 9 53v1296q0 18 -6.5 23t-40.5 7l-124 4v33l190 -6q74 -1 200 0l662 6v-275h-21q-16 105 -59.5 154
t-116 63t-310.5 14l-93 -2q-15 0 -20 -5.5t-5 -23.5v-558h246q45 0 52 7q7 8 7 53v137h38z" />
    <glyph glyph-name="G" unicode="G" horiz-adv-x="1669" 
d="M1451 1043h-26q-13 102 -53 173q-56 97 -162.5 159t-252.5 62q-153 0 -276 -64q-95 -49 -162.5 -128t-103.5 -171q-55 -139 -55 -304q0 -187 67 -352q54 -133 133.5 -220.5t179.5 -135.5t228 -48q153 0 255 73v297q0 85 -6 95q-6 11 -34 12l-166 4v34q159 -5 346 -5
q142 0 285 5v-34l-136 -4q-21 -1 -25.5 -6t-4.5 -30v-313q-45 -7 -98 -34q-114 -55 -166 -76q-72 -28 -147 -43q-76 -16 -162 -16q-159 0 -317 54q-117 39 -204.5 98t-149.5 131.5t-99 169.5q-51 134 -51 286q0 193 74 338q57 110 158.5 201.5t229.5 146.5q173 74 376 74
q67 0 137 -8q52 -6 97 -17q3 0 157 -42l73 -20q18 -3 33 -3q8 0 21 2v-16l-1 -58q0 -108 8 -267z" />
    <glyph glyph-name="H" unicode="H" horiz-adv-x="1631" 
d="M1168 804h-711v-534q0 -206 10 -225q6 -12 31 -12q14 0 22 -1l106 -4v-33q-156 5 -259 5q-181 0 -334 -5v33l127 4q26 1 31 6q7 8 8 57q2 115 2 187v917q0 194 -7 210q-3 8 -22 9l-139 4v33q145 -4 303 -4q149 0 290 4v-33l-127 -4q-27 -1 -32 -12q-10 -21 -10 -235v-325
h711v349l-2 157l-1 36q-1 18 -6.5 23.5t-29.5 6.5l-134 4v33q146 -4 304 -4q151 0 294 4v-33l-123 -4q-30 -1 -36 -14q-10 -19 -10 -228v-913q0 -201 9 -219q5 -10 34 -11l126 -5v-33q-156 5 -256 5q-186 0 -342 -5v33l130 4q27 1 32.5 7t6.5 47q4 107 4 170v548z" />
    <glyph glyph-name="I" unicode="I" horiz-adv-x="683" 
d="M43 1422v33q145 -4 303 -4q149 0 290 4v-33l-126 -4h-16q-12 -2 -16.5 -9.5t-6.5 -72.5q-4 -133 -4 -165v-901q0 -207 9 -226q5 -11 36 -12l124 -4v-33q-156 5 -259 5q-181 0 -334 -5v33l128 4q25 1 30.5 7t6.5 61l3 182v917q0 12 -2 148q-2 59 -6 64.5t-18 6.5z" />
    <glyph glyph-name="J" unicode="J" horiz-adv-x="796" 
d="M161 1422v33q157 -4 335 -4q149 0 296 4v-33l-117 -4q-35 -1 -42 -10t-7 -68v-899q0 -144 -49 -251.5t-139 -160.5t-190 -53q-108 0 -178 64t-70 145q0 58 35 94.5t85 36.5q45 0 74 -29t29 -74q0 -53 -40 -79q-27 -18 -95 -20q6 -46 46.5 -77.5t109.5 -31.5
q80 0 126.5 46.5t46.5 126.5q0 25 -4.5 50t-21 84t-20.5 88t-4 98v859q0 42 -8 50q-9 9 -53 10z" />
    <glyph glyph-name="K" unicode="K" horiz-adv-x="1403" 
d="M38 1422v33q140 -4 298 -4q139 0 276 4v-33l-104 -4q-33 -1 -40.5 -10t-7.5 -54v-569l493 526q51 55 63 72q6 8 6 15q0 9 -7 14t-34 6l-109 4v33q102 -4 213 -4q108 0 212 4v-33l-94 -3q-42 -2 -60 -9q-38 -15 -80 -53q-43 -39 -144 -146l-281 -301l599 -794
q39 -51 69.5 -69.5t69.5 -18.5h18v-33q-152 5 -278 5q-157 0 -296 -5v33l99 3q28 0 33 3q6 4 6 12q0 20 -51 87l-447 595v-610q0 -55 9.5 -71t46.5 -17l96 -2v-33q-23 0 -177 4q-49 1 -132 1l-265 -5v33l104 3q43 1 53.5 16.5t10.5 82.5v1228q0 42 -7.5 50.5t-45.5 9.5z" />
    <glyph glyph-name="L" unicode="L" horiz-adv-x="1176" 
d="M38 1422v33q152 -4 321 -4q161 0 317 4v-33l-141 -5q-42 -1 -49 -3q-12 -3 -16.5 -11.5t-4.5 -37.5v-1318q146 -7 252 -7q139 0 205 21t105.5 58.5t57.5 88.5t22 131h26q-7 -101 -7 -206q0 -68 5 -138q-122 10 -577 10l-516 -10v33l126 3q31 0 38 6.5t7 31.5v1306
q0 28 -6.5 35t-32.5 8z" />
    <glyph glyph-name="M" unicode="M" horiz-adv-x="1783" 
d="M469 1455l425 -1076l329 856q26 67 34.5 103.5t8.5 69.5q0 21 -5 47q104 -5 169 -5q149 0 272 5v-33l-104 -4q-41 -1 -50 -12t-9 -70q0 -19 4 -87l64 -1121q4 -68 13 -82t49 -15l106 -3v-33q-150 5 -248 5q-184 0 -339 -5v33l123 3q22 0 30 12t8 77q0 24 -3 70l-61 1088
l-384 -994q-69 -176 -100 -289h-28l-449 1143q-6 14 -56 130l-62 -1093q-3 -51 -3 -68q0 -48 12.5 -61.5t51.5 -14.5l98 -3v-33q-97 5 -186 5q-87 0 -179 -5v33l95 3q34 1 43 18q21 37 33 240l59 1055q-23 46 -44 61q-16 11 -59 13l-101 4v33q112 -4 244 -4q99 0 199 4z" />
    <glyph glyph-name="N" unicode="N" horiz-adv-x="1593" 
d="M1332 -21l-1078 1310l2 -1083q0 -138 12 -156q13 -18 66 -19l114 -3v-33q-111 5 -218 5q-91 0 -192 -5v33l102 3q36 1 49 10.5t18 35.5q6 36 6 148v1107q-43 53 -78.5 71t-94.5 19v33q112 -4 243 -4q97 0 194 4q8 -30 19 -50q12 -20 37 -52l821 -1000v868q0 103 -7 146
q-5 33 -16 41.5t-47 9.5l-118 4v33q99 -4 209 -4q96 0 190 4v-33l-123 -4q-30 -1 -37 -13q-9 -17 -9 -170l-2 -1256h-62z" />
    <glyph glyph-name="O" unicode="O" horiz-adv-x="1707" 
d="M845 1472q147 0 285.5 -52t243 -151.5t162.5 -218.5q72 -150 72 -331q0 -179 -70 -332q-57 -123 -150.5 -211.5t-195.5 -132.5q-149 -64 -347 -64q-169 0 -308.5 46.5t-240 142t-154.5 230.5t-54 307q0 198 73 347q54 107 146.5 198.5t201.5 144.5q157 77 336 77zM850 12
q102 0 187.5 47.5t144.5 124.5q79 102 115 241.5t36 312.5q0 141 -27 265.5t-91.5 223t-163 155.5t-212.5 57q-108 0 -195 -48.5t-152.5 -136t-98 -228.5t-32.5 -308q0 -154 29 -285t98.5 -227t167.5 -145t194 -49z" />
    <glyph glyph-name="P" unicode="P" 
d="M35 1422v33q153 -4 276 -4l317 2l109 2q130 3 238.5 -43t164 -139.5t55.5 -214.5q0 -127 -64.5 -223t-188.5 -140t-393 -44q-29 0 -89 1v-561q0 -40 10 -49.5t56 -10.5l142 -3v-33q-172 5 -327 5q-151 0 -308 -5v33l108 2q41 1 52 13t11 64v1239q0 49 -9 60t-39 12z
M460 1413v-685q0 -31 8 -38q12 -9 70 -9q93 0 185.5 38t147 124.5t54.5 210.5q0 120 -42.5 206t-110.5 122t-201 36q-50 0 -111 -5z" />
    <glyph glyph-name="Q" unicode="Q" horiz-adv-x="1707" 
d="M1565 -284l29 -5q-20 -52 -53 -86q-48 -48 -127 -77t-196 -29q-133 0 -228 35.5t-151 92.5t-83.5 130.5t-37.5 209.5q-161 20 -271 78.5t-181 140.5t-109 173q-62 148 -62 326q0 197 73 346q55 111 151.5 204t210.5 147q150 70 325 70q174 0 315 -65t235 -162t145 -210
q65 -144 65 -316q0 -190 -83.5 -358.5t-248.5 -272.5q-128 -81 -307 -102q-3 -65 -3 -78q0 -156 69 -237q90 -105 255 -105q106 0 173.5 41.5t94.5 108.5zM857 12q102 0 187.5 48t145.5 125q78 102 114 241.5t36 311.5q0 140 -27 265t-91.5 223.5t-163.5 155.5t-212 57
q-108 0 -195 -48.5t-152.5 -136t-98 -228.5t-32.5 -308q0 -154 29 -285t98.5 -227t167.5 -145t194 -49z" />
    <glyph glyph-name="R" unicode="R" horiz-adv-x="1289" 
d="M33 1422v33l249 -4l361 4q162 0 273 -38.5t168.5 -122t57.5 -192.5q0 -131 -86 -211q-114 -106 -298 -121v-9q70 0 142.5 -27t112 -75t55.5 -137q11 -63 25 -284q6 -88 13 -115q9 -41 36 -65.5t64 -24.5q38 0 71 21v-30q-73 -43 -164 -43q-72 0 -127.5 26.5t-96.5 77.5
q-31 40 -46 101q-8 36 -16 129q-19 213 -47 286q-28 74 -87 110t-171 36q-38 0 -72 -5v-607q0 -60 2 -71q5 -18 16 -25.5t39 -8.5l114 -2v-33q-153 5 -254 5q-184 0 -339 -5v33l123 3q26 0 35.5 8t11.5 27q3 20 3 102v1181q0 49 -7.5 58.5t-34.5 10.5zM450 782q64 -3 95 -3
q113 0 179.5 28t109.5 95t43 175q0 83 -24.5 154.5t-68 113.5t-102.5 59q-60 18 -151 18q-60 0 -70.5 -10.5t-10.5 -67.5v-562z" />
    <glyph glyph-name="S" unicode="S" horiz-adv-x="1100" 
d="M92 401h28q13 -188 119 -291t273 -103q149 0 229.5 71.5t80.5 182.5q0 65 -26 116t-79 97q-42 35 -157 104q-181 109 -257 166q-76 58 -115 110t-58 107.5t-19 120.5q0 95 40 168.5t102.5 121t144.5 74.5q83 28 182 28q31 0 60 -2q19 -2 120 -20q74 -13 90 -15
q26 -3 53 -3q26 0 57 5v-308h-27q-25 160 -114 236.5t-237 76.5q-136 0 -212.5 -69t-76.5 -169q0 -69 34 -128t102 -111q44 -33 181 -112q138 -79 184 -112q79 -56 122.5 -111t66 -119t22.5 -131q0 -170 -131 -289t-352 -119q-87 0 -198 30q-112 30 -147.5 35.5t-75.5 5.5
q1 187 -9 356z" />
    <glyph glyph-name="T" unicode="T" horiz-adv-x="1327" 
d="M43 1180h-26q7 142 7 275q331 -16 638 -16q347 0 640 16q2 -97 2 -275h-26q-7 88 -42.5 137t-95.5 67q-60 19 -191 19h-157v-1316q0 -32 4.5 -40t15.5 -12t55 -5l134 -2v-33q-200 5 -315 5q-61 0 -361 -5v33l159 3q28 0 34 3q7 4 10 13t3 45v1311h-96q-172 0 -233 -14
q-61 -15 -102.5 -64.5t-56.5 -144.5z" />
    <glyph glyph-name="U" unicode="U" horiz-adv-x="1441" 
d="M597 1455v-33l-115 -4q-32 -1 -41 -10t-11 -43l-4 -161v-472q0 -313 32 -444q32 -132 109.5 -195t216.5 -63q108 0 191 37t132.5 98t79.5 152q23 67 34 210q11 144 11 307v332q0 214 -11 236q-7 14 -47 16l-110 4v33q91 -4 192 -4q90 0 178 4v-33l-101 -4q-31 -1 -38 -14
q-13 -27 -13 -247l-2 -259q-3 -326 -23 -473q-15 -116 -56 -195q-41 -80 -100 -134.5t-147 -86.5q-89 -33 -211 -33q-145 0 -255.5 43t-171 107t-94.5 152t-44 244q-6 86 -11 386q-8 458 -21 487q-10 21 -56 22l-88 5v33q142 -4 333 -4q115 0 262 4z" />
    <glyph glyph-name="V" unicode="V" horiz-adv-x="1327" 
d="M5 1422v33q141 -4 296 -4q147 0 289 4v-33l-132 -5q-20 0 -27 -7t-7 -22q0 -10 3 -21q15 -63 49 -164l41 -124l256 -709l384 977q10 25 10 37q0 16 -11 24t-51 9l-112 5v33q83 -4 171 -4q81 0 154 4v-33q-53 -7 -69 -19q-17 -12 -35 -52q-19 -40 -310 -752
q-167 -410 -245 -620h-33q-41 170 -102 332l-228 631l-164 446q-9 15 -20 21.5t-52 9.5z" />
    <glyph glyph-name="W" unicode="W" horiz-adv-x="1972" 
d="M564 1455v-38l-126 -4q-23 -1 -29 -6q-8 -7 -8 -20q0 -4 4 -22q9 -45 33 -133l29 -113l216 -745l336 840q62 152 88 241h22q21 -82 65 -218l67 -194l230 -669l320 972q7 22 7 35q0 19 -8.5 27.5t-35.5 9.5l-124 4v33q78 -4 168 -4q73 0 145 4v-33q-42 -3 -58 -12
q-11 -6 -18 -16q-16 -23 -108 -293l-248 -731l-130 -391h-35l-370 1069l-429 -1069h-31l-372 1288q-32 112 -41 125q-23 30 -69 30h-49v33q138 -4 292 -4q135 0 267 4z" />
    <glyph glyph-name="X" unicode="X" horiz-adv-x="1441" 
d="M579 1455v-33l-99 -4q-31 -1 -37.5 -6t-6.5 -14q0 -10 13 -31q40 -68 85 -132l248 -353l293 441q35 52 35 73q0 11 -6.5 16t-27.5 6l-109 4v33q94 -4 192 -4q89 0 176 4v-33q-98 -3 -123 -11q-19 -5 -35 -21t-68 -94l-303 -450l498 -711q45 -64 60.5 -80t31.5 -23
q10 -4 36 -4v-33q-149 5 -245 5q-172 0 -314 -5v33l118 3q43 1 49 4t6 10q0 14 -21 44q-9 13 -16 25q-8 13 -17 27l-359 508l-292 -441q-57 -86 -76 -122q-11 -22 -11 -33q0 -10 7 -16t28 -6l105 -3v-33q-97 5 -183 5q-97 0 -197 -5v33q93 5 122 13q29 9 51 29t63 81
l357 534l-446 645q-41 59 -71 75.5t-85 16.5v33q146 -7 308 -7q131 0 266 7z" />
    <glyph glyph-name="Y" unicode="Y" horiz-adv-x="1327" 
d="M5 1422v33q136 -4 291 -4q132 0 264 4v-33l-88 -4q-35 -2 -42.5 -7.5t-7.5 -16.5q0 -12 11 -32q19 -37 79 -120l289 -405l261 388q100 149 100 171q0 10 -7 14q-10 6 -56 8l-82 4v33q71 -4 179 -4q54 0 122 4v-33q-48 -2 -65.5 -11.5t-37.5 -36.5l-120 -175l-272 -395
v-676q0 -73 9 -85t44 -13l155 -2v-33q-177 5 -292 5q-208 0 -383 -5v33l139 2l22 1q29 0 37 9q9 10 9 42l1 63v587l-445 630q-27 38 -49 49.5t-65 10.5z" />
    <glyph glyph-name="Z" unicode="Z" 
d="M1119 320h28q-16 -160 -16 -325q-86 7 -193.5 10.5t-387.5 3.5q-277 0 -507 -14l-12 22l162 262q125 214 299 529l224 413q45 88 90 187q-115 5 -186 5q-234 0 -311 -14t-120 -51q-33 -28 -50 -75q-12 -34 -16 -97h-28q5 100 5 163q0 72 -3 116q338 -9 572 -9
q272 0 459 9l10 -14q-33 -49 -68 -108q-25 -42 -169 -300l-369 -671l-157 -312q110 -8 186 -8q256 0 327 9q71 10 119 42.5t72 78.5t40 148z" />
    <glyph glyph-name="bracketleft" unicode="[" horiz-adv-x="569" 
d="M303 -427h214v-45h-344v1927h344v-45h-214v-1837z" />
    <glyph glyph-name="backslash" unicode="\" horiz-adv-x="759" 
d="M203 1481l44 -138q3 -9 6 -17l190 -545q88 -260 291 -807h-173l-93 286q-15 46 -92 263l-194 553q-35 96 -154 405h175z" />
    <glyph glyph-name="bracketright" unicode="]" horiz-adv-x="569" 
d="M57 1455h344v-1927h-344v45h213v1837h-213v45z" />
    <glyph glyph-name="asciicircum" unicode="^" 
d="M209 523l343 849h109l343 -849h-118l-281 721l-279 -721h-117z" />
    <glyph glyph-name="underscore" unicode="_" horiz-adv-x="1024" 
d="M0 -256v102h1024v-102h-1024z" />
    <glyph glyph-name="grave" unicode="`" horiz-adv-x="569" 
d="M368 924h-31q-102 128 -159.5 194.5t-66.5 78.5q-13 17 -18 31t-5 27q0 20 17.5 36t42.5 16q22 0 43.5 -17t54.5 -85q21 -45 122 -281z" />
    <glyph glyph-name="a" unicode="a" horiz-adv-x="948" 
d="M944 71v-38q-81 -50 -177 -50q-50 0 -88 16t-81 55q-81 -71 -216 -71q-92 0 -165.5 30t-107 83t-33.5 120q0 105 84.5 174.5t264.5 69.5q50 0 86 -6q27 -5 72 -20v142q0 120 -31 167q-43 65 -135 65q-47 0 -89.5 -19.5t-61 -47t-29.5 -86.5q-7 -38 -22.5 -52.5
t-38.5 -14.5q-24 0 -39.5 15.5t-15.5 39.5q0 62 74 116q106 78 264 78q111 0 188 -32.5t102.5 -76.5t25.5 -128v-474q0 -54 18.5 -76t49.5 -22q22 0 50 11.5t51 31.5zM583 85v172q0 107 -3 119q-5 22 -23 33q-31 18 -80 18q-87 0 -141 -53t-54 -143q0 -97 50 -150t129 -53
q36 0 63 12.5t59 44.5z" />
    <glyph glyph-name="b" unicode="b" horiz-adv-x="1062" 
d="M31 1425v30q83 -4 173 -4q83 0 156 4l-7 -419l-2 -261q49 31 98 45t117 14q186 0 298.5 -116t112.5 -311q0 -126 -49.5 -219t-148.5 -146.5t-227 -53.5q-81 0 -141 22t-115 68q-38 -35 -101 -59t-140 -24h-55v31h31q46 0 66.5 15.5t33.5 53.5q13 39 18 160q5 122 5 214
l-4 623q-2 270 -5 299q-2 15 -9 21q-14 13 -58 13h-47zM351 728v-384q0 -121 -8 -168t-24 -73q45 -40 85 -57q41 -18 89 -18q74 0 136.5 40t97 126t34.5 217q0 188 -79 284.5t-178 96.5q-74 0 -153 -64z" />
    <glyph glyph-name="c" unicode="c" horiz-adv-x="910" 
d="M858 230h10v-102q-77 -75 -157.5 -112t-179.5 -37q-95 0 -200.5 42.5t-176.5 137.5t-71 234q0 217 175 348q132 98 296 98q119 0 218.5 -55.5t99.5 -125.5q0 -28 -14.5 -44.5t-38.5 -16.5q-26 0 -44 15t-41 65q-31 66 -66 92q-54 42 -121 42q-118 0 -186.5 -105
t-68.5 -282q0 -130 38 -225.5t103.5 -137.5t141.5 -42q60 0 122 27t99 70.5t62 113.5z" />
    <glyph glyph-name="d" unicode="d" horiz-adv-x="1062" 
d="M574 1425v30q76 -4 169 -4q95 0 182 4q-3 -38 -5 -60q-1 -36 -4 -174q-5 -281 -5 -381l2 -511q0 -189 9 -229q10 -41 30.5 -58.5t50.5 -17.5q26 0 55 14v-29q-50 -31 -121 -31q-60 0 -114 21.5t-90 66.5q-60 -44 -122 -64.5t-142 -20.5q-180 0 -284 109t-104 307
q0 201 126 322.5t345 121.5q50 0 90 -7q29 -5 70 -21v311q0 41 -4 167q-2 88 -9 107q-5 13 -14 19q-14 8 -59 8h-52zM712 770q-63 38 -134 38q-112 0 -200.5 -103.5t-88.5 -277.5q0 -181 99 -299q78 -93 190 -93q51 0 83 16.5t41.5 39.5t9.5 87v592z" />
    <glyph glyph-name="e" unicode="e" horiz-adv-x="948" 
d="M889 500h-589q-4 -54 -4 -80q0 -220 75 -312t196 -92q96 0 178 60t123 166h9v-97q-111 -100 -185.5 -132t-178.5 -32q-197 0 -313.5 115.5t-116.5 306.5q0 132 59 230t166 152t221 54q93 0 166 -33t114.5 -78t58.5 -95t21 -133zM304 536h203q154 0 174 10q12 7 12 32
q0 60 -18.5 115.5t-63.5 86.5t-101 31q-60 0 -107.5 -34.5t-69 -89.5t-29.5 -151z" />
    <glyph glyph-name="f" unicode="f" horiz-adv-x="607" 
d="M358 811h244l-26 -60h-218v-602q0 -72 3 -84q5 -21 19 -30t58 -9h69v-31q-129 5 -264 5q-82 0 -210 -5v31h55q48 0 58 11.5t10 78.5v635h-95l27 60h71q2 188 25 289.5t83.5 180.5t150.5 130t203 51q91 0 143 -40q39 -30 39 -73q0 -29 -18.5 -48t-46.5 -19q-24 0 -42 15.5
t-37.5 58t-34.5 53.5q-25 18 -60 18q-55 0 -104.5 -33t-71 -86.5t-27.5 -182.5q-3 -64 -3 -314z" />
    <glyph glyph-name="g" unicode="g" horiz-adv-x="948" 
d="M268 228q-92 39 -141 111.5t-49 169.5q0 165 136 259q107 73 248 73q71 0 132.5 -18t102.5 -50q50 44 78.5 57.5t55.5 13.5q41 0 67 -23.5t26 -54.5q0 -29 -17.5 -46.5t-46.5 -17.5q-46 0 -72 48q-15 28 -26 28q-15 0 -44 -22q102 -92 102 -234q0 -86 -27.5 -145
t-72.5 -98.5t-101 -60.5q-79 -31 -168 -31q-72 0 -141 22q-61 -14 -88 -41q-21 -19 -21 -43q0 -37 42 -50q31 -10 234 -12q164 -2 217.5 -9t87.5 -33t56 -75.5t22 -112.5q0 -125 -103 -205q-147 -114 -387 -114q-169 0 -234 48.5t-65 123.5q0 58 36 101.5t161 93.5
q-88 11 -134 53q-32 30 -32 83q0 58 35 105.5t131 105.5zM448 213q75 0 115 55q53 74 53 253q0 176 -49 245q-36 50 -108 50q-77 0 -118 -58q-60 -83 -60 -270q0 -154 53 -224q39 -51 114 -51zM308 -119q-29 -24 -51 -68t-22 -87q0 -77 53 -127t146 -50q80 0 168 31
q56 20 104 51q49 31 73 70.5t24 83.5q0 38 -20 61t-61 33q-29 7 -100 7l-275 -7q-9 0 -39 2z" />
    <glyph glyph-name="h" unicode="h" horiz-adv-x="1062" 
d="M52 1425v30q79 -4 168 -4q76 0 152 4q-7 -67 -9 -139q-5 -166 -5 -593q64 65 125 91.5t146 26.5q104 0 169.5 -40.5t93.5 -103.5t28 -162l-5 -446q0 -42 10.5 -52.5t50.5 -10.5h48v-31q-115 5 -235 5q-90 0 -201 -5v31h73q36 0 46 18t10 204q0 273 -16 358t-64 123.5
t-113 38.5q-48 0 -92 -25t-72 -67l-2 -460q-1 -155 9 -172q11 -18 48 -18h47v-31q-113 5 -232 5q-87 0 -197 -5v31h64q44 0 52 15q13 26 13 255l-3 847q-1 174 -3 223q-2 36 -14.5 47.5t-50.5 11.5h-39z" />
    <glyph glyph-name="i" unicode="i" horiz-adv-x="493" 
d="M154 1157q0 40 28.5 68.5t69.5 28.5q40 0 68.5 -28.5t28.5 -68.5q0 -41 -28.5 -69t-68.5 -28q-41 0 -69.5 28t-28.5 69zM38 794v31q80 -15 140 -15q98 0 185 27q-14 -214 -14 -426q0 -248 6 -331q2 -35 13.5 -44.5t51.5 -9.5h54v-31q-116 5 -209 5q-124 0 -241 -5v31h62
q44 0 52.5 11t8.5 74v553q0 81 -11 106q-5 12 -18 16q-9 3 -80 8z" />
    <glyph glyph-name="j" unicode="j" horiz-adv-x="493" 
d="M154 1157q0 40 28.5 68.5t68.5 28.5t68.5 -28.5t28.5 -68.5q0 -41 -28.5 -69t-68.5 -28t-68.5 28t-28.5 69zM59 794v31q85 -15 141 -15q99 0 186 27q-12 -105 -16 -186t-4 -226l4 -295q0 -112 -25 -204t-81.5 -170t-132.5 -131q-52 -35 -136 -68v33q70 36 102 71
q33 35 45 82q26 99 26 290v583q0 146 -9 162q-6 11 -30 11z" />
    <glyph glyph-name="k" unicode="k" horiz-adv-x="1024" 
d="M43 1425v30q78 -4 165 -4q77 0 153 4q-3 -45 -9 -229l-6 -757l276 267q28 26 28 38q0 8 -9 14q-10 6 -43 6h-53v31q2 0 37 -2q54 -3 107 -3q76 0 162 5v-31h-33q-52 0 -78 -9q-20 -6 -39 -21q-11 -9 -51 -48l-140 -138l377 -467q49 -61 69 -73t54 -12h38v-31l-107 4
q-39 1 -123 1q-103 0 -242 -5v31h52q33 0 44 6q6 4 6 11q0 12 -48 72l-262 323l-22 -11v-320q0 -58 10.5 -69.5t53.5 -11.5h45v-31q-110 5 -206 5q-112 0 -225 -5v31h59q45 0 56 18q12 18 12 152l1 234l-5 808q-1 155 -9 168q-11 19 -60 19h-35z" />
    <glyph glyph-name="l" unicode="l" horiz-adv-x="493" 
d="M43 1425v30q78 -4 164 -4q83 0 156 4q-14 -268 -14 -805l2 -352v-112q-1 -113 3 -137q3 -13 11 -18q9 -5 55 -5h38v-31q-112 5 -199 5q-115 0 -235 -5v31h59q37 0 50 10q8 7 11 22q6 24 6 180l2 288l-5 627q-1 214 -5 241q-3 15 -10 22q-11 9 -51 9h-38z" />
    <glyph glyph-name="m" unicode="m" horiz-adv-x="1517" 
d="M47 794v31q62 -15 143 -15q107 0 165 27l12 -10q-9 -21 -11.5 -37.5t-3.5 -64.5q79 65 134 88q56 24 126 24q81 0 141 -31t100 -93q66 67 126 95q61 29 141 29q131 0 203 -76q53 -57 53 -162l-4 -114q-2 -73 -2 -138v-260q0 -42 9.5 -51.5t49.5 -9.5h52v-31
q-109 5 -196 5q-119 0 -230 -5v31h49q46 0 54 8q8 9 9 54l4 117q2 57 2 140q0 189 -8 284q-5 59 -25 94q-13 23 -43.5 42.5t-68.5 19.5q-40 0 -88 -32t-82 -82l5 -553q0 -72 8 -82t46 -10h43v-31q-117 5 -197 5q-99 0 -218 -5v31h47q49 0 58 4.5t12 15.5t3 79l-1 425
q-1 97 -15 140t-51 70t-75 27q-36 0 -77 -25.5t-94 -89.5l3 -564q1 -62 9.5 -72t47.5 -10h45v-31q-109 5 -229 5q-84 0 -195 -5v31h47q46 0 57 8q12 8 15 32q6 35 6 142l1 240q0 73 -3 176l-6 145q-1 9 -6 14q-6 6 -23 6q-31 2 -74 5z" />
    <glyph glyph-name="n" unicode="n" horiz-adv-x="1062" 
d="M47 794v31q62 -15 135 -15q48 0 98 8.5t78 18.5l9 -7q-13 -38 -12 -102q67 57 132 83q66 26 149 26q96 0 164.5 -33.5t96.5 -83.5t28 -134l-6 -253l1 -64v-196q0 -29 9.5 -38t49.5 -9h47v-31q-110 5 -200 5q-118 0 -229 -5v31h45q52 0 65 15.5t13 93.5v322q0 135 -12 196
t-53 96.5t-105 35.5q-48 0 -95 -25.5t-100 -86.5v-594q0 -32 11 -42.5t49 -10.5h47v-31q-114 5 -170 5q-147 0 -259 -5v31h55q53 0 63 19q12 24 12 341q0 143 -4 306q-2 67 -6 75.5t-12 13.5q-16 9 -94 13z" />
    <glyph glyph-name="o" unicode="o" horiz-adv-x="1062" 
d="M536 837q93 0 197 -39.5t174 -138t70 -248.5q0 -136 -58.5 -229t-171.5 -148t-229 -55q-158 0 -279 95q-156 124 -156 332q0 124 60 226t165.5 153.5t227.5 51.5zM538 7q110 0 170 107t60 291q0 138 -35 235.5t-90 135t-114 37.5q-63 0 -119.5 -40t-86 -115t-29.5 -222
q0 -92 14 -178t44.5 -139t78.5 -82.5t107 -29.5z" />
    <glyph glyph-name="p" unicode="p" horiz-adv-x="1062" 
d="M47 794v31q64 -15 129 -15q98 0 179 27l10 -7q-12 -23 -12 -72q110 79 235 79q100 0 195 -52.5t146.5 -150t51.5 -218.5q0 -165 -93 -283q-116 -148 -319 -148q-62 0 -109 13q-48 14 -112 49l2 -388q1 -63 4 -74q4 -12 15 -18q12 -6 52 -6h53v-30q-118 4 -220 4
q-113 0 -226 -4v30h47q54 0 64 10q12 12 12 59v1055q0 68 -4 80q-5 13 -18 19q-14 6 -82 10zM350 90q71 -64 154 -64q71 0 133 38t97.5 122t35.5 197t-39 211t-100.5 142t-127.5 44q-36 0 -70 -12q-35 -13 -83 -45v-633z" />
    <glyph glyph-name="q" unicode="q" horiz-adv-x="1062" 
d="M714 789l-2 48q88 -26 184 -26q55 0 138 14v-31q-106 -4 -117 -13t-11 -75v-1062q0 -63 9 -73t62 -10h38v-30q-114 4 -190 4q-130 0 -241 -4v30h49q51 0 62 10q12 11 12 52v21l2 382q-63 -43 -180 -43q-166 0 -290 91q-158 115 -158 331q0 227 168 345q122 87 280 87
q54 0 104 -14q50 -15 81 -34zM712 59v633q0 53 -30 77q-46 37 -127 37q-116 0 -189.5 -89t-73.5 -284q0 -222 101 -333q71 -79 180 -79q65 0 139 38z" />
    <glyph glyph-name="r" unicode="r" horiz-adv-x="721" 
d="M47 794v31q74 -14 141 -14q100 0 170 26l9 -7q-12 -41 -12 -102v-29q35 62 93 98.5t115 36.5q60 0 95.5 -31t35.5 -75t-28.5 -73.5t-71.5 -29.5t-72 29.5t-29 71.5q0 34 26 70q-56 -15 -96.5 -57t-53.5 -95q-14 -53 -14 -149v-346q0 -91 13.5 -107t72.5 -16h66v-31
q-125 5 -250 5q-103 0 -224 -5v31h55q49 0 57 8q9 8 11 64q3 56 3 385q0 171 -5 273q-1 21 -8 26q-10 7 -99 12z" />
    <glyph glyph-name="s" unicode="s" horiz-adv-x="721" 
d="M66 270h24q11 -123 80.5 -190.5t174.5 -67.5q93 0 138 38.5t45 101.5q0 51 -24 86.5t-74 61.5q-34 17 -130 47q-96 31 -127 49q-51 29 -78 72.5t-27 110.5q0 112 74 185t191 73q47 0 129 -11q83 -11 111 -11q16 0 43 3q-2 -33 -2 -59q0 -57 4 -166h-26q-19 93 -59 137
q-74 81 -194 81q-81 0 -127 -40t-46 -89q0 -30 18.5 -58.5t49.5 -44t146 -50t163.5 -67t76 -92t27.5 -132.5q0 -119 -75 -188t-222 -69q-85 0 -178 23q-49 12 -101 20q2 64 2 89q0 81 -7 157z" />
    <glyph glyph-name="t" unicode="t" horiz-adv-x="607" 
d="M151 751h-104v26q114 40 186.5 115.5t112.5 207.5h26q-12 -88 -19 -289h90q75 0 140 11l-38 -75q-51 4 -83 4h-109v-471q0 -108 5 -143q8 -48 28 -69t55 -21q32 0 60 17.5t67 70.5l24 -19q-60 -76 -113 -104q-53 -29 -130 -29q-71 0 -113.5 23t-65.5 66.5t-23 114.5
l4 273v291z" />
    <glyph glyph-name="u" unicode="u" horiz-adv-x="1062" 
d="M19 794v31q84 -5 182 -5q79 0 155 5q-10 -132 -10 -183v-182q0 -166 15 -244q16 -78 58 -115t94 -37q47 0 102.5 35.5t105.5 106.5q4 114 4 360q0 204 -6 216q-7 12 -58 12h-64v31q83 -5 219 -5q35 0 116 5q-5 -47 -8 -156q-5 -201 -5 -323q0 -29 4 -190q1 -76 3 -86
q3 -10 8 -14q10 -8 33 -10l62 -6v-31q-80 8 -133 8q-97 0 -194 -29l-5 26q19 8 23.5 19.5t4.5 61.5v71q-127 -180 -312 -180q-82 0 -141 36.5t-91 95.5q-24 46 -30 104q-4 40 -4 197q0 224 -10 318q-4 37 -14 47t-49 10h-55z" />
    <glyph glyph-name="v" unicode="v" horiz-adv-x="872" 
d="M0 794v31q121 -5 218 -5q106 0 204 5v-31h-55q-37 0 -44.5 -5t-7.5 -15q0 -20 27 -85l187 -440l158 378q23 55 38 105q8 27 8 39t-8 17q-11 6 -66 6h-43v31q82 -5 146 -5q29 0 103 5v-31h-31q-27 0 -37 -7t-30 -55l-57 -133l-163 -394q-42 -102 -85 -222h-35
q-18 49 -150 354l-116 264q-73 164 -81 176q-6 8 -12 11q-12 6 -32 6h-36z" />
    <glyph glyph-name="w" unicode="w" horiz-adv-x="1176" 
d="M0 799v31q100 -5 147 -5q163 0 265 5v-31h-45q-49 0 -64 -9q-9 -6 -9 -17q0 -6 1 -13q2 -11 13 -52l41 -139q36 -115 94 -285l131 320l55 137q13 36 28 89h28q29 -87 64 -183l135 -365l135 403q22 65 22 92q0 13 -8 17q-8 5 -60 5h-51v31q65 -5 134 -5q57 0 110 5v-31
h-28q-30 0 -42 -13q-20 -20 -48 -106l-228 -692h-33l-45 137l-74 197l-87 223l-228 -557h-28q-23 101 -64 232l-122 384q-53 165 -61 179q-3 6 -10 9q-11 7 -28 7h-40z" />
    <glyph glyph-name="x" unicode="x" horiz-adv-x="948" 
d="M24 794v31q103 -5 198 -5q123 0 224 5v-31h-31q-29 0 -38 -6t-9 -16q0 -11 6 -25q6 -15 36 -60l119 -175l148 216q25 36 25 45t-10 15q-11 6 -71 6v31q79 -5 135 -5t131 5v-31h-48q-46 0 -65 -9q-19 -10 -46 -48l-183 -251l226 -339q60 -90 79.5 -105.5t50.5 -15.5h38
v-31q-95 5 -223 5q-91 0 -204 -5v31h36q31 0 37 3.5t6 10.5q0 19 -53 97l-139 211l-164 -232q-29 -42 -35 -53q-6 -12 -6 -19q0 -8 7.5 -13t38.5 -5h31v-31q-63 5 -121 5q-63 0 -126 -5v31h28q52 0 74 13q23 14 66 75l190 265l-228 337q-36 53 -54 65.5t-48 12.5h-28z" />
    <glyph glyph-name="y" unicode="y" horiz-adv-x="872" 
d="M415 2l-287 669q-40 94 -51 110q-7 10 -18.5 14t-53.5 4v31q93 -5 202 -5q95 0 192 5v-31h-36q-38 0 -49 -7q-8 -5 -8 -15q0 -20 38 -109l183 -426l151 341q76 171 76 193q0 11 -9 17t-45 6h-38v31q53 -5 119 -5q45 0 87 5v-31h-19q-13 0 -22 -4.5t-15 -12.5
q-13 -15 -49 -96q-25 -55 -59 -126q-34 -72 -110 -255q-153 -364 -221 -501t-107 -187t-81 -73t-81 -23q-44 0 -75 28.5t-31 62.5q0 32 24 56t56 24q30 0 49.5 -20.5t19.5 -53.5q0 -23 -19 -46q-7 -8 -7 -12q0 -2 1 -3t4 -1q39 0 88 52q78 84 201 394z" />
    <glyph glyph-name="z" unicode="z" horiz-adv-x="796" 
d="M90 588h-28q8 88 12 237q174 -5 353 -5q260 0 351 5l-479 -789q67 -4 113 -4q106 0 163 21q58 21 99.5 79.5t51.5 161.5h26q-8 -135 -12 -299h-690l-7 26q59 75 105 144q73 109 219 353q100 167 148 262q-75 3 -126 3q-100 0 -154.5 -17.5t-91.5 -62t-53 -115.5z" />
    <glyph glyph-name="braceleft" unicode="{" horiz-adv-x="834" 
d="M745 -413v-59q-99 2 -165 24q-87 29 -139 84.5t-70 125.5q-19 70 -19 247v150q0 112 -21 164q-21 53 -70.5 87.5t-170.5 64.5v16q113 27 165 61t74 88q23 55 23 167v168q0 169 10 216q15 83 64 141t125.5 89.5t193.5 33.5v-58q-86 -4 -139 -25t-86.5 -64t-47.5 -96
t-14 -171v-177q0 -117 -11 -177t-43.5 -102t-83.5 -69q-38 -20 -104 -33q82 -22 111 -37q45 -24 75.5 -64t42.5 -97q13 -57 13 -184v-158q0 -92 4 -123q9 -65 33 -109t60 -71.5t77 -39t113 -13.5z" />
    <glyph glyph-name="bar" unicode="|" horiz-adv-x="455" 
d="M173 -439v2048h110v-2048h-110z" />
    <glyph glyph-name="braceright" unicode="}" horiz-adv-x="834" 
d="M90 1397v58q99 -1 165 -23q87 -30 139 -85.5t70 -125.5q19 -70 19 -246v-150q0 -112 21 -164q21 -53 70.5 -87.5t170.5 -64.5v-16q-113 -27 -165 -61t-74 -89q-23 -55 -23 -166v-168q0 -169 -10 -217q-15 -82 -64 -140t-125.5 -90t-193.5 -34v59q86 4 139 25t86.5 63.5
t47.5 95.5t14 172v177q0 117 11 177t43 102t84 69q38 20 104 33q-82 21 -111 37q-45 24 -75.5 64t-42.5 97q-13 57 -13 183v159q0 92 -5 123q-8 65 -32 109t-60 71.5t-77 38.5q-41 12 -113 14z" />
    <glyph glyph-name="asciitilde" unicode="~" 
d="M1142 634q-14 -130 -81.5 -197t-159.5 -67q-45 0 -100 13q-75 18 -290 92q-96 33 -128 40q-33 7 -62 7q-62 0 -110 -45t-60 -125h-78q15 94 43 148t82 87t119 33q46 0 88 -10t280 -89q121 -39 152 -46t60 -7q68 0 117 50q37 38 53 116h75z" />
    <glyph glyph-name="nonbreakingspace" unicode="&#xa0;" horiz-adv-x="1024" 
 />
    <glyph glyph-name="exclamdown" unicode="&#xa1;" horiz-adv-x="512" 
d="M363 884q0 -44 -31.5 -75.5t-75.5 -31.5t-75.5 31.5t-31.5 75.5t31.5 75.5t75.5 31.5t75.5 -31.5t31.5 -75.5zM232 694h52q3 -84 7 -136q6 -87 20 -229l48 -462q16 -167 16 -216q0 -68 -33 -103.5t-83 -35.5q-51 0 -84 36t-33 107q0 95 43 464l31 278q9 82 12 145
q4 64 4 152z" />
    <glyph glyph-name="cent" unicode="&#xa2;" horiz-adv-x="1024" 
d="M707 829l83 223h47l-87 -234q98 -33 146 -85q33 -35 33 -74q0 -31 -14.5 -46.5t-41.5 -15.5q-25 0 -43 16.5t-53 88.5q-18 38 -46 63l-255 -693q72 -53 155 -53q60 0 122.5 27t99.5 70t62 114h10v-102q-77 -75 -157.5 -112t-179.5 -37q-68 0 -139 20l-86 -234h-48l92 249
q-267 114 -267 376q0 212 167 343q134 106 305 106q47 0 95 -10zM693 790q-44 21 -91 21q-117 0 -185 -105.5t-68 -279.5q0 -99 24.5 -183.5t67.5 -137.5z" />
    <glyph glyph-name="sterling" unicode="&#xa3;" horiz-adv-x="1024" 
d="M417 822h344v-52h-338q31 -176 31 -295q0 -148 -30 -262q191 -69 269 -88q49 -11 97 -11q88 0 144 37t85 112l26 -7q-55 -162 -155 -248q-64 -55 -164 -55q-71 0 -147 34.5t-200 135.5q-82 -151 -215 -151q-69 0 -113 42.5t-44 105.5q0 65 45.5 109t123.5 44
q72 0 191 -43q-21 108 -102 356q-38 118 -57 184h-189v52h180q-33 119 -33 210q0 187 116 317t350 130q172 0 256.5 -65.5t84.5 -146.5q0 -47 -26 -75t-66 -28t-63.5 22t-23.5 52q0 22 18 59q13 27 13 39q0 36 -48.5 73t-133.5 37q-127 0 -189 -89.5t-62 -247.5
q0 -104 25 -287zM355 145q-115 90 -191 90q-50 0 -81 -31t-31 -81q0 -49 34 -81.5t90 -32.5q52 0 103.5 37t75.5 99z" />
    <glyph glyph-name="currency" unicode="&#xa4;" horiz-adv-x="1024" 
d="M45 293l130 130q-44 58 -64 110q-30 77 -30 157q0 147 93 268l-130 130l70 69l129 -129q66 47 128.5 69.5t140.5 22.5q76 0 139.5 -22.5t127.5 -69.5l129 128l70 -69l-129 -130q92 -127 92 -268q0 -138 -93 -265l130 -131l-70 -70l-131 131q-122 -94 -266 -94
q-65 0 -135 23t-131 71l-130 -130zM512 1014q-82 0 -159.5 -42t-121 -120t-43.5 -162t43 -161t120 -120t161 -43t161 43t119.5 120t42.5 161t-43.5 162t-121 120t-158.5 42z" />
    <glyph glyph-name="yen" unicode="&#xa5;" horiz-adv-x="1024" 
d="M413 281h-254v72h254v130h-254v73h254v98l-397 630q-23 35 -46 48t-68 12v33q137 -5 273 -5q116 0 249 5v-33l-87 -4q-36 -2 -43 -7.5t-7 -16.5q0 -8 6 -23q7 -15 44 -76l280 -459l291 512q21 36 21 48q0 10 -7 14q-10 6 -56 8l-82 4v33q70 -5 179 -5q53 0 122 5v-33
q-55 -3 -74 -15q-26 -18 -62 -79l-311 -525v-169h255v-73h-255v-130h255v-72h-255v-153q0 -73 9.5 -85t44.5 -13l155 -2v-33q-176 5 -327 5q-142 0 -316 -5v33l139 2l22 1q29 0 37 9q9 10 9 42l2 63v136z" />
    <glyph glyph-name="brokenbar" unicode="&#xa6;" horiz-adv-x="455" 
d="M173 841v512h110v-512h-110zM173 -183v512h110v-512h-110z" />
    <glyph glyph-name="section" unicode="&#xa7;" horiz-adv-x="1062" 
d="M370 856q-86 82 -122 151t-36 146q0 81 46 154t145.5 119t209.5 46q122 0 209 -46.5t87 -126.5q0 -42 -24 -66t-63 -24q-37 0 -59 23q-14 14 -29.5 64t-27.5 69q-20 32 -54 50.5t-91 18.5q-110 0 -166 -68q-42 -52 -42 -115q0 -47 21.5 -92.5t74.5 -101.5
q30 -31 181 -165l160 -139q57 -52 90.5 -95.5t50 -91.5t16.5 -101q0 -77 -33 -152t-87 -118.5t-132 -64.5q159 -137 159 -294q0 -128 -110 -225t-291 -97q-149 0 -235 64q-61 46 -61 109q0 38 24 62t63 24q27 0 44.5 -10t27.5 -30q6 -11 16 -54q15 -64 52 -90
q48 -35 125 -35q92 0 146.5 50.5t54.5 125.5q0 53 -23.5 103.5t-74.5 102.5q-38 40 -194 177q-157 138 -191 173q-56 58 -82 113t-26 120q0 70 31.5 145t90 125t129.5 67zM404 827q-72 0 -127 -51t-55 -113q0 -35 17 -72t70 -97t98 -101l253 -232q77 2 122 39q63 51 63 127
q0 35 -16 68q-22 45 -79 105q-83 86 -114 114z" />
    <glyph glyph-name="dieresis" unicode="&#xa8;" horiz-adv-x="569" 
d="M483 1067q-38 0 -65 27t-27 65t27 65.5t65 27.5t65.5 -27.5t27.5 -65.5t-27 -65t-66 -27zM101 1067q-38 0 -65 27t-27 65t27 65.5t65 27.5q39 0 66 -27.5t27 -65.5t-27 -65t-66 -27z" />
    <glyph glyph-name="copyright" unicode="&#xa9;" horiz-adv-x="1593" 
d="M797 1472q188 0 367 -96.5t279.5 -276.5t100.5 -374q0 -124 -39 -237t-105 -202q-66 -90 -158 -160t-208 -108.5t-237 -38.5q-124 0 -236.5 38t-201.5 103q-90 66 -160 157q-71 92 -110.5 209t-39.5 239q0 194 100.5 374t279.5 276.5t368 96.5zM797 1401
q-171 0 -333 -87.5t-253 -250t-91 -338.5q0 -153 67 -291q48 -102 131 -186t206.5 -141t272.5 -57q154 0 292 66q101 49 185 131q85 83 142 207t57 271q0 176 -91 338.5t-252.5 250t-332.5 87.5zM1103 888h-18q-13 103 -76 157t-177 54q-142 0 -220.5 -88t-78.5 -282
q0 -197 80.5 -287t219.5 -90q111 0 171.5 47t76.5 130h18q-9 -63 -9 -122q0 -17 2 -35q-147 -46 -262 -46q-124 0 -232.5 52t-165 143t-56.5 205q0 196 165 313q123 86 278 86q67 0 193 -22q44 -8 66 -8q9 0 19 1q-1 -18 -1 -40q0 -71 7 -168z" />
    <glyph glyph-name="ordfeminine" unicode="&#xaa;" horiz-adv-x="616" 
d="M613 1013v-23q-52 -30 -115 -30q-32 0 -56.5 9.5t-53.5 33.5q-53 -43 -140 -43q-102 0 -150.5 39.5t-48.5 99.5q0 62 54 104.5t173 42.5q54 0 103 -16v86q0 78 -27.5 108.5t-80.5 30.5q-50 0 -84 -26q-24 -18 -33 -66q-5 -23 -15 -31.5t-25 -8.5q-16 0 -26 9.5t-10 23.5
q0 36 46 67q69 49 174 49q74 0 124 -20t66 -46.5t16 -75.5v-285q0 -32 11 -45q12 -13 32 -13q35 0 66 26zM379 1021v103q0 64 -2 72q-4 13 -15 19q-20 11 -52 11q-58 0 -92.5 -32.5t-34.5 -85.5q0 -56 32 -88.5t84 -32.5q24 0 41 7.5t39 26.5z" />
    <glyph glyph-name="guillemotleft" unicode="&#xab;" horiz-adv-x="910" 
d="M505 405l280 417h45l-159 -417l159 -410h-45zM95 405l280 417h45l-159 -417l159 -410h-45z" />
    <glyph glyph-name="logicalnot" unicode="&#xac;" 
d="M98 630v99h1018v-472h-102v373h-916z" />
    <glyph glyph-name="registered" unicode="&#xae;" horiz-adv-x="796" 
d="M397 1472q95 0 184 -48.5t139 -138t50 -186.5t-49.5 -186t-138 -138.5t-183.5 -49.5q-96 0 -184.5 49.5t-138 138.5t-49.5 186t50 186.5t139 138t181 48.5zM398 1416q-79 0 -154.5 -41t-118 -118t-42.5 -159t42 -157.5t117 -117.5t156 -42q82 0 157 42t117 118t42 157
q0 82 -42.5 159t-118 118t-155.5 41zM196 1298l84 -1l119 1q92 0 129.5 -28.5t37.5 -69.5q0 -34 -26 -56q-38 -31 -102 -35v-3q36 0 61.5 -12.5t35 -32t13.5 -82.5q4 -45 8 -53q10 -17 32 -17q9 0 23 6v-13q-26 -12 -54 -12q-52 0 -78 31q-14 17 -18 60q-8 74 -28.5 95
t-70.5 21q-7 0 -27 -1v-156q0 -20 3.5 -24.5t15.5 -4.5h38v-17q-56 1 -70 1q-71 0 -128 -1v17h42q10 1 13 5t3 34v311q0 13 -2.5 16t-11.5 3l-42 1v17zM335 1120q26 -1 31 -1q54 0 78 20.5t24 55.5q0 40 -25 63t-80 23q-21 0 -24.5 -3t-3.5 -18v-140z" />
    <glyph glyph-name="macron" unicode="&#xaf;" horiz-adv-x="569" 
d="M512 1171v-90h-455v90h455z" />
    <glyph glyph-name="degree" unicode="&#xb0;" horiz-adv-x="834" 
d="M417 1401q77 0 149.5 -39.5t113.5 -112.5t41 -152q0 -78 -40 -150.5t-112.5 -112.5t-151.5 -40q-78 0 -150.5 40t-112.5 112.5t-40 150.5q0 79 41 152t113.5 112.5t148.5 39.5zM417 1302q-51 0 -100 -26.5t-77 -75.5t-28 -103q0 -85 60.5 -145t144.5 -60q86 0 146 60
t60 145t-60 145t-146 60z" />
    <glyph glyph-name="plusminus" unicode="&#xb1;" 
d="M552 176v364h-454v98h454v364h110v-364h454v-98h-454v-364h-110zM98 -16v98h1018v-98h-1018z" />
    <glyph glyph-name="twosuperior" unicode="&#xb2;" horiz-adv-x="666" 
d="M600 761h18q-18 -102 -21 -202q-97 6 -287 6q-190 -1 -257 -6l-5 14q119 77 216 176q98 100 153 227q30 69 30 148q0 105 -53 163t-132 58q-72 0 -130 -44.5t-58 -125.5q0 -35 12.5 -60.5t40.5 -52.5l-33 -24q-45 48 -45 129q0 95 76.5 165t195.5 70q122 0 197 -71.5
t75 -178.5q0 -68 -32 -138t-120.5 -157t-210.5 -179h217q121 0 133 8q12 9 20 75z" />
    <glyph glyph-name="threesuperior" unicode="&#xb3;" horiz-adv-x="666" 
d="M165 1094l-20 -32q-71 48 -71 132q0 79 69 143t174 64q111 0 180.5 -63t69.5 -150q0 -61 -38 -110t-110 -72q54 -14 84 -37q40 -29 62.5 -75.5t22.5 -99.5q0 -107 -84.5 -176.5t-212.5 -69.5q-101 0 -161.5 51t-60.5 109q0 38 24 62.5t57 24.5q29 0 47 -16.5t18 -40.5
q0 -23 -16.5 -38.5t-43.5 -15.5q-23 0 -51 22q-2 -11 -2 -19q0 -38 46 -76t113 -38q70 0 129.5 46t59.5 143q0 84 -50.5 134t-133.5 50q-24 0 -52 -6v27q49 0 103.5 24t84 71.5t29.5 102.5q0 75 -48.5 125t-119.5 50q-70 0 -116.5 -44t-46.5 -104q0 -71 65 -98z" />
    <glyph glyph-name="acute" unicode="&#xb4;" horiz-adv-x="569" 
d="M240 924h-31l120 276q32 70 54.5 88.5t46.5 18.5t41.5 -16t17.5 -36t-14.5 -45.5t-100.5 -120.5q-24 -28 -134 -165z" />
    <glyph glyph-name="mu" unicode="&#xb5;" horiz-adv-x="1138" 
d="M1010 254h46l-5 -114q-6 -66 -23 -98t-47 -48.5t-70 -16.5q-45 0 -79.5 22.5t-52 57t-25.5 102.5q-3 27 -9 147q-66 -192 -139.5 -255.5t-169.5 -63.5q-56 0 -101 20.5t-75 59.5q-22 31 -43 94q2 -32 23 -289q11 -138 11 -166q0 -91 -23 -129q-14 -22 -34 -22
q-22 0 -36 22q-21 35 -21 129q0 22 15 238t15 451v425h109v-425q0 -87 4 -170q3 -44 11 -69q10 -34 31 -58.5t49 -38t74 -13.5q52 0 89 19q50 26 86 75q37 50 69 143q33 94 44 180q12 86 12 219v138h110v-527q0 -110 5 -150q6 -55 24.5 -76.5t47.5 -21.5q44 0 61 38
q17 39 17 171z" />
    <glyph glyph-name="paragraph" unicode="&#xb6;" 
d="M1123 1451v-60q-80 0 -106 -9t-36 -28t-10 -76l1 -1515q0 -54 22 -71q29 -23 129 -22v-60h-685v60q68 1 84 4q29 6 42 17t19 33t6 99v713h-67q-80 -1 -170.5 22t-162.5 80.5t-119 149.5t-47 205q0 133 71 244.5t192 162.5t369 51h468zM650 1389v-1564q0 -89 6 -112
q6 -24 26 -36t74 -12q53 0 73.5 13t25.5 37q6 25 6 108v1566h-211z" />
    <glyph glyph-name="cedilla" unicode="&#xb8;" horiz-adv-x="569" 
d="M275 7h33l-85 -133q38 12 74 12q80 0 122 -36.5t42 -93.5q0 -69 -54 -116.5t-149 -47.5q-83 0 -149 38v55l11 2q19 -29 40 -42t54 -13q50 0 81.5 32t31.5 83q0 44 -24.5 69t-69.5 25q-24 0 -48 -9l-10 14z" />
    <glyph glyph-name="onesuperior" unicode="&#xb9;" horiz-adv-x="666" 
d="M406 1404h23q-7 -62 -9 -148q-4 -170 -4 -383l4 -213q1 -67 6 -73q7 -8 58 -8h43v-20q-100 3 -204 3q-71 0 -159 -3v20h46q42 0 50 6q9 6 11 23q4 29 4 153v511q-79 -50 -168 -94l-11 30q249 113 310 196z" />
    <glyph glyph-name="ordmasculine" unicode="&#xba;" horiz-adv-x="690" 
d="M348 1472q64 0 131.5 -24.5t111.5 -83.5t44 -148q0 -131 -95.5 -195t-202.5 -64q-124 0 -203.5 75t-79.5 181q0 110 80 184.5t214 74.5zM350 974q63 0 99 47q51 66 51 192q0 128 -53 196q-38 49 -103 49q-42 0 -79 -25t-55.5 -70t-18.5 -132q0 -149 52 -210
q40 -47 107 -47z" />
    <glyph glyph-name="guillemotright" unicode="&#xbb;" horiz-adv-x="910" 
d="M816 405l-280 -410h-45l159 410l-159 417h45zM406 405l-280 -410h-45l159 410l-159 417h45z" />
    <glyph glyph-name="onequarter" unicode="&#xbc;" horiz-adv-x="1673" 
d="M1223 1481h104l-808 -1507h-104zM406 1404h23q-7 -62 -9 -148q-4 -170 -4 -383l4 -213q1 -67 6 -73q7 -8 58 -8h43v-20q-100 3 -204 3q-71 0 -159 -3v20h46q42 0 50 6q9 6 11 23q4 29 4 153v511q-79 -50 -168 -94l-11 30q249 113 310 196zM1490 311h122l-32 -88h-90v-68
q0 -80 10 -171q-37 3 -81 3q-37 0 -75 -3q11 78 11 167v72h-136q-122 0 -226 -4l-8 21q51 48 202 221l163 189q67 83 95 129q18 28 33 62h22q-10 -83 -10 -198v-332zM1359 311v305q-71 -95 -262 -305h262z" />
    <glyph glyph-name="onehalf" unicode="&#xbd;" horiz-adv-x="1673" 
d="M1190 1481h105l-809 -1507h-104zM406 1404h23q-7 -62 -9 -148q-4 -170 -4 -383l4 -213q1 -67 6 -73q7 -8 58 -8h43v-20q-100 3 -204 3q-71 0 -159 -3v20h46q42 0 50 6q9 6 11 23q4 29 4 153v511q-79 -50 -168 -94l-11 30q249 113 310 196zM1607 199h18q-18 -102 -21 -202
q-97 6 -287 6q-190 -1 -257 -6l-5 14q119 77 216 176q98 100 153 227q30 69 30 148q0 105 -53 163.5t-132 58.5q-72 0 -130 -44.5t-58 -126.5q0 -35 12.5 -60.5t40.5 -51.5l-33 -25q-44 48 -44 129q0 95 76 165.5t195 70.5q123 0 198 -71.5t75 -179.5q0 -68 -32.5 -138
t-121 -157t-210.5 -178h217q121 0 133 8t20 74z" />
    <glyph glyph-name="threequarters" unicode="&#xbe;" horiz-adv-x="1673" 
d="M1201 1481h104l-808 -1507h-105zM165 1094l-20 -32q-71 48 -71 132q0 79 69 143t174 64q111 0 180.5 -63t69.5 -150q0 -61 -38 -110t-110 -72q54 -14 84 -37q40 -29 62.5 -75.5t22.5 -99.5q0 -107 -84.5 -176.5t-212.5 -69.5q-101 0 -161.5 51t-60.5 109q0 38 24 62.5
t57 24.5q29 0 47 -16.5t18 -40.5q0 -23 -16.5 -38.5t-43.5 -15.5q-23 0 -51 22q-2 -11 -2 -19q0 -38 46 -76t113 -38q70 0 129.5 46t59.5 143q0 84 -50.5 134t-133.5 50q-24 0 -52 -6v27q49 0 103.5 24t84 71.5t29.5 102.5q0 75 -48.5 125t-119.5 50q-70 0 -116.5 -44
t-46.5 -104q0 -71 65 -98zM1489 311h122l-32 -88h-90v-68q0 -80 10 -171q-36 3 -81 3q-37 0 -75 -3q11 78 11 167v72h-136q-122 0 -226 -4l-8 21q51 48 202 221l163 189q67 83 96 129q17 28 32 62h22q-10 -83 -10 -198v-332zM1359 311v305q-71 -95 -262 -305h262z" />
    <glyph glyph-name="questiondown" unicode="&#xbf;" horiz-adv-x="759" 
d="M605 889q0 -44 -31.5 -75.5t-75.5 -31.5t-75.5 31.5t-31.5 75.5t31.5 75.5t75.5 31.5t75.5 -31.5t31.5 -75.5zM465 699h54q-7 -141 -7 -208q0 -121 10 -216l-12 -10q-50 29 -96 29q-113 0 -197 -90t-84 -232q0 -130 76.5 -212t178.5 -82q41 0 79 15.5t89 56.5
q31 24 47 31.5t30 7.5q29 0 55 -29t26 -72q0 -64 -61 -112q-80 -64 -201 -64q-164 0 -273.5 111.5t-109.5 290.5q0 81 23.5 156.5t63.5 126t85 78.5t95 41q50 14 97 14q24 0 39 -3q2 47 2 93q0 37 -9 279z" />
    <glyph glyph-name="Agrave" unicode="&#xc0;" horiz-adv-x="1441" 
d="M849 495h-488l-133 -324q-39 -94 -39 -116q0 -12 8 -17.5t47 -6.5l83 -3v-33q-88 5 -172 5q-72 0 -150 -5v33h33q52 0 73.5 17.5t60.5 109.5l549 1312h28l493 -1288q39 -101 48.5 -117t23.5 -23q23 -11 77 -11h36v-33q-148 5 -287 5q-77 0 -291 -5v33h123q28 0 35.5 5
t7.5 14q0 15 -19 64zM375 538h460l-223 574zM811 1497h-31q-102 128 -159.5 194.5t-66.5 78.5q-13 17 -18 31t-5 27q0 20 17.5 36t42.5 16q22 0 43.5 -17t54.5 -85q21 -45 122 -281z" />
    <glyph glyph-name="Aacute" unicode="&#xc1;" horiz-adv-x="1441" 
d="M849 495h-488l-133 -324q-39 -94 -39 -116q0 -12 8 -17.5t47 -6.5l83 -3v-33q-88 5 -172 5q-72 0 -150 -5v33h33q52 0 73.5 17.5t60.5 109.5l549 1312h28l493 -1288q39 -101 48.5 -117t23.5 -23q23 -11 77 -11h36v-33q-148 5 -287 5q-77 0 -291 -5v33h123q28 0 35.5 5
t7.5 14q0 15 -19 64zM375 538h460l-223 574zM682 1497h-31l120 276q32 70 54.5 88.5t46.5 18.5t41.5 -16t17.5 -36t-14.5 -45.5t-100.5 -120.5q-24 -28 -134 -165z" />
    <glyph glyph-name="Acircumflex" unicode="&#xc2;" horiz-adv-x="1441" 
d="M849 495h-488l-133 -324q-39 -94 -39 -116q0 -12 8 -17.5t47 -6.5l83 -3v-33q-88 5 -172 5q-72 0 -150 -5v33h33q52 0 73.5 17.5t60.5 109.5l549 1312h28l493 -1288q39 -101 48.5 -117t23.5 -23q23 -11 77 -11h36v-33q-148 5 -287 5q-77 0 -291 -5v33h123q28 0 35.5 5
t7.5 14q0 15 -19 64zM375 538h460l-223 574zM717 1931h36q70 -156 122 -252t113 -186h-43l-148 168q-28 33 -63 78q-108 -128 -216 -242h-40q88 128 239 434z" />
    <glyph glyph-name="Atilde" unicode="&#xc3;" horiz-adv-x="1441" 
d="M849 495h-488l-133 -324q-39 -94 -39 -116q0 -12 8 -17.5t47 -6.5l83 -3v-33q-88 5 -172 5q-72 0 -150 -5v33h33q52 0 73.5 17.5t60.5 109.5l549 1312h28l493 -1288q39 -101 48.5 -117t23.5 -23q23 -11 77 -11h36v-33q-148 5 -287 5q-77 0 -291 -5v33h123q28 0 35.5 5
t7.5 14q0 15 -19 64zM375 538h460l-223 574zM993 1841l33 -12q-48 -128 -91 -167t-89 -39q-32 0 -63 12t-124 69q-49 30 -77 30q-27 0 -45 -16q-26 -23 -61 -95l-28 12q49 133 94 174q35 32 81 32q31 0 64.5 -13t95.5 -54.5t95 -41.5q32 0 61 23t54 86z" />
    <glyph glyph-name="Adieresis" unicode="&#xc4;" horiz-adv-x="1441" 
d="M849 495h-488l-133 -324q-39 -94 -39 -116q0 -12 8 -17.5t47 -6.5l83 -3v-33q-88 5 -172 5q-72 0 -150 -5v33h33q52 0 73.5 17.5t60.5 109.5l549 1312h28l493 -1288q39 -101 48.5 -117t23.5 -23q23 -11 77 -11h36v-33q-148 5 -287 5q-77 0 -291 -5v33h123q28 0 35.5 5
t7.5 14q0 15 -19 64zM375 538h460l-223 574zM926 1640q-38 0 -65 27t-27 65t27 65.5t65 27.5t65.5 -27.5t27.5 -65.5t-27 -65t-66 -27zM544 1640q-38 0 -65 27t-27 65t27 65.5t65 27.5q39 0 66 -27.5t27 -65.5t-27 -65t-66 -27z" />
    <glyph glyph-name="Aring" unicode="&#xc5;" horiz-adv-x="1441" 
d="M849 495h-488l-133 -324q-39 -94 -39 -116q0 -12 8 -17.5t47 -6.5l83 -3v-33q-88 5 -172 5q-72 0 -150 -5v33h33q52 0 73.5 17.5t60.5 109.5l549 1312h28l493 -1288q39 -101 48.5 -117t23.5 -23q23 -11 77 -11h36v-33q-148 5 -287 5q-77 0 -291 -5v33h123q28 0 35.5 5
t7.5 14q0 15 -19 64zM375 538h460l-223 574zM728 1523q-82 0 -139.5 58t-57.5 139q0 82 57.5 139.5t139.5 57.5q81 0 138.5 -57.5t57.5 -139.5q0 -81 -57 -139t-139 -58zM728 1578q59 0 100.5 41.5t41.5 100.5t-41.5 100.5t-100.5 41.5t-100.5 -41.5t-41.5 -100.5
t41.5 -100.5t100.5 -41.5z" />
    <glyph glyph-name="AE" unicode="&#xc6;" horiz-adv-x="1783" 
d="M1617 1455v-275h-26q-10 79 -30 119.5t-59.5 67t-121.5 36.5t-451 10l98 -591h196q79 0 92 5q10 3 14 13q6 14 6 75v104h38v-434h-38v124q0 52 -4 60q-4 9 -14 12q-13 4 -87 4h-199l124 -742h168q123 0 183 10q85 16 133.5 53t70.5 91q23 54 25 140h29l-5 -342
q-156 10 -510 10q-278 0 -500 -10v33l84 4q43 2 52 8q9 7 9 22q0 8 -1 17l-16 99l-54 320h-455l-178 -376q-20 -42 -20 -60q0 -16 10 -23t65 -8l68 -3v-33q-84 5 -149 5q-84 0 -159 -5v33l59 3q22 1 30 6q9 6 22 29q0 1 34 71l533 1136q-11 73 -45 142l-138 7v33
q188 -7 442 -7q451 0 675 7zM818 540l-69 406q-20 122 -50 274l-315 -680h434z" />
    <glyph glyph-name="Ccedilla" unicode="&#xc7;" horiz-adv-x="1441" 
d="M1363 1029h-24q-22 199 -137 303t-311 104q-261 0 -393.5 -175.5t-132.5 -529.5q0 -344 118 -515q139 -202 409 -202q105 0 186.5 27.5t134 77.5t85.5 122q22 46 34 117h24q-14 -117 -14 -224q0 -36 2 -70q-113 -40 -242 -63q-129 -24 -233 -23l-69 -107q39 12 74 12
q81 0 122.5 -37t41.5 -93q0 -70 -53.5 -117.5t-148.5 -47.5q-84 0 -150 39v54l11 2q19 -29 40.5 -41.5t53.5 -12.5q51 0 82.5 32t31.5 82q0 45 -25 70t-69 25q-24 0 -49 -10l-9 14l84 137q-215 13 -389.5 112.5t-266 264.5t-91.5 369q0 199 88.5 356.5t251.5 261.5
q201 127 435 127q118 0 339 -41q78 -14 116 -14q15 0 33 2q-2 -38 -2 -79q0 -132 12 -309z" />
    <glyph glyph-name="Egrave" unicode="&#xc8;" 
d="M460 1413v-591h239q52 0 59 8q7 9 7 71v118h36v-434h-36v121q0 50 -3 60t-9.5 13t-43.5 3h-249v-739q153 -3 282 -3q121 0 179 10q80 13 130 41q37 20 60.5 48t38.5 72q15 45 21 123h28l-5 -339q-392 10 -687 10q-186 0 -474 -10v33l109 3q44 1 53 10.5t9 62.5v1277
q0 23 -7.5 29.5t-41.5 7.5l-120 4v33q222 -7 351 -7q481 0 664 7v-275h-26q-10 72 -30 113t-49 65t-75 37t-162 15q-117 3 -248 3zM689 1497h-31q-102 128 -159.5 194.5t-66.5 78.5q-13 17 -18 31t-5 27q0 20 17.5 36t42.5 16q22 0 43.5 -17t54.5 -85q21 -45 122 -281z" />
    <glyph glyph-name="Eacute" unicode="&#xc9;" 
d="M460 1413v-591h239q52 0 59 8q7 9 7 71v118h36v-434h-36v121q0 50 -3 60t-9.5 13t-43.5 3h-249v-739q153 -3 282 -3q121 0 179 10q80 13 130 41q37 20 60.5 48t38.5 72q15 45 21 123h28l-5 -339q-392 10 -687 10q-186 0 -474 -10v33l109 3q44 1 53 10.5t9 62.5v1277
q0 23 -7.5 29.5t-41.5 7.5l-120 4v33q222 -7 351 -7q481 0 664 7v-275h-26q-10 72 -30 113t-49 65t-75 37t-162 15q-117 3 -248 3zM561 1497h-31l120 276q32 70 54.5 88.5t46.5 18.5t41.5 -16t17.5 -36t-14.5 -45.5t-100.5 -120.5q-24 -28 -134 -165z" />
    <glyph glyph-name="Ecircumflex" unicode="&#xca;" 
d="M460 1413v-591h239q52 0 59 8q7 9 7 71v118h36v-434h-36v121q0 50 -3 60t-9.5 13t-43.5 3h-249v-739q153 -3 282 -3q121 0 179 10q80 13 130 41q37 20 60.5 48t38.5 72q15 45 21 123h28l-5 -339q-392 10 -687 10q-186 0 -474 -10v33l109 3q44 1 53 10.5t9 62.5v1277
q0 23 -7.5 29.5t-41.5 7.5l-120 4v33q222 -7 351 -7q481 0 664 7v-275h-26q-10 72 -30 113t-49 65t-75 37t-162 15q-117 3 -248 3zM596 1930h36q70 -156 122 -252t113 -186h-43l-148 168q-28 33 -63 78q-108 -128 -216 -242h-40q88 128 239 434z" />
    <glyph glyph-name="Edieresis" unicode="&#xcb;" 
d="M460 1413v-591h239q52 0 59 8q7 9 7 71v118h36v-434h-36v121q0 50 -3 60t-9.5 13t-43.5 3h-249v-739q153 -3 282 -3q121 0 179 10q80 13 130 41q37 20 60.5 48t38.5 72q15 45 21 123h28l-5 -339q-392 10 -687 10q-186 0 -474 -10v33l109 3q44 1 53 10.5t9 62.5v1277
q0 23 -7.5 29.5t-41.5 7.5l-120 4v33q222 -7 351 -7q481 0 664 7v-275h-26q-10 72 -30 113t-49 65t-75 37t-162 15q-117 3 -248 3zM805 1639q-38 0 -65 27t-27 65t27 65.5t65 27.5t65.5 -27.5t27.5 -65.5t-27 -65t-66 -27zM423 1639q-38 0 -65 27t-27 65t27 65.5t65 27.5
q39 0 66 -27.5t27 -65.5t-27 -65t-66 -27z" />
    <glyph glyph-name="Igrave" unicode="&#xcc;" horiz-adv-x="683" 
d="M43 1422v33q145 -4 303 -4q149 0 290 4v-33l-126 -4h-16q-12 -2 -16.5 -9.5t-6.5 -72.5q-4 -133 -4 -165v-901q0 -207 9 -226q5 -11 36 -12l124 -4v-33q-156 5 -259 5q-181 0 -334 -5v33l128 4q25 1 30.5 7t6.5 61l3 182v917q0 12 -2 148q-2 59 -6 64.5t-18 6.5z
M424 1497h-31q-102 128 -159.5 194.5t-66.5 78.5q-13 17 -18 31t-5 27q0 20 17.5 36t42.5 16q22 0 43.5 -17t54.5 -85q21 -45 122 -281z" />
    <glyph glyph-name="Iacute" unicode="&#xcd;" horiz-adv-x="683" 
d="M43 1422v33q145 -4 303 -4q149 0 290 4v-33l-126 -4h-16q-12 -2 -16.5 -9.5t-6.5 -72.5q-4 -133 -4 -165v-901q0 -207 9 -226q5 -11 36 -12l124 -4v-33q-156 5 -259 5q-181 0 -334 -5v33l128 4q25 1 30.5 7t6.5 61l3 182v917q0 12 -2 148q-2 59 -6 64.5t-18 6.5z
M296 1497h-31l120 276q32 70 54.5 88.5t46.5 18.5t41.5 -16t17.5 -36t-14.5 -45.5t-100.5 -120.5q-24 -28 -134 -165z" />
    <glyph glyph-name="Icircumflex" unicode="&#xce;" horiz-adv-x="683" 
d="M43 1422v33q145 -4 303 -4q149 0 290 4v-33l-126 -4h-16q-12 -2 -16.5 -9.5t-6.5 -72.5q-4 -133 -4 -165v-901q0 -207 9 -226q5 -11 36 -12l124 -4v-33q-156 5 -259 5q-181 0 -334 -5v33l128 4q25 1 30.5 7t6.5 61l3 182v917q0 12 -2 148q-2 59 -6 64.5t-18 6.5z
M331 1930h36q70 -156 122 -252t113 -186h-43l-148 168q-28 33 -63 78q-108 -128 -216 -242h-40q88 128 239 434z" />
    <glyph glyph-name="Idieresis" unicode="&#xcf;" horiz-adv-x="683" 
d="M43 1422v33q145 -4 303 -4q149 0 290 4v-33l-126 -4h-16q-12 -2 -16.5 -9.5t-6.5 -72.5q-4 -133 -4 -165v-901q0 -207 9 -226q5 -11 36 -12l124 -4v-33q-156 5 -259 5q-181 0 -334 -5v33l128 4q25 1 30.5 7t6.5 61l3 182v917q0 12 -2 148q-2 59 -6 64.5t-18 6.5z
M540 1639q-38 0 -65 27t-27 65t27 65.5t65 27.5t65.5 -27.5t27.5 -65.5t-27 -65t-66 -27zM158 1639q-38 0 -65 27t-27 65t27 65.5t65 27.5q39 0 66 -27.5t27 -65.5t-27 -65t-66 -27z" />
    <glyph glyph-name="Eth" unicode="&#xd0;" horiz-adv-x="1707" 
d="M201 719h-151v86h151v540q0 56 -6 64t-28 9l-134 4v33q142 -5 215 -5l344 4l192 1q111 1 246.5 -21.5t242.5 -81.5t183 -151.5t116 -217t40 -257.5q0 -163 -51 -292.5t-138.5 -213.5t-204.5 -134t-281 -70q-164 -21 -344 -21l-251 5q-26 0 -309 -5v33l105 2q41 1 49 5
t11 13t3 55v616zM457 719v-640q0 -33 3 -39t14 -8q24 -5 81 -5q170 0 282 18q112 19 204.5 72.5t160.5 140.5t101.5 198.5t33.5 247.5q0 179 -55 323.5t-146 232.5t-205 122q-114 35 -286 35h-188v-612h371v-86h-371z" />
    <glyph glyph-name="Ntilde" unicode="&#xd1;" horiz-adv-x="1593" 
d="M1332 -21l-1078 1310l2 -1083q0 -138 12 -156q13 -18 66 -19l114 -3v-33q-111 5 -218 5q-91 0 -192 -5v33l102 3q36 1 49 10.5t18 35.5q6 36 6 148v1107q-43 53 -78.5 71t-94.5 19v33q112 -4 243 -4q97 0 194 4q8 -30 19 -50q12 -20 37 -52l821 -1000v868q0 103 -7 146
q-5 33 -16 41.5t-47 9.5l-118 4v33q99 -4 209 -4q96 0 190 4v-33l-123 -4q-30 -1 -37 -13q-9 -17 -9 -170l-2 -1256h-62zM1097 1841l33 -12q-48 -128 -91 -167t-89 -39q-32 0 -63 12t-124 69q-49 30 -77 30q-27 0 -45 -16q-26 -23 -61 -95l-28 12q49 133 94 174q35 32 81 32
q31 0 64.5 -13t95.5 -54.5t95 -41.5q32 0 61 23t54 86z" />
    <glyph glyph-name="Ograve" unicode="&#xd2;" horiz-adv-x="1707" 
d="M845 1472q147 0 285.5 -52t243 -151.5t162.5 -218.5q72 -150 72 -331q0 -179 -70 -332q-57 -123 -150.5 -211.5t-195.5 -132.5q-149 -64 -347 -64q-169 0 -308.5 46.5t-240 142t-154.5 230.5t-54 307q0 198 73 347q54 107 146.5 198.5t201.5 144.5q157 77 336 77zM850 12
q102 0 187.5 47.5t144.5 124.5q79 102 115 241.5t36 312.5q0 141 -27 265.5t-91.5 223t-163 155.5t-212.5 57q-108 0 -195 -48.5t-152.5 -136t-98 -228.5t-32.5 -308q0 -154 29 -285t98.5 -227t167.5 -145t194 -49zM937 1498h-31q-102 128 -159.5 194.5t-66.5 78.5
q-13 17 -18 31t-5 27q0 20 17.5 36t42.5 16q22 0 43.5 -17t54.5 -85q21 -45 122 -281z" />
    <glyph glyph-name="Oacute" unicode="&#xd3;" horiz-adv-x="1707" 
d="M845 1472q147 0 285.5 -52t243 -151.5t162.5 -218.5q72 -150 72 -331q0 -179 -70 -332q-57 -123 -150.5 -211.5t-195.5 -132.5q-149 -64 -347 -64q-169 0 -308.5 46.5t-240 142t-154.5 230.5t-54 307q0 198 73 347q54 107 146.5 198.5t201.5 144.5q157 77 336 77zM850 12
q102 0 187.5 47.5t144.5 124.5q79 102 115 241.5t36 312.5q0 141 -27 265.5t-91.5 223t-163 155.5t-212.5 57q-108 0 -195 -48.5t-152.5 -136t-98 -228.5t-32.5 -308q0 -154 29 -285t98.5 -227t167.5 -145t194 -49zM809 1498h-31l120 276q32 70 54.5 88.5t46.5 18.5
t41.5 -16t17.5 -36t-14.5 -45.5t-100.5 -120.5q-24 -28 -134 -165z" />
    <glyph glyph-name="Ocircumflex" unicode="&#xd4;" horiz-adv-x="1707" 
d="M845 1472q147 0 285.5 -52t243 -151.5t162.5 -218.5q72 -150 72 -331q0 -179 -70 -332q-57 -123 -150.5 -211.5t-195.5 -132.5q-149 -64 -347 -64q-169 0 -308.5 46.5t-240 142t-154.5 230.5t-54 307q0 198 73 347q54 107 146.5 198.5t201.5 144.5q157 77 336 77zM850 12
q102 0 187.5 47.5t144.5 124.5q79 102 115 241.5t36 312.5q0 141 -27 265.5t-91.5 223t-163 155.5t-212.5 57q-108 0 -195 -48.5t-152.5 -136t-98 -228.5t-32.5 -308q0 -154 29 -285t98.5 -227t167.5 -145t194 -49zM843 1931h36q70 -156 122 -252t113 -186h-43l-148 168
q-28 33 -63 78q-108 -128 -216 -242h-40q88 128 239 434z" />
    <glyph glyph-name="Otilde" unicode="&#xd5;" horiz-adv-x="1707" 
d="M845 1472q147 0 285.5 -52t243 -151.5t162.5 -218.5q72 -150 72 -331q0 -179 -70 -332q-57 -123 -150.5 -211.5t-195.5 -132.5q-149 -64 -347 -64q-169 0 -308.5 46.5t-240 142t-154.5 230.5t-54 307q0 198 73 347q54 107 146.5 198.5t201.5 144.5q157 77 336 77zM850 12
q102 0 187.5 47.5t144.5 124.5q79 102 115 241.5t36 312.5q0 141 -27 265.5t-91.5 223t-163 155.5t-212.5 57q-108 0 -195 -48.5t-152.5 -136t-98 -228.5t-32.5 -308q0 -154 29 -285t98.5 -227t167.5 -145t194 -49zM1119 1841l33 -12q-48 -128 -91 -167t-89 -39
q-32 0 -63 12t-124 69q-49 30 -77 30q-27 0 -45 -16q-26 -23 -61 -95l-28 12q49 133 94 174q35 32 81 32q31 0 64.5 -13t95.5 -54.5t95 -41.5q32 0 61 23t54 86z" />
    <glyph glyph-name="Odieresis" unicode="&#xd6;" horiz-adv-x="1707" 
d="M845 1472q147 0 285.5 -52t243 -151.5t162.5 -218.5q72 -150 72 -331q0 -179 -70 -332q-57 -123 -150.5 -211.5t-195.5 -132.5q-149 -64 -347 -64q-169 0 -308.5 46.5t-240 142t-154.5 230.5t-54 307q0 198 73 347q54 107 146.5 198.5t201.5 144.5q157 77 336 77zM850 12
q102 0 187.5 47.5t144.5 124.5q79 102 115 241.5t36 312.5q0 141 -27 265.5t-91.5 223t-163 155.5t-212.5 57q-108 0 -195 -48.5t-152.5 -136t-98 -228.5t-32.5 -308q0 -154 29 -285t98.5 -227t167.5 -145t194 -49zM1052 1640q-38 0 -65 27t-27 65t27 65.5t65 27.5
t65.5 -27.5t27.5 -65.5t-27 -65t-66 -27zM670 1640q-38 0 -65 27t-27 65t27 65.5t65 27.5q39 0 66 -27.5t27 -65.5t-27 -65t-66 -27z" />
    <glyph glyph-name="multiply" unicode="&#xd7;" 
d="M124 90l404 403l-404 404l76 75l402 -404l404 404l76 -75l-404 -403l403 -404l-75 -75l-403 404l-403 -404z" />
    <glyph glyph-name="Oslash" unicode="&#xd8;" horiz-adv-x="1707" 
d="M1294 1334l108 138h66l-132 -170q125 -107 191 -235q81 -155 81 -342q0 -306 -186 -513q-209 -233 -569 -233q-273 0 -459 112l-87 -112h-67l111 142q-130 103 -196.5 247.5t-66.5 336.5q0 198 73 347q55 111 152 204t210 146q150 70 322 70q249 0 449 -138zM1213 1229
q-37 53 -70 85.5t-77.5 60t-104.5 46t-123 18.5q-104 0 -193 -48.5t-154.5 -138t-97.5 -228t-32 -298.5q0 -174 32 -307q20 -83 63 -162zM486 210q68 -97 167 -147.5t198 -50.5q105 0 197 53.5t158 152.5t96.5 232.5t30.5 280.5q0 161 -30 286q-19 84 -61 164z" />
    <glyph glyph-name="Ugrave" unicode="&#xd9;" horiz-adv-x="1441" 
d="M597 1455v-33l-115 -4q-32 -1 -41 -10t-11 -43l-4 -161v-472q0 -313 32 -444q32 -132 109.5 -195t216.5 -63q108 0 191 37t132.5 98t79.5 152q23 67 34 210q11 144 11 307v332q0 214 -11 236q-7 14 -47 16l-110 4v33q91 -4 192 -4q90 0 178 4v-33l-101 -4q-31 -1 -38 -14
q-13 -27 -13 -247l-2 -259q-3 -326 -23 -473q-15 -116 -56 -195q-41 -80 -100 -134.5t-147 -86.5q-89 -33 -211 -33q-145 0 -255.5 43t-171 107t-94.5 152t-44 244q-6 86 -11 386q-8 458 -21 487q-10 21 -56 22l-88 5v33q142 -4 333 -4q115 0 262 4zM898 1497h-31
q-102 128 -159.5 194.5t-66.5 78.5q-13 17 -18 31t-5 27q0 20 17.5 36t42.5 16q22 0 43.5 -17t54.5 -85q21 -45 122 -281z" />
    <glyph glyph-name="Uacute" unicode="&#xda;" horiz-adv-x="1441" 
d="M597 1455v-33l-115 -4q-32 -1 -41 -10t-11 -43l-4 -161v-472q0 -313 32 -444q32 -132 109.5 -195t216.5 -63q108 0 191 37t132.5 98t79.5 152q23 67 34 210q11 144 11 307v332q0 214 -11 236q-7 14 -47 16l-110 4v33q91 -4 192 -4q90 0 178 4v-33l-101 -4q-31 -1 -38 -14
q-13 -27 -13 -247l-2 -259q-3 -326 -23 -473q-15 -116 -56 -195q-41 -80 -100 -134.5t-147 -86.5q-89 -33 -211 -33q-145 0 -255.5 43t-171 107t-94.5 152t-44 244q-6 86 -11 386q-8 458 -21 487q-10 21 -56 22l-88 5v33q142 -4 333 -4q115 0 262 4zM746 1497h-31l120 276
q32 70 54.5 88.5t46.5 18.5t41.5 -16t17.5 -36t-14.5 -45.5t-100.5 -120.5q-24 -28 -134 -165z" />
    <glyph glyph-name="Ucircumflex" unicode="&#xdb;" horiz-adv-x="1441" 
d="M597 1455v-33l-115 -4q-32 -1 -41 -10t-11 -43l-4 -161v-472q0 -313 32 -444q32 -132 109.5 -195t216.5 -63q108 0 191 37t132.5 98t79.5 152q23 67 34 210q11 144 11 307v332q0 214 -11 236q-7 14 -47 16l-110 4v33q91 -4 192 -4q90 0 178 4v-33l-101 -4q-31 -1 -38 -14
q-13 -27 -13 -247l-2 -259q-3 -326 -23 -473q-15 -116 -56 -195q-41 -80 -100 -134.5t-147 -86.5q-89 -33 -211 -33q-145 0 -255.5 43t-171 107t-94.5 152t-44 244q-6 86 -11 386q-8 458 -21 487q-10 21 -56 22l-88 5v33q142 -4 333 -4q115 0 262 4zM793 1930h36
q70 -156 122 -252t113 -186h-43l-148 168q-28 33 -63 78q-108 -128 -216 -242h-40q88 128 239 434z" />
    <glyph glyph-name="Udieresis" unicode="&#xdc;" horiz-adv-x="1441" 
d="M597 1455v-33l-115 -4q-32 -1 -41 -10t-11 -43l-4 -161v-472q0 -313 32 -444q32 -132 109.5 -195t216.5 -63q108 0 191 37t132.5 98t79.5 152q23 67 34 210q11 144 11 307v332q0 214 -11 236q-7 14 -47 16l-110 4v33q91 -4 192 -4q90 0 178 4v-33l-101 -4q-31 -1 -38 -14
q-13 -27 -13 -247l-2 -259q-3 -326 -23 -473q-15 -116 -56 -195q-41 -80 -100 -134.5t-147 -86.5q-89 -33 -211 -33q-145 0 -255.5 43t-171 107t-94.5 152t-44 244q-6 86 -11 386q-8 458 -21 487q-10 21 -56 22l-88 5v33q142 -4 333 -4q115 0 262 4zM1002 1639q-38 0 -65 27
t-27 65t27 65.5t65 27.5t65.5 -27.5t27.5 -65.5t-27 -65t-66 -27zM620 1639q-38 0 -65 27t-27 65t27 65.5t65 27.5q39 0 66 -27.5t27 -65.5t-27 -65t-66 -27z" />
    <glyph glyph-name="Yacute" unicode="&#xdd;" horiz-adv-x="1327" 
d="M5 1422v33q136 -4 291 -4q132 0 264 4v-33l-88 -4q-35 -2 -42.5 -7.5t-7.5 -16.5q0 -12 11 -32q19 -37 79 -120l289 -405l261 388q100 149 100 171q0 10 -7 14q-10 6 -56 8l-82 4v33q71 -4 179 -4q54 0 122 4v-33q-48 -2 -65.5 -11.5t-37.5 -36.5l-120 -175l-272 -395
v-676q0 -73 9 -85t44 -13l155 -2v-33q-177 5 -292 5q-208 0 -383 -5v33l139 2l22 1q29 0 37 9q9 10 9 42l1 63v587l-445 630q-27 38 -49 49.5t-65 10.5zM713 1497h-31l120 276q32 70 54.5 88.5t46.5 18.5t41.5 -16t17.5 -36t-14.5 -45.5t-100.5 -120.5q-24 -28 -134 -165z
" />
    <glyph glyph-name="Thorn" unicode="&#xde;" 
d="M33 -5v33l108 2q41 1 52 13t11 64v1268q0 28 -6.5 35t-32.5 8l-132 4v33q152 -4 321 -4q161 0 317 4v-33l-141 -5q-42 -1 -49 -3q-12 -3 -16.5 -11.5t-4.5 -37.5v-198l235 2q35 1 48 1q140 0 244.5 -48.5t156 -141.5t51.5 -208q0 -127 -64.5 -223t-188.5 -140t-393 -44
q-29 0 -89 1v-275q0 -40 10 -49.5t56 -10.5l142 -3v-33q-172 5 -327 5q-151 0 -308 -5zM460 1127v-685q0 -31 8 -38q12 -9 70 -9q93 0 185.5 38t147 124.5t54.5 211.5q0 119 -42.5 205t-110.5 122t-201 36q-50 0 -111 -5z" />
    <glyph glyph-name="germandbls" unicode="&#xdf;" horiz-adv-x="1100" 
d="M159 801l-88 7l5 19q57 14 77 33t30 69q29 151 55 221q36 97 91 161t128 100.5t159 36.5q89 0 169 -38.5t121.5 -109.5t41.5 -158q0 -112 -73 -189.5t-219 -96.5v-7q186 -32 277 -139t91 -288q0 -219 -105.5 -329t-229.5 -110q-79 0 -133 50.5t-54 114.5q0 53 33 93
q24 29 56 29q25 0 43 -20t18 -55q0 -14 -4 -27t-21 -46q-23 -46 -23 -62q0 -17 14 -29t38 -12q52 0 93 63q64 100 64 306q0 105 -16 181.5t-49 127.5q-24 38 -58 62.5t-87 38.5t-148 15v28q56 0 115 13t93 42.5t60 97.5t26 153q0 86 -26 150t-67 91t-83 27q-99 0 -156 -136
q-57 -137 -57 -547v-462q0 -193 8 -218q9 -26 54 -26h33v-31q-103 5 -168 5q-140 0 -254 -5v31h62q38 0 48 10q15 15 15 68l1 158v539z" />
    <glyph glyph-name="agrave" unicode="&#xe0;" horiz-adv-x="948" 
d="M944 71v-38q-81 -50 -177 -50q-50 0 -88 16t-81 55q-81 -71 -216 -71q-92 0 -165.5 30t-107 83t-33.5 120q0 105 84.5 174.5t264.5 69.5q50 0 86 -6q27 -5 72 -20v142q0 120 -31 167q-43 65 -135 65q-47 0 -89.5 -19.5t-61 -47t-29.5 -86.5q-7 -38 -22.5 -52.5
t-38.5 -14.5q-24 0 -39.5 15.5t-15.5 39.5q0 62 74 116q106 78 264 78q111 0 188 -32.5t102.5 -76.5t25.5 -128v-474q0 -54 18.5 -76t49.5 -22q22 0 50 11.5t51 31.5zM583 85v172q0 107 -3 119q-5 22 -23 33q-31 18 -80 18q-87 0 -141 -53t-54 -143q0 -97 50 -150t129 -53
q36 0 63 12.5t59 44.5zM557 924h-31q-102 128 -159.5 194.5t-66.5 78.5q-13 17 -18 31t-5 27q0 20 17.5 36t42.5 16q22 0 43.5 -17t54.5 -85q21 -45 122 -281z" />
    <glyph glyph-name="aacute" unicode="&#xe1;" horiz-adv-x="948" 
d="M944 71v-38q-81 -50 -177 -50q-50 0 -88 16t-81 55q-81 -71 -216 -71q-92 0 -165.5 30t-107 83t-33.5 120q0 105 84.5 174.5t264.5 69.5q50 0 86 -6q27 -5 72 -20v142q0 120 -31 167q-43 65 -135 65q-47 0 -89.5 -19.5t-61 -47t-29.5 -86.5q-7 -38 -22.5 -52.5
t-38.5 -14.5q-24 0 -39.5 15.5t-15.5 39.5q0 62 74 116q106 78 264 78q111 0 188 -32.5t102.5 -76.5t25.5 -128v-474q0 -54 18.5 -76t49.5 -22q22 0 50 11.5t51 31.5zM583 85v172q0 107 -3 119q-5 22 -23 33q-31 18 -80 18q-87 0 -141 -53t-54 -143q0 -97 50 -150t129 -53
q36 0 63 12.5t59 44.5zM429 924h-31l120 276q32 70 54.5 88.5t46.5 18.5t41.5 -16t17.5 -36t-14.5 -45.5t-100.5 -120.5q-24 -28 -134 -165z" />
    <glyph glyph-name="acircumflex" unicode="&#xe2;" horiz-adv-x="948" 
d="M944 71v-38q-81 -50 -177 -50q-50 0 -88 16t-81 55q-81 -71 -216 -71q-92 0 -165.5 30t-107 83t-33.5 120q0 105 84.5 174.5t264.5 69.5q50 0 86 -6q27 -5 72 -20v142q0 120 -31 167q-43 65 -135 65q-47 0 -89.5 -19.5t-61 -47t-29.5 -86.5q-7 -38 -22.5 -52.5
t-38.5 -14.5q-24 0 -39.5 15.5t-15.5 39.5q0 62 74 116q106 78 264 78q111 0 188 -32.5t102.5 -76.5t25.5 -128v-474q0 -54 18.5 -76t49.5 -22q22 0 50 11.5t51 31.5zM583 85v172q0 107 -3 119q-5 22 -23 33q-31 18 -80 18q-87 0 -141 -53t-54 -143q0 -97 50 -150t129 -53
q36 0 63 12.5t59 44.5zM464 1358h36q70 -156 122 -252t113 -186h-43l-148 168q-28 33 -63 78q-108 -128 -216 -242h-40q88 128 239 434z" />
    <glyph glyph-name="atilde" unicode="&#xe3;" horiz-adv-x="948" 
d="M944 71v-38q-81 -50 -177 -50q-50 0 -88 16t-81 55q-81 -71 -216 -71q-92 0 -165.5 30t-107 83t-33.5 120q0 105 84.5 174.5t264.5 69.5q50 0 86 -6q27 -5 72 -20v142q0 120 -31 167q-43 65 -135 65q-47 0 -89.5 -19.5t-61 -47t-29.5 -86.5q-7 -38 -22.5 -52.5
t-38.5 -14.5q-24 0 -39.5 15.5t-15.5 39.5q0 62 74 116q106 78 264 78q111 0 188 -32.5t102.5 -76.5t25.5 -128v-474q0 -54 18.5 -76t49.5 -22q22 0 50 11.5t51 31.5zM583 85v172q0 107 -3 119q-5 22 -23 33q-31 18 -80 18q-87 0 -141 -53t-54 -143q0 -97 50 -150t129 -53
q36 0 63 12.5t59 44.5zM739 1268l33 -12q-48 -128 -91 -167t-89 -39q-32 0 -63 12t-124 69q-49 30 -77 30q-27 0 -45 -16q-26 -23 -61 -95l-28 12q49 133 94 174q35 32 81 32q31 0 64.5 -13t95.5 -54.5t95 -41.5q32 0 61 23t54 86z" />
    <glyph glyph-name="adieresis" unicode="&#xe4;" horiz-adv-x="948" 
d="M944 71v-38q-81 -50 -177 -50q-50 0 -88 16t-81 55q-81 -71 -216 -71q-92 0 -165.5 30t-107 83t-33.5 120q0 105 84.5 174.5t264.5 69.5q50 0 86 -6q27 -5 72 -20v142q0 120 -31 167q-43 65 -135 65q-47 0 -89.5 -19.5t-61 -47t-29.5 -86.5q-7 -38 -22.5 -52.5
t-38.5 -14.5q-24 0 -39.5 15.5t-15.5 39.5q0 62 74 116q106 78 264 78q111 0 188 -32.5t102.5 -76.5t25.5 -128v-474q0 -54 18.5 -76t49.5 -22q22 0 50 11.5t51 31.5zM583 85v172q0 107 -3 119q-5 22 -23 33q-31 18 -80 18q-87 0 -141 -53t-54 -143q0 -97 50 -150t129 -53
q36 0 63 12.5t59 44.5zM673 1067q-38 0 -65 27t-27 65t27 65.5t65 27.5t65.5 -27.5t27.5 -65.5t-27 -65t-66 -27zM291 1067q-38 0 -65 27t-27 65t27 65.5t65 27.5q39 0 66 -27.5t27 -65.5t-27 -65t-66 -27z" />
    <glyph glyph-name="aring" unicode="&#xe5;" horiz-adv-x="948" 
d="M944 71v-38q-81 -50 -177 -50q-50 0 -88 16t-81 55q-81 -71 -216 -71q-92 0 -165.5 30t-107 83t-33.5 120q0 105 84.5 174.5t264.5 69.5q50 0 86 -6q27 -5 72 -20v142q0 120 -31 167q-43 65 -135 65q-47 0 -89.5 -19.5t-61 -47t-29.5 -86.5q-7 -38 -22.5 -52.5
t-38.5 -14.5q-24 0 -39.5 15.5t-15.5 39.5q0 62 74 116q106 78 264 78q111 0 188 -32.5t102.5 -76.5t25.5 -128v-474q0 -54 18.5 -76t49.5 -22q22 0 50 11.5t51 31.5zM583 85v172q0 107 -3 119q-5 22 -23 33q-31 18 -80 18q-87 0 -141 -53t-54 -143q0 -97 50 -150t129 -53
q36 0 63 12.5t59 44.5zM474 950q-82 0 -139.5 58t-57.5 139q0 82 57.5 139.5t139.5 57.5q81 0 138.5 -57.5t57.5 -139.5q0 -81 -57 -139t-139 -58zM474 1005q59 0 100.5 41.5t41.5 100.5t-41.5 100.5t-100.5 41.5t-100.5 -41.5t-41.5 -100.5t41.5 -100.5t100.5 -41.5z" />
    <glyph glyph-name="ae" unicode="&#xe6;" horiz-adv-x="1403" 
d="M1342 242v-93q-146 -170 -361 -170q-122 0 -224 48q-74 35 -146 108q-40 -76 -110.5 -116t-162.5 -40q-124 0 -195.5 67t-71.5 169q0 115 98 186q142 104 421 104q1 21 1 33q0 124 -16 173t-55.5 74.5t-99.5 25.5q-52 0 -96.5 -19.5t-63 -45t-26 -74.5t-16.5 -63
q-16 -21 -47 -21q-25 0 -41 17t-16 42q0 35 27 71q37 49 121.5 86t184.5 37q84 0 160.5 -24t129.5 -73q106 100 254 100q97 0 175.5 -37.5t118 -88t55.5 -113.5q12 -47 16 -131h-579q0 -174 24 -263t87.5 -142t150.5 -53q93 0 171 56.5t122 169.5h10zM777 514h290
q66 0 79 11q14 11 14 52q0 113 -54 177t-126 64q-51 0 -102 -33t-75.5 -97t-25.5 -174zM590 474q-119 -7 -181 -29q-63 -23 -100 -75.5t-37 -132.5q0 -95 46 -148.5t111 -53.5q49 0 89 28.5t58 77.5q14 37 14 115v218z" />
    <glyph glyph-name="ccedilla" unicode="&#xe7;" horiz-adv-x="910" 
d="M868 230v-102q-78 -76 -158.5 -113t-180.5 -36l-67 -105q39 12 74 12q81 0 122.5 -36.5t41.5 -93.5q0 -69 -53.5 -116.5t-148.5 -47.5q-83 0 -149 38v55l11 2q18 -29 39.5 -42t54.5 -13q50 0 81.5 32t31.5 83q0 44 -24.5 69t-69.5 25q-24 0 -49 -9l-9 14l83 134
q-159 12 -287 117.5t-128 295.5q0 217 175 348q132 98 296 98q119 0 218.5 -55.5t99.5 -125.5q0 -28 -14.5 -44.5t-38.5 -16.5q-26 0 -44 15t-41 65q-31 66 -66 92q-54 42 -121 42q-118 0 -186.5 -105t-68.5 -282q0 -130 38 -225.5t103.5 -137.5t141.5 -42q60 0 122 27
t99 70.5t62 113.5h10z" />
    <glyph glyph-name="egrave" unicode="&#xe8;" horiz-adv-x="948" 
d="M889 500h-589q-4 -54 -4 -80q0 -220 75 -312t196 -92q96 0 178 60t123 166h9v-97q-111 -100 -185.5 -132t-178.5 -32q-197 0 -313.5 115.5t-116.5 306.5q0 132 59 230t166 152t221 54q93 0 166 -33t114.5 -78t58.5 -95t21 -133zM304 536h203q154 0 174 10q12 7 12 32
q0 60 -18.5 115.5t-63.5 86.5t-101 31q-60 0 -107.5 -34.5t-69 -89.5t-29.5 -151zM592 924h-31q-102 128 -159.5 194.5t-66.5 78.5q-13 17 -18 31t-5 27q0 20 17.5 36t42.5 16q22 0 43.5 -17t54.5 -85q21 -45 122 -281z" />
    <glyph glyph-name="eacute" unicode="&#xe9;" horiz-adv-x="948" 
d="M889 500h-589q-4 -54 -4 -80q0 -220 75 -312t196 -92q96 0 178 60t123 166h9v-97q-111 -100 -185.5 -132t-178.5 -32q-197 0 -313.5 115.5t-116.5 306.5q0 132 59 230t166 152t221 54q93 0 166 -33t114.5 -78t58.5 -95t21 -133zM304 536h203q154 0 174 10q12 7 12 32
q0 60 -18.5 115.5t-63.5 86.5t-101 31q-60 0 -107.5 -34.5t-69 -89.5t-29.5 -151zM464 924h-31l120 276q32 70 54.5 88.5t46.5 18.5t41.5 -16t17.5 -36t-14.5 -45.5t-100.5 -120.5q-24 -28 -134 -165z" />
    <glyph glyph-name="ecircumflex" unicode="&#xea;" horiz-adv-x="948" 
d="M889 500h-589q-4 -54 -4 -80q0 -220 75 -312t196 -92q96 0 178 60t123 166h9v-97q-111 -100 -185.5 -132t-178.5 -32q-197 0 -313.5 115.5t-116.5 306.5q0 132 59 230t166 152t221 54q93 0 166 -33t114.5 -78t58.5 -95t21 -133zM304 536h203q154 0 174 10q12 7 12 32
q0 60 -18.5 115.5t-63.5 86.5t-101 31q-60 0 -107.5 -34.5t-69 -89.5t-29.5 -151zM499 1358h36q70 -156 122 -252t113 -186h-43l-148 168q-28 33 -63 78q-108 -128 -216 -242h-40q88 128 239 434z" />
    <glyph glyph-name="edieresis" unicode="&#xeb;" horiz-adv-x="948" 
d="M889 500h-589q-4 -54 -4 -80q0 -220 75 -312t196 -92q96 0 178 60t123 166h9v-97q-111 -100 -185.5 -132t-178.5 -32q-197 0 -313.5 115.5t-116.5 306.5q0 132 59 230t166 152t221 54q93 0 166 -33t114.5 -78t58.5 -95t21 -133zM304 536h203q154 0 174 10q12 7 12 32
q0 60 -18.5 115.5t-63.5 86.5t-101 31q-60 0 -107.5 -34.5t-69 -89.5t-29.5 -151zM708 1067q-38 0 -65 27t-27 65t27 65.5t65 27.5t65.5 -27.5t27.5 -65.5t-27 -65t-66 -27zM326 1067q-38 0 -65 27t-27 65t27 65.5t65 27.5q39 0 66 -27.5t27 -65.5t-27 -65t-66 -27z" />
    <glyph glyph-name="igrave" unicode="&#xec;" horiz-adv-x="493" 
d="M38 794v31q80 -15 140 -15q98 0 185 27q-14 -214 -14 -426q0 -248 6 -331q2 -35 13.5 -44.5t51.5 -9.5h54v-31q-116 5 -209 5q-124 0 -241 -5v31h62q44 0 52.5 11t8.5 74v553q0 81 -11 106q-5 12 -18 16q-9 3 -80 8zM331 924h-31q-102 128 -159.5 194.5t-66.5 78.5
q-13 17 -18 31t-5 27q0 20 17.5 36t42.5 16q22 0 43.5 -17t54.5 -85q21 -45 122 -281z" />
    <glyph glyph-name="iacute" unicode="&#xed;" horiz-adv-x="493" 
d="M38 794v31q80 -15 140 -15q98 0 185 27q-14 -214 -14 -426q0 -248 6 -331q2 -35 13.5 -44.5t51.5 -9.5h54v-31q-116 5 -209 5q-124 0 -241 -5v31h62q44 0 52.5 11t8.5 74v553q0 81 -11 106q-5 12 -18 16q-9 3 -80 8zM202 924h-31l120 276q32 70 54.5 88.5t46.5 18.5
t41.5 -16t17.5 -36t-14.5 -45.5t-100.5 -120.5q-24 -28 -134 -165z" />
    <glyph glyph-name="icircumflex" unicode="&#xee;" horiz-adv-x="493" 
d="M38 794v31q80 -15 140 -15q98 0 185 27q-14 -214 -14 -426q0 -248 6 -331q2 -35 13.5 -44.5t51.5 -9.5h54v-31q-116 5 -209 5q-124 0 -241 -5v31h62q44 0 52.5 11t8.5 74v553q0 81 -11 106q-5 12 -18 16q-9 3 -80 8zM237 1358h36q70 -156 122 -252t113 -186h-43l-148 168
q-28 33 -63 78q-108 -128 -216 -242h-40q88 128 239 434z" />
    <glyph glyph-name="idieresis" unicode="&#xef;" horiz-adv-x="493" 
d="M38 794v31q80 -15 140 -15q98 0 185 27q-14 -214 -14 -426q0 -248 6 -331q2 -35 13.5 -44.5t51.5 -9.5h54v-31q-116 5 -209 5q-124 0 -241 -5v31h62q44 0 52.5 11t8.5 74v553q0 81 -11 106q-5 12 -18 16q-9 3 -80 8zM446 1067q-38 0 -65 27t-27 65t27 65.5t65 27.5
t65.5 -27.5t27.5 -65.5t-27 -65t-66 -27zM64 1067q-38 0 -65 27t-27 65t27 65.5t65 27.5q39 0 66 -27.5t27 -65.5t-27 -65t-66 -27z" />
    <glyph glyph-name="eth" unicode="&#xf0;" horiz-adv-x="1064" 
d="M223 1153l259 135q-83 79 -265 155l16 22q181 -56 312 -143l245 125l22 -25l-235 -121q113 -86 182 -170q106 -127 162.5 -275.5t56.5 -330.5q0 -185 -55.5 -299.5t-162.5 -180.5t-239 -66q-187 0 -312 123t-125 302q0 120 54.5 222t151 155.5t199.5 53.5q95 0 168 -44
q51 -32 96 -100q-14 132 -45 234t-88 196q-43 69 -115 142l-262 -136zM539 7q110 0 170 107t60 296q0 138 -34.5 228.5t-89.5 129t-118 38.5q-62 0 -117.5 -37.5t-85 -114.5t-29.5 -215q0 -104 17 -197q10 -60 31 -104t46 -69.5t65 -43.5t85 -18z" />
    <glyph glyph-name="ntilde" unicode="&#xf1;" horiz-adv-x="1062" 
d="M47 794v31q62 -15 135 -15q48 0 98 8.5t78 18.5l9 -7q-13 -38 -12 -102q67 57 132 83q66 26 149 26q96 0 164.5 -33.5t96.5 -83.5t28 -134l-6 -253l1 -64v-196q0 -29 9.5 -38t49.5 -9h47v-31q-110 5 -200 5q-118 0 -229 -5v31h45q52 0 65 15.5t13 93.5v322q0 135 -12 196
t-53 96.5t-105 35.5q-48 0 -95 -25.5t-100 -86.5v-594q0 -32 11 -42.5t49 -10.5h47v-31q-114 5 -170 5q-147 0 -259 -5v31h55q53 0 63 19q12 24 12 341q0 143 -4 306q-2 67 -6 75.5t-12 13.5q-16 9 -94 13zM796 1268l33 -12q-48 -128 -91 -167t-89 -39q-32 0 -63 12t-124 69
q-49 30 -77 30q-27 0 -45 -16q-26 -23 -61 -95l-28 12q49 133 94 174q35 32 81 32q31 0 64.5 -13t95.5 -54.5t95 -41.5q32 0 61 23t54 86z" />
    <glyph glyph-name="ograve" unicode="&#xf2;" horiz-adv-x="1062" 
d="M536 837q93 0 197 -39.5t174 -138t70 -248.5q0 -136 -58.5 -229t-171.5 -148t-229 -55q-158 0 -279 95q-156 124 -156 332q0 124 60 226t165.5 153.5t227.5 51.5zM538 7q110 0 170 107t60 291q0 138 -35 235.5t-90 135t-114 37.5q-63 0 -119.5 -40t-86 -115t-29.5 -222
q0 -92 14 -178t44.5 -139t78.5 -82.5t107 -29.5zM614 924h-31q-102 128 -159.5 194.5t-66.5 78.5q-13 17 -18 31t-5 27q0 20 17.5 36t42.5 16q22 0 43.5 -17t54.5 -85q21 -45 122 -281z" />
    <glyph glyph-name="oacute" unicode="&#xf3;" horiz-adv-x="1062" 
d="M536 837q93 0 197 -39.5t174 -138t70 -248.5q0 -136 -58.5 -229t-171.5 -148t-229 -55q-158 0 -279 95q-156 124 -156 332q0 124 60 226t165.5 153.5t227.5 51.5zM538 7q110 0 170 107t60 291q0 138 -35 235.5t-90 135t-114 37.5q-63 0 -119.5 -40t-86 -115t-29.5 -222
q0 -92 14 -178t44.5 -139t78.5 -82.5t107 -29.5zM486 924h-31l120 276q32 70 54.5 88.5t46.5 18.5t41.5 -16t17.5 -36t-14.5 -45.5t-100.5 -120.5q-24 -28 -134 -165z" />
    <glyph glyph-name="ocircumflex" unicode="&#xf4;" horiz-adv-x="1062" 
d="M536 837q93 0 197 -39.5t174 -138t70 -248.5q0 -136 -58.5 -229t-171.5 -148t-229 -55q-158 0 -279 95q-156 124 -156 332q0 124 60 226t165.5 153.5t227.5 51.5zM538 7q110 0 170 107t60 291q0 138 -35 235.5t-90 135t-114 37.5q-63 0 -119.5 -40t-86 -115t-29.5 -222
q0 -92 14 -178t44.5 -139t78.5 -82.5t107 -29.5zM521 1358h36q70 -156 122 -252t113 -186h-43l-148 168q-28 33 -63 78q-108 -128 -216 -242h-40q88 128 239 434z" />
    <glyph glyph-name="otilde" unicode="&#xf5;" horiz-adv-x="1062" 
d="M536 837q93 0 197 -39.5t174 -138t70 -248.5q0 -136 -58.5 -229t-171.5 -148t-229 -55q-158 0 -279 95q-156 124 -156 332q0 124 60 226t165.5 153.5t227.5 51.5zM538 7q110 0 170 107t60 291q0 138 -35 235.5t-90 135t-114 37.5q-63 0 -119.5 -40t-86 -115t-29.5 -222
q0 -92 14 -178t44.5 -139t78.5 -82.5t107 -29.5zM796 1268l33 -12q-48 -128 -91 -167t-89 -39q-32 0 -63 12t-124 69q-49 30 -77 30q-27 0 -45 -16q-26 -23 -61 -95l-28 12q49 133 94 174q35 32 81 32q31 0 64.5 -13t95.5 -54.5t95 -41.5q32 0 61 23t54 86z" />
    <glyph glyph-name="odieresis" unicode="&#xf6;" horiz-adv-x="1062" 
d="M536 837q93 0 197 -39.5t174 -138t70 -248.5q0 -136 -58.5 -229t-171.5 -148t-229 -55q-158 0 -279 95q-156 124 -156 332q0 124 60 226t165.5 153.5t227.5 51.5zM538 7q110 0 170 107t60 291q0 138 -35 235.5t-90 135t-114 37.5q-63 0 -119.5 -40t-86 -115t-29.5 -222
q0 -92 14 -178t44.5 -139t78.5 -82.5t107 -29.5zM730 1067q-38 0 -65 27t-27 65t27 65.5t65 27.5t65.5 -27.5t27.5 -65.5t-27 -65t-66 -27zM348 1067q-38 0 -65 27t-27 65t27 65.5t65 27.5q39 0 66 -27.5t27 -65.5t-27 -65t-66 -27z" />
    <glyph glyph-name="divide" unicode="&#xf7;" 
d="M607 952q40 0 68 -28t28 -68t-28 -68t-68 -28t-68 28t-28 68t28 68t68 28zM98 443v99h1018v-99h-1018zM607 225q40 0 68 -28t28 -68t-28 -68t-68 -28t-68 28t-28 68t28 68t68 28z" />
    <glyph glyph-name="oslash" unicode="&#xf8;" horiz-adv-x="1062" 
d="M817 751l98 105h62l-125 -134q60 -58 92.5 -132.5t32.5 -178.5q0 -135 -58 -228t-171 -148.5t-230 -55.5q-153 0 -275 92l-96 -102h-61l123 132q-67 70 -90 125q-36 83 -36 181q0 120 57 219.5t162.5 155t227.5 55.5q160 0 287 -86zM728 655q-35 84 -86 121t-113 37
q-63 0 -119.5 -40t-86 -115t-29.5 -224q0 -107 22 -219zM331 165q30 -75 70 -108q59 -50 138 -50q110 0 169.5 107.5t59.5 289.5q0 106 -24 202z" />
    <glyph glyph-name="ugrave" unicode="&#xf9;" horiz-adv-x="1062" 
d="M19 794v31q84 -5 182 -5q79 0 155 5q-10 -132 -10 -183v-182q0 -166 15 -244q16 -78 58 -115t94 -37q47 0 102.5 35.5t105.5 106.5q4 114 4 360q0 204 -6 216q-7 12 -58 12h-64v31q83 -5 219 -5q35 0 116 5q-5 -47 -8 -156q-5 -201 -5 -323q0 -29 4 -190q1 -76 3 -86
q3 -10 8 -14q10 -8 33 -10l62 -6v-31q-80 8 -133 8q-97 0 -194 -29l-5 26q19 8 23.5 19.5t4.5 61.5v71q-127 -180 -312 -180q-82 0 -141 36.5t-91 95.5q-24 46 -30 104q-4 40 -4 197q0 224 -10 318q-4 37 -14 47t-49 10h-55zM614 924h-31q-102 128 -159.5 194.5t-66.5 78.5
q-13 17 -18 31t-5 27q0 20 17.5 36t42.5 16q22 0 43.5 -17t54.5 -85q21 -45 122 -281z" />
    <glyph glyph-name="uacute" unicode="&#xfa;" horiz-adv-x="1062" 
d="M19 794v31q84 -5 182 -5q79 0 155 5q-10 -132 -10 -183v-182q0 -166 15 -244q16 -78 58 -115t94 -37q47 0 102.5 35.5t105.5 106.5q4 114 4 360q0 204 -6 216q-7 12 -58 12h-64v31q83 -5 219 -5q35 0 116 5q-5 -47 -8 -156q-5 -201 -5 -323q0 -29 4 -190q1 -76 3 -86
q3 -10 8 -14q10 -8 33 -10l62 -6v-31q-80 8 -133 8q-97 0 -194 -29l-5 26q19 8 23.5 19.5t4.5 61.5v71q-127 -180 -312 -180q-82 0 -141 36.5t-91 95.5q-24 46 -30 104q-4 40 -4 197q0 224 -10 318q-4 37 -14 47t-49 10h-55zM486 924h-31l120 276q32 70 54.5 88.5t46.5 18.5
t41.5 -16t17.5 -36t-14.5 -45.5t-100.5 -120.5q-24 -28 -134 -165z" />
    <glyph glyph-name="ucircumflex" unicode="&#xfb;" horiz-adv-x="1062" 
d="M19 794v31q84 -5 182 -5q79 0 155 5q-10 -132 -10 -183v-182q0 -166 15 -244q16 -78 58 -115t94 -37q47 0 102.5 35.5t105.5 106.5q4 114 4 360q0 204 -6 216q-7 12 -58 12h-64v31q83 -5 219 -5q35 0 116 5q-5 -47 -8 -156q-5 -201 -5 -323q0 -29 4 -190q1 -76 3 -86
q3 -10 8 -14q10 -8 33 -10l62 -6v-31q-80 8 -133 8q-97 0 -194 -29l-5 26q19 8 23.5 19.5t4.5 61.5v71q-127 -180 -312 -180q-82 0 -141 36.5t-91 95.5q-24 46 -30 104q-4 40 -4 197q0 224 -10 318q-4 37 -14 47t-49 10h-55zM521 1358h36q70 -156 122 -252t113 -186h-43
l-148 168q-28 33 -63 78q-108 -128 -216 -242h-40q88 128 239 434z" />
    <glyph glyph-name="udieresis" unicode="&#xfc;" horiz-adv-x="1062" 
d="M19 794v31q84 -5 182 -5q79 0 155 5q-10 -132 -10 -183v-182q0 -166 15 -244q16 -78 58 -115t94 -37q47 0 102.5 35.5t105.5 106.5q4 114 4 360q0 204 -6 216q-7 12 -58 12h-64v31q83 -5 219 -5q35 0 116 5q-5 -47 -8 -156q-5 -201 -5 -323q0 -29 4 -190q1 -76 3 -86
q3 -10 8 -14q10 -8 33 -10l62 -6v-31q-80 8 -133 8q-97 0 -194 -29l-5 26q19 8 23.5 19.5t4.5 61.5v71q-127 -180 -312 -180q-82 0 -141 36.5t-91 95.5q-24 46 -30 104q-4 40 -4 197q0 224 -10 318q-4 37 -14 47t-49 10h-55zM730 1067q-38 0 -65 27t-27 65t27 65.5t65 27.5
t65.5 -27.5t27.5 -65.5t-27 -65t-66 -27zM348 1067q-38 0 -65 27t-27 65t27 65.5t65 27.5q39 0 66 -27.5t27 -65.5t-27 -65t-66 -27z" />
    <glyph glyph-name="yacute" unicode="&#xfd;" horiz-adv-x="872" 
d="M415 2l-287 669q-40 94 -51 110q-7 10 -18.5 14t-53.5 4v31q93 -5 202 -5q95 0 192 5v-31h-36q-38 0 -49 -7q-8 -5 -8 -15q0 -20 38 -109l183 -426l151 341q76 171 76 193q0 11 -9 17t-45 6h-38v31q53 -5 119 -5q45 0 87 5v-31h-19q-13 0 -22 -4.5t-15 -12.5
q-13 -15 -49 -96q-25 -55 -59 -126q-34 -72 -110 -255q-153 -364 -221 -501t-107 -187t-81 -73t-81 -23q-44 0 -75 28.5t-31 62.5q0 32 24 56t56 24q30 0 49.5 -20.5t19.5 -53.5q0 -23 -19 -46q-7 -8 -7 -12q0 -2 1 -3t4 -1q39 0 88 52q78 84 201 394zM391 929h-31l120 276
q32 70 54.5 88.5t46.5 18.5t41.5 -16t17.5 -36t-14.5 -45.5t-100.5 -120.5q-24 -28 -134 -165z" />
    <glyph glyph-name="thorn" unicode="&#xfe;" horiz-adv-x="1062" 
d="M28 -469v30h47q54 0 64 10q12 12 12 59v1686q0 67 -4 80q-5 13 -18 18q-14 6 -82 11v30q83 -4 165 -4q77 0 150 4l-7 -419l-2 -278q110 79 235 79q100 0 195 -52.5t146.5 -150t51.5 -218.5q0 -165 -93 -283q-116 -148 -319 -148q-62 0 -109 13q-48 14 -112 49l2 -388
q1 -63 4 -74q4 -12 15 -18q12 -6 52 -6h53v-30q-118 4 -220 4q-113 0 -226 -4zM350 90q71 -64 154 -64q71 0 133 38t97.5 122t35.5 197t-39 211t-100.5 142t-127.5 44q-36 0 -70 -12q-35 -13 -83 -45v-633z" />
    <glyph glyph-name="ydieresis" unicode="&#xff;" horiz-adv-x="872" 
d="M415 2l-287 669q-40 94 -51 110q-7 10 -18.5 14t-53.5 4v31q93 -5 202 -5q95 0 192 5v-31h-36q-38 0 -49 -7q-8 -5 -8 -15q0 -20 38 -109l183 -426l151 341q76 171 76 193q0 11 -9 17t-45 6h-38v31q53 -5 119 -5q45 0 87 5v-31h-19q-13 0 -22 -4.5t-15 -12.5
q-13 -15 -49 -96q-25 -55 -59 -126q-34 -72 -110 -255q-153 -364 -221 -501t-107 -187t-81 -73t-81 -23q-44 0 -75 28.5t-31 62.5q0 32 24 56t56 24q30 0 49.5 -20.5t19.5 -53.5q0 -23 -19 -46q-7 -8 -7 -12q0 -2 1 -3t4 -1q39 0 88 52q78 84 201 394zM654 1071
q-38 0 -65 27t-27 65t27 65.5t65 27.5t65.5 -27.5t27.5 -65.5t-27 -65t-66 -27zM272 1071q-38 0 -65 27t-27 65t27 65.5t65 27.5q39 0 66 -27.5t27 -65.5t-27 -65t-66 -27z" />
    <glyph glyph-name="Cacute" unicode="&#x106;" horiz-adv-x="1441" 
d="M1363 1029h-24q-22 199 -137 303t-311 104q-261 0 -393.5 -175.5t-132.5 -529.5q0 -344 118 -515q139 -202 409 -202q105 0 186.5 27.5t134 77.5t85.5 122q22 46 34 117h24q-14 -117 -14 -224q0 -36 2 -70q-115 -41 -243 -63q-128 -23 -222 -23q-208 0 -397 94.5
t-290.5 265.5t-101.5 387q0 199 88.5 356.5t251.5 261.5q201 127 435 127q118 0 339 -41q78 -14 116 -14q15 0 33 2q-2 -38 -2 -79q0 -132 12 -309zM829 1498h-31l120 276q32 70 54.5 88.5t46.5 18.5t41.5 -16t17.5 -36t-14.5 -45.5t-100.5 -120.5q-24 -28 -134 -165z" />
    <glyph glyph-name="cacute" unicode="&#x107;" horiz-adv-x="910" 
d="M858 230h10v-102q-77 -75 -157.5 -112t-179.5 -37q-95 0 -200.5 42.5t-176.5 137.5t-71 234q0 217 175 348q132 98 296 98q119 0 218.5 -55.5t99.5 -125.5q0 -28 -14.5 -44.5t-38.5 -16.5q-26 0 -44 15t-41 65q-31 66 -66 92q-54 42 -121 42q-118 0 -186.5 -105
t-68.5 -282q0 -130 38 -225.5t103.5 -137.5t141.5 -42q60 0 122 27t99 70.5t62 113.5zM493 924h-31l120 276q32 70 54.5 88.5t46.5 18.5t41.5 -16t17.5 -36t-14.5 -45.5t-100.5 -120.5q-24 -28 -134 -165z" />
    <glyph glyph-name="Ccaron" unicode="&#x10c;" horiz-adv-x="1441" 
d="M1363 1029h-24q-22 199 -137 303t-311 104q-261 0 -393.5 -175.5t-132.5 -529.5q0 -344 118 -515q139 -202 409 -202q105 0 186.5 27.5t134 77.5t85.5 122q22 46 34 117h24q-14 -117 -14 -224q0 -36 2 -70q-115 -41 -243 -63q-128 -23 -222 -23q-208 0 -397 94.5
t-290.5 265.5t-101.5 387q0 199 88.5 356.5t251.5 261.5q201 127 435 127q118 0 339 -41q78 -14 116 -14q15 0 33 2q-2 -38 -2 -79q0 -132 12 -309zM900 1524h-35q-70 155 -122.5 252.5t-112.5 186.5h43l149 -170q29 -34 62 -77q105 125 215 242h41q-92 -132 -240 -434z" />
    <glyph glyph-name="ccaron" unicode="&#x10d;" horiz-adv-x="910" 
d="M858 230h10v-102q-77 -75 -157.5 -112t-179.5 -37q-95 0 -200.5 42.5t-176.5 137.5t-71 234q0 217 175 348q132 98 296 98q119 0 218.5 -55.5t99.5 -125.5q0 -28 -14.5 -44.5t-38.5 -16.5q-26 0 -44 15t-41 65q-31 66 -66 92q-54 42 -121 42q-118 0 -186.5 -105
t-68.5 -282q0 -130 38 -225.5t103.5 -137.5t141.5 -42q60 0 122 27t99 70.5t62 113.5zM563 950h-35q-70 155 -122.5 252.5t-112.5 186.5h43l149 -170q29 -34 62 -77q105 125 215 242h41q-92 -132 -240 -434z" />
    <glyph glyph-name="dcroat" unicode="&#x111;" horiz-adv-x="1062" 
d="M481 1045v90h231q0 30 -4 158q-2 87 -9 105q-5 13 -14 19q-14 8 -59 8h-52v30q76 -4 169 -4q95 0 182 4q-6 -68 -11 -320h84v-90h-85l-2 -205l2 -391v-219q0 -99 13 -142q10 -33 29.5 -48.5t47.5 -15.5q26 0 55 14v-29q-50 -31 -121 -31q-60 0 -114 21.5t-90 66.5
q-60 -44 -122 -64.5t-142 -20.5q-180 0 -284 109t-104 307q0 201 126 322.5t345 121.5q50 0 90 -7q29 -5 70 -21v232h-231zM712 770q-63 38 -134 38q-112 0 -200.5 -103.5t-88.5 -277.5q0 -181 99 -299q78 -93 190 -93q51 0 83 16.5t41.5 39.5t9.5 87v592z" />
    <glyph glyph-name="Gbreve" unicode="&#x11e;" horiz-adv-x="1669" 
d="M1451 1043h-26q-13 102 -53 173q-56 97 -162.5 159t-252.5 62q-153 0 -276 -64q-95 -49 -162.5 -128t-103.5 -171q-55 -139 -55 -304q0 -187 67 -352q54 -133 133.5 -220.5t179.5 -135.5t228 -48q153 0 255 73v297q0 85 -6 95q-6 11 -34 12l-166 4v34q159 -5 346 -5
q142 0 285 5v-34l-136 -4q-21 -1 -25.5 -6t-4.5 -30v-313q-45 -7 -98 -34q-114 -55 -166 -76q-72 -28 -147 -43q-76 -16 -162 -16q-159 0 -317 54q-117 39 -204.5 98t-149.5 131.5t-99 169.5q-51 134 -51 286q0 193 74 338q57 110 158.5 201.5t229.5 146.5q173 74 376 74
q67 0 137 -8q52 -6 97 -17q3 0 157 -42l73 -20q18 -3 33 -3q8 0 21 2v-16l-1 -58q0 -108 8 -267zM656 1832h33q6 -72 67.5 -124t154.5 -52q57 0 109.5 22.5t78.5 58.5t36 92h35q-3 -112 -77.5 -185t-180.5 -73q-104 0 -175.5 69t-80.5 192z" />
    <glyph glyph-name="gbreve" unicode="&#x11f;" horiz-adv-x="948" 
d="M268 228q-92 39 -141 111.5t-49 169.5q0 165 136 259q107 73 248 73q71 0 132.5 -18t102.5 -50q50 44 78.5 57.5t55.5 13.5q41 0 67 -23.5t26 -54.5q0 -29 -17.5 -46.5t-46.5 -17.5q-46 0 -72 48q-15 28 -26 28q-15 0 -44 -22q102 -92 102 -234q0 -86 -27.5 -145
t-72.5 -98.5t-101 -60.5q-79 -31 -168 -31q-72 0 -141 22q-61 -14 -88 -41q-21 -19 -21 -43q0 -37 42 -50q31 -10 234 -12q164 -2 217.5 -9t87.5 -33t56 -75.5t22 -112.5q0 -125 -103 -205q-147 -114 -387 -114q-169 0 -234 48.5t-65 123.5q0 58 36 101.5t161 93.5
q-88 11 -134 53q-32 30 -32 83q0 58 35 105.5t131 105.5zM448 213q75 0 115 55q53 74 53 253q0 176 -49 245q-36 50 -108 50q-77 0 -118 -58q-60 -83 -60 -270q0 -154 53 -224q39 -51 114 -51zM308 -119q-29 -24 -51 -68t-22 -87q0 -77 53 -127t146 -50q80 0 168 31
q56 20 104 51q49 31 73 70.5t24 83.5q0 38 -20 61t-61 33q-29 7 -100 7l-275 -7q-9 0 -39 2zM225 1259h33q6 -72 67.5 -124t154.5 -52q57 0 109.5 22.5t78.5 58.5t36 92h35q-3 -112 -77.5 -185t-180.5 -73q-104 0 -175.5 69t-80.5 192z" />
    <glyph glyph-name="Idotaccent" unicode="&#x130;" horiz-adv-x="683" 
d="M43 1422v33q145 -4 303 -4q149 0 290 4v-33l-126 -4h-16q-12 -2 -16.5 -9.5t-6.5 -72.5q-4 -133 -4 -165v-901q0 -207 9 -226q5 -11 36 -12l124 -4v-33q-156 5 -259 5q-181 0 -334 -5v33l128 4q25 1 30.5 7t6.5 61l3 182v917q0 12 -2 148q-2 59 -6 64.5t-18 6.5z
M348 1639q-38 0 -65 27t-27 65t27 65.5t65 27.5q39 0 66 -27.5t27 -65.5t-27 -65t-66 -27z" />
    <glyph glyph-name="dotlessi" unicode="&#x131;" horiz-adv-x="493" 
d="M38 794v31q80 -15 140 -15q98 0 185 27q-14 -214 -14 -426q0 -248 6 -331q2 -35 13.5 -44.5t51.5 -9.5h54v-31q-116 5 -209 5q-124 0 -241 -5v31h62q44 0 52.5 11t8.5 74v553q0 81 -11 106q-5 12 -18 16q-9 3 -80 8z" />
    <glyph glyph-name="Lslash" unicode="&#x141;" horiz-adv-x="1176" 
d="M66 394v109l143 107v765q0 28 -6.5 35t-32.5 8l-132 4v33q152 -4 321 -4q161 0 317 4v-33l-141 -5q-42 -1 -49 -3q-12 -3 -16.5 -11.5t-4.5 -37.5v-562l329 248v-110l-329 -247v-647q153 -7 267 -7q149 0 225 34t110 95t40 170h26q-7 -101 -7 -206q0 -68 5 -138
q-122 10 -577 10l-516 -10v33l126 3q31 0 38 6.5t7 31.5v432z" />
    <glyph glyph-name="lslash" unicode="&#x142;" horiz-adv-x="493" 
d="M44 549v89l107 80l-4 487q-2 169 -6 191q-3 14 -10 20q-10 9 -50 9h-38v30q78 -4 164 -4q83 0 156 4q-6 -118 -8 -214q-3 -96 -5 -372l102 76v-89l-102 -77l-1 -129l2 -352v-112q-1 -113 3 -137q3 -13 11 -18q9 -5 55 -5h38v-31q-112 5 -199 5q-115 0 -235 -5v31h59
q40 0 51.5 11t13.5 58q2 33 2 214l2 217l-1 103z" />
    <glyph glyph-name="OE" unicode="&#x152;" horiz-adv-x="2048" 
d="M1882 1455v-275h-26q-5 79 -41 132.5t-105 76.5q-70 24 -210 24h-164v-591h188l35 1q24 0 31 9t7 55v137h38v-436h-38v133q0 47 -11 56q-9 8 -84 8h-166v-745h233q168 0 256 27q89 27 132 90t48 180h24l-5 -342q-373 10 -536 10q-174 0 -321 -5q-85 -4 -257 -16
q-69 -5 -99 -5q-180 0 -354.5 82t-269.5 250t-95 397q0 235 103 400.5t270 262t375 96.5q40 0 134 -7q125 -9 192 -9h543q80 0 173 4zM1085 1311q0 40 -8 52q-12 18 -67 39q-83 32 -173 32q-129 0 -242 -77.5t-175.5 -231t-62.5 -402.5q0 -167 31 -301q17 -72 43 -125
q38 -79 97 -144t144.5 -103t171.5 -38q62 0 120 17q58 18 98 48q17 12 21 24q2 9 2 70v1140z" />
    <glyph glyph-name="oe" unicode="&#x153;" horiz-adv-x="1593" 
d="M1524 242v-93q-72 -83 -158 -127t-194 -44q-212 0 -338 145q-56 -67 -138.5 -104.5t-178.5 -37.5q-117 0 -220 54.5t-158.5 153.5t-55.5 224q0 223 165 342q120 86 279 86q101 0 188 -36q66 -27 148 -101q131 138 311 138q101 0 181 -39q61 -30 101.5 -75.5t58.5 -95.5
t21 -132h-581q-4 -42 -4 -74q0 -203 56 -291q78 -121 212 -121q92 0 176.5 64t116.5 164h12zM959 538h236q117 0 133 10q12 7 12 41q0 65 -22.5 119t-66 80.5t-91.5 26.5q-51 0 -98 -32t-71 -88t-32 -157zM527 9q93 0 150 78q79 106 79 318q0 218 -83 331q-58 79 -151 79
q-95 0 -164 -89t-69 -290q0 -143 34 -245t89 -142t115 -40z" />
    <glyph glyph-name="Scedilla" unicode="&#x15e;" horiz-adv-x="1100" 
d="M960 1131h-27q-25 160 -114 236.5t-237 76.5q-136 0 -212.5 -69t-76.5 -169q0 -69 34 -128t102 -111q44 -33 181 -112q138 -79 184 -112q79 -56 122.5 -111t66 -119t22.5 -131q0 -162 -119.5 -278.5t-333.5 -129.5l-64 -100q38 12 74 12q81 0 122.5 -36.5t41.5 -93.5
q0 -69 -54 -116.5t-149 -47.5q-83 0 -149 38v55l11 2q19 -29 40.5 -42t53.5 -13q50 0 81.5 32t31.5 83q0 44 -24.5 69t-68.5 25q-25 0 -49 -9l-10 14l79 128q-48 0 -88 5q-40 6 -107 25q-108 29 -145.5 35t-77.5 6q1 187 -9 356h28q13 -188 119 -291t273 -103
q149 0 229.5 71.5t80.5 182.5q0 65 -26 116t-79 97q-42 35 -157 104q-181 109 -257 166q-76 58 -115 110t-58 107.5t-19 120.5q0 95 40 168.5t102.5 121t144.5 74.5q83 28 182 28q31 0 60 -2q19 -2 120 -20q74 -13 90 -15q26 -3 53 -3q26 0 57 5v-308z" />
    <glyph glyph-name="scedilla" unicode="&#x15f;" horiz-adv-x="721" 
d="M66 270h24q11 -123 80.5 -190.5t174.5 -67.5q93 0 138 38.5t45 101.5q0 51 -24 86.5t-74 61.5q-34 17 -130 47q-96 31 -127 49q-51 29 -78 72.5t-27 110.5q0 112 74 185t191 73q47 0 129 -11q83 -11 111 -11q16 0 43 3q-2 -33 -2 -59q0 -57 4 -166h-26q-19 93 -59 137
q-74 81 -194 81q-81 0 -127 -40t-46 -89q0 -30 18.5 -58.5t49.5 -44t146 -50t163.5 -67t76 -92t27.5 -132.5q0 -117 -72.5 -185.5t-214.5 -71.5l-69 -107q39 12 74 12q81 0 122.5 -36.5t41.5 -93.5q0 -69 -53.5 -116.5t-148.5 -47.5q-84 0 -150 38v55l11 2q19 -29 40.5 -42
t53.5 -13q50 0 82 32t32 83q0 44 -25 69t-69 25q-25 0 -49 -9l-9 14l83 135q-76 3 -155 23q-49 12 -101 20q2 64 2 89q0 81 -7 157z" />
    <glyph glyph-name="Scaron" unicode="&#x160;" horiz-adv-x="1100" 
d="M92 401h28q13 -188 119 -291t273 -103q149 0 229.5 71.5t80.5 182.5q0 65 -26 116t-79 97q-42 35 -157 104q-181 109 -257 166q-76 58 -115 110t-58 107.5t-19 120.5q0 95 40 168.5t102.5 121t144.5 74.5q83 28 182 28q31 0 60 -2q19 -2 120 -20q74 -13 90 -15
q26 -3 53 -3q26 0 57 5v-308h-27q-25 160 -114 236.5t-237 76.5q-136 0 -212.5 -69t-76.5 -169q0 -69 34 -128t102 -111q44 -33 181 -112q138 -79 184 -112q79 -56 122.5 -111t66 -119t22.5 -131q0 -170 -131 -289t-352 -119q-87 0 -198 30q-112 30 -147.5 35.5t-75.5 5.5
q1 187 -9 356zM594 1523h-35q-70 155 -122.5 252.5t-112.5 186.5h43l149 -170q29 -34 62 -77q105 125 215 242h41q-92 -132 -240 -434z" />
    <glyph glyph-name="scaron" unicode="&#x161;" horiz-adv-x="721" 
d="M66 270h24q11 -123 80.5 -190.5t174.5 -67.5q93 0 138 38.5t45 101.5q0 51 -24 86.5t-74 61.5q-34 17 -130 47q-96 31 -127 49q-51 29 -78 72.5t-27 110.5q0 112 74 185t191 73q47 0 129 -11q83 -11 111 -11q16 0 43 3q-2 -33 -2 -59q0 -57 4 -166h-26q-19 93 -59 137
q-74 81 -194 81q-81 0 -127 -40t-46 -89q0 -30 18.5 -58.5t49.5 -44t146 -50t163.5 -67t76 -92t27.5 -132.5q0 -119 -75 -188t-222 -69q-85 0 -178 23q-49 12 -101 20q2 64 2 89q0 81 -7 157zM385 950h-35q-70 155 -122.5 252.5t-112.5 186.5h43l149 -170q29 -34 62 -77
q105 125 215 242h41q-92 -132 -240 -434z" />
    <glyph glyph-name="Ydieresis" unicode="&#x178;" horiz-adv-x="1327" 
d="M5 1422v33q136 -4 291 -4q132 0 264 4v-33l-88 -4q-35 -2 -42.5 -7.5t-7.5 -16.5q0 -12 11 -32q19 -37 79 -120l289 -405l261 388q100 149 100 171q0 10 -7 14q-10 6 -56 8l-82 4v33q71 -4 179 -4q54 0 122 4v-33q-48 -2 -65.5 -11.5t-37.5 -36.5l-120 -175l-272 -395
v-676q0 -73 9 -85t44 -13l155 -2v-33q-177 5 -292 5q-208 0 -383 -5v33l139 2l22 1q29 0 37 9q9 10 9 42l1 63v587l-445 630q-27 38 -49 49.5t-65 10.5zM929 1639q-38 0 -65 27t-27 65t27 65.5t65 27.5t65.5 -27.5t27.5 -65.5t-27 -65t-66 -27zM547 1639q-38 0 -65 27
t-27 65t27 65.5t65 27.5q39 0 66 -27.5t27 -65.5t-27 -65t-66 -27z" />
    <glyph glyph-name="Zcaron" unicode="&#x17d;" 
d="M1119 320h28q-16 -160 -16 -325q-86 7 -193.5 10.5t-387.5 3.5q-277 0 -507 -14l-12 22l162 262q125 214 299 529l224 413q45 88 90 187q-115 5 -186 5q-234 0 -311 -14t-120 -51q-33 -28 -50 -75q-12 -34 -16 -97h-28q5 100 5 163q0 72 -3 116q338 -9 572 -9
q272 0 459 9l10 -14q-33 -49 -68 -108q-25 -42 -169 -300l-369 -671l-157 -312q110 -8 186 -8q256 0 327 9q71 10 119 42.5t72 78.5t40 148zM632 1523h-35q-70 155 -122.5 252.5t-112.5 186.5h43l149 -170q29 -34 62 -77q105 125 215 242h41q-92 -132 -240 -434z" />
    <glyph glyph-name="zcaron" unicode="&#x17e;" horiz-adv-x="796" 
d="M90 588h-28q8 88 12 237q174 -5 353 -5q260 0 351 5l-479 -789q67 -4 113 -4q106 0 163 21q58 21 99.5 79.5t51.5 161.5h26q-8 -135 -12 -299h-690l-7 26q59 75 105 144q73 109 219 353q100 167 148 262q-75 3 -126 3q-100 0 -154.5 -17.5t-91.5 -62t-53 -115.5zM443 950
h-35q-70 155 -122.5 252.5t-112.5 186.5h43l149 -170q29 -34 62 -77q105 125 215 242h41q-92 -132 -240 -434z" />
    <glyph glyph-name="florin" unicode="&#x192;" horiz-adv-x="1024" 
d="M626 827h258v-47h-267l-72 -486q-38 -260 -54 -334q-23 -102 -69.5 -168.5t-116.5 -103.5t-142 -37q-81 0 -132 43q-38 32 -38 86q0 43 22.5 67.5t55.5 24.5q30 0 50.5 -20t20.5 -45q0 -13 -10.5 -39.5t-10.5 -39.5q0 -20 16.5 -34t45.5 -14q25 0 51.5 15t49 50t36 105
t33.5 244l24 237l52 449h-232v47h239q30 204 63.5 314t90.5 179.5t131.5 110.5t148.5 41q58 0 110 -23.5t75.5 -59t23.5 -69.5q0 -32 -23 -55t-57 -23q-39 0 -58 31q-11 20 -16 83q-3 38 -25.5 58t-62.5 20q-67 0 -104 -65t-62 -236z" />
    <glyph glyph-name="circumflex" unicode="&#x2c6;" horiz-adv-x="569" 
d="M275 1358h36q70 -156 122 -252t113 -186h-43l-148 168q-28 33 -63 78q-108 -128 -216 -242h-40q88 128 239 434z" />
    <glyph glyph-name="caron" unicode="&#x2c7;" horiz-adv-x="569" 
d="M310 950h-35q-70 155 -122.5 252.5t-112.5 186.5h43l149 -170q29 -34 62 -77q105 125 215 242h41q-92 -132 -240 -434z" />
    <glyph glyph-name="breve" unicode="&#x2d8;" horiz-adv-x="569" 
d="M36 1259h33q6 -72 67.5 -124t154.5 -52q57 0 109.5 22.5t78.5 58.5t36 92h35q-3 -112 -77.5 -185t-180.5 -73q-104 0 -175.5 69t-80.5 192z" />
    <glyph glyph-name="dotaccent" unicode="&#x2d9;" horiz-adv-x="569" 
d="M294 1067q-38 0 -65 27t-27 65t27 65.5t65 27.5q39 0 66 -27.5t27 -65.5t-27 -65t-66 -27z" />
    <glyph glyph-name="ring" unicode="&#x2da;" horiz-adv-x="569" 
d="M285 950q-82 0 -139.5 58t-57.5 139q0 82 57.5 139.5t139.5 57.5q81 0 138.5 -57.5t57.5 -139.5q0 -81 -57 -139t-139 -58zM285 1005q59 0 100.5 41.5t41.5 100.5t-41.5 100.5t-100.5 41.5t-100.5 -41.5t-41.5 -100.5t41.5 -100.5t100.5 -41.5z" />
    <glyph glyph-name="ogonek" unicode="&#x2db;" horiz-adv-x="455" 
d="M624 -265v-39q-139 -103 -243 -103q-72 0 -114 38.5t-42 94.5q0 33 18 69q25 51 83 113q17 18 129 116l126 81q-153 -147 -186.5 -200.5t-33.5 -102.5q0 -55 34 -89t90 -34q57 0 139 56z" />
    <glyph glyph-name="tilde" unicode="&#x2dc;" horiz-adv-x="569" 
d="M550 1268l33 -12q-48 -128 -91 -167t-89 -39q-32 0 -63 12t-124 69q-49 30 -77 30q-27 0 -45 -16q-26 -23 -61 -95l-28 12q49 133 94 174q35 32 81 32q31 0 64.5 -13t95.5 -54.5t95 -41.5q32 0 61 23t54 86z" />
    <glyph glyph-name="hungarumlaut" unicode="&#x2dd;" horiz-adv-x="569" 
d="M391 924h-31l120 276q32 70 54.5 88.5t45.5 18.5q25 0 42.5 -16t17.5 -36t-14.5 -45.5t-100.5 -120.5q-24 -28 -134 -165zM50 924h-31l120 276q32 70 54.5 88.5t46.5 18.5t41.5 -16t17.5 -36t-14.5 -45.5t-100.5 -120.5q-24 -28 -134 -165z" />
    <glyph glyph-name="pi" unicode="&#x3c0;" horiz-adv-x="1252" 
d="M1040 250h48q1 -143 -47.5 -203t-123.5 -60q-54 0 -91 28.5t-48 74.5q-11 47 -11 160v467h-337q1 -41 1 -58q0 -255 -11 -384q-12 -130 -38 -188q-19 -43 -60.5 -72.5t-100.5 -29.5q-76 0 -117 50.5t-40 178.5h48q0 -66 15 -91q25 -41 81 -41q87 0 119 108q33 109 40 527
h-97q-64 0 -99 -30t-44 -92h-47q8 120 57.5 172.5t132.5 52.5h663q65 0 88.5 6t42 27.5t24.5 63.5h48q-7 -110 -52.5 -155t-150.5 -45h-56v-467q0 -100 4 -127q5 -38 26 -60q14 -15 40 -15q38 0 59 32q34 52 34 170z" />
    <glyph glyph-name="endash" unicode="&#x2013;" horiz-adv-x="1024" 
d="M0 519h1024v-149h-1024v149z" />
    <glyph glyph-name="emdash" unicode="&#x2014;" horiz-adv-x="2048" 
d="M265 519h1517v-149h-1517v149z" />
    <glyph glyph-name="quoteleft" unicode="&#x2018;" horiz-adv-x="512" 
d="M334 1477l24 -22q-66 -63 -97 -120q-31 -58 -31 -119q0 -13 2 -31q24 17 52 17q35 0 58 -23.5t23 -62.5q0 -45 -29.5 -74.5t-75.5 -29.5q-52 0 -86 36.5t-34 104.5q0 71 43 148q43 78 151 176z" />
    <glyph glyph-name="quoteright" unicode="&#x2019;" horiz-adv-x="512" 
d="M178 1012l-24 21q128 122 128 239q0 13 -2 32q-25 -17 -52 -17q-34 0 -57.5 24.5t-23.5 64.5q0 43 29.5 72t75.5 29q52 0 86 -37t34 -104q0 -75 -35 -138q-46 -85 -159 -186z" />
    <glyph glyph-name="quotesinglbase" unicode="&#x201a;" horiz-adv-x="512" 
d="M153 -292l-24 22q128 121 128 238q0 13 -2 32q-24 -17 -51 -17q-36 0 -59 24.5t-23 63.5q0 43 30 72.5t76 29.5q51 0 85 -37t34 -103q0 -71 -42 -148.5t-152 -176.5z" />
    <glyph glyph-name="quotedblleft" unicode="&#x201c;" horiz-adv-x="759" 
d="M308 1474l24 -21q-128 -121 -128 -238q0 -13 2 -32q24 16 52 16q35 0 58 -24t23 -63q0 -44 -29.5 -73t-76.5 -29q-51 0 -85 36.5t-34 103.5q0 71 42.5 148.5t151.5 175.5zM643 1474l23 -21q-128 -121 -128 -238q0 -13 3 -32q23 16 51 16q36 0 59 -24t23 -63
q0 -44 -30 -73t-76 -29q-52 0 -86 36.5t-34 103.5q0 71 42.5 148.5t152.5 175.5z" />
    <glyph glyph-name="quotedblright" unicode="&#x201d;" horiz-adv-x="759" 
d="M131 1012l-24 21q128 122 128 239q0 13 -2 32q-24 -17 -51 -17q-36 0 -59 24.5t-23 63.5q0 43 30 72.5t76 29.5q51 0 85 -37t34 -103q0 -71 -42 -148.5t-152 -176.5zM465 1012l-23 21q128 122 128 239q0 13 -3 32q-23 -17 -51 -17q-36 0 -59 24.5t-23 63.5q0 43 30 72.5
t76 29.5q52 0 86 -37t34 -103q0 -71 -42.5 -148.5t-152.5 -176.5z" />
    <glyph glyph-name="quotedblbase" unicode="&#x201e;" horiz-adv-x="759" 
d="M131 -292l-24 22q128 121 128 238q0 13 -2 32q-24 -17 -51 -17q-36 0 -59 24.5t-23 63.5q0 43 30 72.5t76 29.5q51 0 85 -37t34 -103q0 -71 -42 -148.5t-152 -176.5zM465 -292l-23 22q128 121 128 238q0 13 -3 32q-23 -17 -51 -17q-36 0 -59 24.5t-23 63.5q0 43 30 72.5
t76 29.5q52 0 86 -37t34 -103q0 -71 -42.5 -148.5t-152.5 -176.5z" />
    <glyph glyph-name="dagger" unicode="&#x2020;" horiz-adv-x="1138" 
d="M557 967l-73 210q-23 70 -29.5 101.5t-6.5 59.5q0 62 34.5 98t89.5 36q59 0 93 -36.5t34 -104.5q0 -27 -5 -50q-7 -36 -30 -103l-74 -213q187 68 291 95q35 9 71 9q66 0 102 -34t36 -90q0 -51 -34 -83.5t-93 -32.5q-47 0 -109 16q-131 33 -262 77q22 -82 54 -160.5
t63 -126.5q-21 -132 -30 -211l-38 -348q-13 -122 -23 -243l-17 -212q-3 -69 -10 -81t-19 -12q-13 0 -19 11q-7 14 -16 129q-12 172 -32 373l-50 475q-5 44 -19 119q82 147 114 287q-264 -93 -370 -93q-57 0 -92.5 35t-35.5 87q0 51 37 86t99 35q25 0 50.5 -5t72.5 -20z" />
    <glyph glyph-name="daggerdbl" unicode="&#x2021;" horiz-adv-x="1138" 
d="M436 495q76 218 101 308q12 44 15 85l-164 -51q-67 -20 -134 -33q-44 -8 -78 -8q-53 0 -88.5 35t-35.5 86q0 52 37 86.5t96 34.5q34 0 79 -10q69 -17 235 -76q37 -14 52 -19q-3 41 -10.5 73.5t-27.5 87.5q-41 113 -53 164t-12 87q0 56 35 91.5t92 35.5q55 0 89.5 -36
t34.5 -100q0 -34 -7.5 -66t-44 -138t-41.5 -126q-9 -36 -13 -76q32 11 74 28q199 78 294 78q57 0 93 -34.5t36 -88.5q0 -53 -33 -85t-95 -32q-32 0 -69 7q-49 10 -142 37l-156 48q18 -97 49 -196q46 -151 65 -197q-37 -96 -72.5 -225.5t-41.5 -167.5q181 61 281 83
q43 9 79 9q69 0 102 -30t33 -82q0 -58 -35.5 -92.5t-95.5 -34.5q-93 0 -324 91q-31 12 -41 15q6 -48 15 -83t42.5 -130.5t40.5 -128t7 -66.5q0 -62 -34.5 -98t-91.5 -36q-56 0 -90.5 36t-34.5 92q0 64 54 218q30 84 38.5 121.5t9.5 71.5q-278 -106 -367 -106q-58 0 -94.5 35
t-36.5 88q0 51 36 85t96 34q29 0 69.5 -7.5t139.5 -35.5l156 -48q-4 48 -20 109t-93 283z" />
    <glyph glyph-name="bullet" unicode="&#x2022;" horiz-adv-x="1024" 
d="M511 1088q91 0 178 -47t135.5 -134t48.5 -182q0 -94 -48 -180t-134 -134t-180 -48t-180.5 48t-134.5 134t-48 180q0 95 49 182t135.5 134t178.5 47z" />
    <glyph glyph-name="ellipsis" unicode="&#x2026;" horiz-adv-x="2048" 
d="M342 166q40 0 68 -28t28 -67q0 -40 -28.5 -68t-67.5 -28q-40 0 -68 28t-28 68q0 39 28 67t68 28zM1025 166q39 0 67 -28t28 -67q0 -40 -28 -68t-68 -28q-39 0 -67 28t-28 68q0 39 28 67t68 28zM1707 166q40 0 68 -28t28 -67q0 -40 -28 -68t-68 -28q-39 0 -67.5 28
t-28.5 68q0 39 28 67t68 28z" />
    <glyph glyph-name="perthousand" unicode="&#x2030;" horiz-adv-x="2200" 
d="M1146 1477h109l-808 -1503h-110zM707 1093q0 -168 -95 -272.5t-217 -104.5q-77 0 -151 45.5t-116.5 135t-42.5 195.5q0 107 43.5 200t116 138t158.5 45q61 0 110 -21.5t86.5 -60t60 -86t35 -105.5t12.5 -109zM551 1093q0 209 -57 295q-36 56 -101 56q-64 0 -100 -56
q-55 -84 -55 -303q0 -200 57 -284q40 -59 103 -59q45 0 78.5 30.5t54 123t20.5 197.5zM1515 358q0 -168 -95 -272.5t-217 -104.5q-76 0 -150.5 46t-117 135t-42.5 195q0 107 44 200t116.5 138t157.5 45q61 0 110 -21t86.5 -59.5t60 -86.5t35 -106t12.5 -109zM1359 358
q0 209 -56 295q-37 56 -102 56q-64 0 -100 -56q-55 -84 -55 -303q0 -200 57 -284q40 -59 103 -59q45 0 79 30.5t54 123t20 197.5zM2246 358q0 -167 -95.5 -272t-217.5 -105q-76 0 -150.5 46t-117 135t-42.5 195q0 107 44 200t116.5 138t157.5 45q61 0 110 -21.5t86.5 -60
t63.5 -92.5q19 -42 32 -99.5t13 -108.5zM2089 358q0 209 -56 295q-37 56 -101 56q-65 0 -101 -56q-55 -84 -55 -303q0 -200 57 -284q40 -59 103 -59q45 0 79 30.5t54 123t20 197.5z" />
    <glyph glyph-name="guilsinglleft" unicode="&#x2039;" horiz-adv-x="493" 
d="M97 405l280 417h45l-159 -417l159 -410h-45z" />
    <glyph glyph-name="guilsinglright" unicode="&#x203a;" horiz-adv-x="493" 
d="M396 405l-280 -410h-45l159 410l-159 417h45z" />
    <glyph glyph-name="franc" unicode="&#x20a3;" horiz-adv-x="1024" 
d="M17 -5v33l128 3q28 0 34 8q9 11 9 53v1221q0 18 -6.5 23t-40.5 6l-124 4v34q191 -8 256 -8l338 3l375 5v-275h-21q-17 104 -59 152.5t-113 62.5q-71 15 -281 15l-65 -2q-15 0 -20 -5.5t-5 -23.5v-519h192q46 0 53 7t7 52v137h37v-433h-37v144q0 38 -9 46.5t-51 8.5h-192
v-652q0 -41 4 -49q7 -12 37 -13l58 -3l105 -2v-33q-174 5 -320 5q-135 0 -289 -5z" />
    <glyph glyph-name="trademark" unicode="&#x2122;" horiz-adv-x="2048" 
d="M1005 1455l211 -515l161 402q21 53 21 82q0 12 -4 31q61 -3 95 -3q74 0 147 3v-31l-60 -2q-18 -1 -20.5 -4t-2.5 -27q0 -8 2 -44l32 -550q2 -32 5 -36q4 -4 19 -4l62 -1v-32q-82 3 -134 3q-97 0 -181 -3v32h60q17 1 20 4t3 27l-2 40l-29 499l-187 -465q-37 -91 -48 -137
h-26l-246 600l-30 -504q-1 -20 -1 -32q0 -21 4 -26t21 -5l57 -1v-32q-55 3 -106 3q-44 0 -95 -3v32l55 1q14 0 17 6q9 17 15 113l30 515q-12 21 -18.5 25.5t-26.5 4.5l-59 3v31q69 -2 145 -2q34 0 94 2zM61 1305h-28q4 73 4 150q179 -8 333 -8q178 0 334 8q1 -52 1 -150h-28
q-3 44 -17.5 66t-43.5 32q-29 11 -100 11h-72v-637q0 -15 2 -17q4 -3 29 -3l75 -1v-32q-109 3 -168 3q-34 0 -191 -3v32l88 1q14 0 15 1q2 3 2 22v634h-42q-90 0 -119 -7q-30 -8 -48.5 -31.5t-25.5 -70.5z" />
    <glyph glyph-name="Omega" unicode="&#x2126;" horiz-adv-x="1479" 
d="M104 347h47q14 -117 39 -167q19 -38 51 -53.5t124 -15.5h218v112q-111 17 -202 59q-91 43 -159 118t-108.5 175.5t-40.5 219.5q0 165 84 303.5t245 220.5t339 82q177 0 336.5 -77.5t244 -216t84.5 -306.5q0 -222 -141 -383t-373 -195v-112h225q72 0 102 9t48.5 29.5
t35.5 71.5q10 33 24 126h49l-17 -347h-528v276q202 21 321 158t119 364q0 279 -183 426q-144 115 -348 115q-150 0 -275 -67.5t-191 -192.5t-66 -289q0 -151 55 -265.5t147 -172.5t234 -76v-276h-523z" />
    <glyph glyph-name="partialdiff" unicode="&#x2202;" horiz-adv-x="1100" 
d="M247 1222l-61 75q68 53 136 78.5t149 25.5q200 0 333 -160q155 -185 155 -532q0 -258 -83 -448q-63 -147 -161 -214.5t-210 -67.5q-160 0 -277 123.5t-117 316.5q0 202 132 312q107 90 257 90q183 0 344 -153v64q0 209 -52 345.5t-132.5 191.5t-173.5 55
q-62 0 -125 -25.5t-114 -76.5zM840 590q-82 79 -157 116.5t-160 37.5q-131 0 -219 -93t-88 -254q0 -153 89 -250t205 -97q94 0 165.5 67t115.5 209q45 142 49 264z" />
    <glyph glyph-name="Delta" unicode="&#x2206;" horiz-adv-x="1365" 
d="M1330 0h-1295l651 1372h64zM166 98h1006l-475 1129z" />
    <glyph glyph-name="product" unicode="&#x220f;" horiz-adv-x="1593" 
d="M1524 1609v-50q-90 -3 -117 -13q-27 -11 -38 -33t-11 -93v-1672q0 -68 11 -91t38 -34t117 -11v-51h-445v51q86 0 113 10q28 10 41 34t13 92v1675q0 57 -8.5 76t-29 28t-76.5 9h-674q-57 0 -77.5 -9t-27.5 -26t-7 -78v-1675q0 -68 14 -95q11 -21 37 -30q26 -10 115 -11
v-51h-443v51q92 2 116 10q25 9 36.5 32t11.5 94v1672q0 68 -11 92q-12 25 -39 36t-114 11v50h1455z" />
    <glyph glyph-name="summation" unicode="&#x2211;" horiz-adv-x="1479" 
d="M1295 1609l23 -334h-48q-17 126 -56 173q-55 67 -174 67h-748l501 -862l-558 -985h820q145 0 187.5 39.5t63.5 203.5h47l-19 -350h-1245l594 1061l-575 987h1187z" />
    <glyph glyph-name="minus" unicode="&#x2212;" 
d="M98 444v98h1018v-98h-1018z" />
    <glyph glyph-name="fraction" unicode="&#x2215;" horiz-adv-x="341" 
d="M495 1481h105l-809 -1507h-104z" />
    <glyph glyph-name="periodcentered" unicode="&#x2219;" horiz-adv-x="512" 
d="M256 561q39 0 67 -28t28 -67q0 -40 -28 -68t-67 -28q-40 0 -68 28t-28 68q0 39 28 67t68 28z" />
    <glyph glyph-name="radical" unicode="&#x221a;" horiz-adv-x="986" 
d="M871 1609l-362 -2048h-98l-327 723l-92 -44l-38 72l185 84l317 -702l329 1915h86z" />
    <glyph glyph-name="infinity" unicode="&#x221e;" horiz-adv-x="1479" 
d="M747 419q-48 -66 -102.5 -119.5t-112.5 -77.5t-125 -24q-132 0 -221.5 87.5t-89.5 213.5q0 132 88 221.5t217 89.5q67 0 121 -24t113 -82q43 -42 101 -125q106 138 175 180q70 43 159 43q84 0 159.5 -39.5t115 -109.5t39.5 -153q0 -131 -88.5 -221t-215.5 -90
q-55 0 -103 16t-86 45t-69 66q-31 38 -75 103zM681 512q-73 95 -100 122q-50 49 -92 69t-89 20q-88 0 -152 -65t-64 -155t62.5 -153t148.5 -63q41 0 76.5 17.5t81.5 62.5q33 33 128 145zM802 487q93 -129 152 -169q60 -41 127 -41q86 0 150.5 65t64.5 156q0 89 -62.5 152
t-145.5 63q-54 0 -103 -33q-50 -34 -183 -193z" />
    <glyph glyph-name="integral" unicode="&#x222b;" horiz-adv-x="1024" 
d="M525 1122v-956q0 -266 -9 -330q-12 -92 -47.5 -154t-79.5 -91.5t-103 -29.5q-54 0 -84 27t-30 65q0 28 19.5 47t47.5 19q25 0 42.5 -13.5t29.5 -47.5q6 -15 10 -18.5t11 -3.5q22 0 43 41q40 82 40 343v1014q0 296 12 360q19 106 79.5 160.5t139.5 54.5q62 0 93 -25.5
t31 -64.5q0 -28 -18.5 -46.5t-47.5 -18.5q-24 0 -43 14t-27 40q-6 18 -12 23.5t-15 5.5q-25 0 -49 -43q-34 -64 -34 -279z" />
    <glyph glyph-name="approxequal" unicode="&#x2248;" 
d="M1142 799q-14 -130 -81.5 -197t-159.5 -67q-45 0 -100 13q-75 18 -290 92q-96 33 -128 40q-33 7 -62 7q-62 0 -110 -45t-60 -125h-78q14 88 33 129q26 57 81.5 98t128.5 41q47 0 89 -10t280 -89q121 -39 152 -46t60 -7q68 0 117 50q37 38 53 116h75zM1142 469
q-14 -130 -81.5 -197t-159.5 -67q-45 0 -100 13q-75 18 -290 92q-96 33 -128 40q-33 7 -62 7q-62 0 -110 -45t-60 -125h-78q14 88 33 129q26 57 81.5 98t128.5 41q47 0 89 -10t280 -88q121 -40 152 -47t60 -7q68 0 117 50q37 38 53 116h75z" />
    <glyph glyph-name="notequal" unicode="&#x2260;" 
d="M471 355l146 276h-519v98h574l158 297l85 -45l-135 -252h336v-98h-388l-148 -276h536v-98h-589l-155 -289l-85 46l131 243h-320v98h373z" />
    <glyph glyph-name="lessequal" unicode="&#x2264;" 
d="M98 533v111l1018 394v-110l-882 -340l882 -340v-110zM98 47h1018v-99h-1018v99z" />
    <glyph glyph-name="greaterequal" unicode="&#x2265;" 
d="M1116 533l-1018 -395v110l881 340l-881 340v110l1018 -394v-111zM1116 47v-99h-1018v99h1018z" />
    <glyph glyph-name="lozenge" unicode="&#x25ca;" 
d="M660 1490l346 -800l-346 -801h-109l-342 801l342 800h109zM606 1375l-287 -685l287 -686l290 686z" />
    <glyph glyph-name="fi" unicode="&#xfb01;" horiz-adv-x="1062" 
d="M363 811h215l-26 -60h-187v-599q0 -95 13 -114q8 -12 44 -12h50v-31q-110 5 -179 5q-140 0 -255 -5v31h50q47 0 60 14.5t13 75.5v635h-99l26 60h76q2 163 17.5 254t50.5 155q46 84 110.5 139t134.5 81.5t141 26.5q80 0 150 -29t99 -71t29 -84q0 -36 -25 -61t-62 -25
t-60.5 24t-23.5 63q0 10 2.5 26t2.5 27q0 43 -26 66q-37 31 -101 31q-54 0 -101.5 -23t-75 -57t-41 -78t-18 -122.5t-4.5 -342.5zM616 780v31h102q63 0 123.5 7.5t99.5 18.5q-14 -209 -14 -416q0 -75 2 -231q1 -118 7 -141q3 -11 10 -16q11 -7 52 -7h40v-31q-110 5 -180 5
q-140 0 -256 -5v31h62q44 0 52.5 10t8.5 75v565q0 85 -9 94q-9 10 -66 10h-34z" />
    <glyph glyph-name="fl" unicode="&#xfb02;" horiz-adv-x="1062" 
d="M90 811h71q-1 145 16 241.5t60.5 173.5t104.5 129.5t131 80t146 27.5q60 0 127 -22q49 -16 61 -16q13 0 41 9q50 17 95 39q-5 -66 -8 -175l-5 -281l-1 -929q0 -45 8 -53.5t51 -8.5h45v-31q-113 5 -219 5t-212 -5v31h54q51 0 58 10q11 15 11 109v1085q0 24 -5 93
q-51 55 -94 77t-84 22q-46 0 -81.5 -22.5t-59.5 -69t-33 -139.5q-6 -55 -6 -181v-199h245l-26 -60h-221v-483q0 -206 12 -227q8 -15 43 -15h54v-31q-112 5 -202 5q-121 0 -234 -5v31h52q41 0 54 7q14 7 19 22q3 11 3 71v625h-97z" />
    <glyph glyph-name="frame" horiz-adv-x="1517" 
d="M247 0v1280h1024v-1280h-1024zM279 32h960v1216h-960v-1216z" />
  </font>
</defs>
</svg>
